<svg xmlns="http://www.w3.org/2000/svg" width="72" height="72" viewBox="0 0 72 72"><title>Icon-Design</title><path d="M67,16.91,35.95,0,5,16.86,0,19.61v23H5V22.78l16.09,8.78V26.5c0-.21,0-.41,0-.61L10,19.82,35.95,5.69l25.9,14.13-11,6c0,.22,0,.44,0,.67v5L67,22.72V41.85h5V19.67Z" fill="#d194ff"/><path d="M69.48,38.49,67,37.1,50.86,28.2v5.17c0,.17,0,.34,0,.51L62,40l-5.83,3.22L51,46.11,36.45,54.17,21.88,46.11l-5.14-2.85L10.91,40l10.28-5.68c0-.33-.05-.66-.05-1V28.7L6.09,37,0,40.52V51.9L2.52,53.3,5,54.69,36.45,72,67,55.13l2.52-1.4L72,52.34V39.89ZM67,49.44l-5,2.75L36.45,66.31,5,48.93V42.49l6.55,3.62L16.74,49,36.45,59.86,56.17,49l5.14-2.85L67,43Z" fill="#ae43ff"/><path d="M41.6,19.84a5.51,5.51,0,0,1,5.5,5.5v9.18A5.51,5.51,0,0,1,41.6,40H30.4a5.51,5.51,0,0,1-5.5-5.5V25.34a5.51,5.51,0,0,1,5.5-5.5H41.6m0-5H30.4a10.5,10.5,0,0,0-10.5,10.5v9.18A10.5,10.5,0,0,0,30.4,45H41.6a10.5,10.5,0,0,0,10.5-10.5V25.34a10.5,10.5,0,0,0-10.5-10.5Z" fill="#522a71"/><polygon points="47.05 33.58 47.05 27.89 35.95 33.95 6.68 17.98 6.68 23.66 35.95 39.64 47.05 33.58" fill="#d194ff"/><path d="M36,26.26h0Z" fill="#fff"/><path d="M36,23.8a2.48,2.48,0,1,0,2.52,2.48A2.5,2.5,0,0,0,36,23.8Z" fill="#522a71"/></svg>