<svg xmlns="http://www.w3.org/2000/svg" xmlns:xlink="http://www.w3.org/1999/xlink" width="1144.02" height="652.89" viewBox="0 0 1144.02 652.89"><defs><linearGradient id="a" x1="836.54" y1="1601.91" x2="836.54" y2="2004.28" gradientTransform="matrix(1, 0, 0, -1, -28, 2106.79)" gradientUnits="userSpaceOnUse"><stop offset="0" stop-color="gray" stop-opacity="0.25"/><stop offset="0.54" stop-color="gray" stop-opacity="0.12"/><stop offset="1" stop-color="gray" stop-opacity="0.1"/></linearGradient><linearGradient id="b" x1="296.25" y1="1586.76" x2="296.25" y2="1886.73" gradientTransform="matrix(1, 0, 0, -1, -53, 2179.6)" xlink:href="#a"/><linearGradient id="c" x1="141.81" y1="1761.84" x2="141.81" y2="1808.9" gradientTransform="matrix(1, 0, 0, -1, -53, 2179.6)" xlink:href="#a"/><linearGradient id="d" x1="-254.67" y1="1764.24" x2="-254.67" y2="1792.51" gradientTransform="translate(-165.65 2179.6) rotate(180)" xlink:href="#a"/><linearGradient id="e" x1="375.71" y1="1526.71" x2="375.71" y2="1822.26" gradientTransform="matrix(1, 0, 0, -1, -53, 2179.6)" xlink:href="#a"/></defs><title>reward</title><path d="M687.74,470.31c22.1-1.26,49.52-16.25,70.84-22.88q37.85-11.74,76-22.59,132.81-37.79,268.47-64.4,12.66-2.49,25.36-4.86a179.51,179.51,0,0,0-59.26-71.17,182.06,182.06,0,0,0,1-18.78c0-99.14-79.23-179.51-177-179.51a174.18,174.18,0,0,0-85.9,22.55C738.05,63.15,647.73,35.6,548.91,35.6,408.49,35.6,285.22,91.23,215.37,175l328.28,55.46,201.34,34C515.46,271.31,285.22,278.12,56.35,262A181.42,181.42,0,0,0,30.23,491h0c0,3.59.15,7.15.42,10.68,5.83,1.67,11.46,3.29,16.51,4.35q121.61,25.69,244.78,43c-60.51,37.31-134.2,42.59-204,58.39,33.8,27.9,79.7,45,130.28,45H971.34c81.55,0,147.65-56.77,147.65-126.81h0a180.19,180.19,0,0,0,24-65.89C992.09,474.33,839.31,461.68,687.74,470.31Z" fill="#6c63ff" opacity="0.1" style="isolation:isolate"/><path d="M1144,429.93a180,180,0,0,0-76-147.42,184.72,184.72,0,0,0,1-18.77c0-99.14-79.27-179.48-177-179.48a174.28,174.28,0,0,0-85.91,22.54c-69.2-45.54-159.53-73.1-258.35-73.1C387,33.7,248.66,106.65,187.3,211.26c-3.41-.2-6.84-.31-10.3-.31-97.74,0-177,80.37-177,179.51a180.53,180.53,0,0,0,29.12,98.67h0c0,89.2,84.19,161.51,188,161.51H970.26c81.54,0,147.64-56.78,147.64-126.82h0A180.52,180.52,0,0,0,1144,429.93Z" fill="#6c63ff" opacity="0.1" style="isolation:isolate"/><path d="M934.3,319.95a11.14,11.14,0,0,0-4.88-2.14c-1.87-.43-3.78-.7-5.68-1l-24.62-3.55a29,29,0,0,0-7.54-.4,9.57,9.57,0,0,0-6.56,3.4,5.11,5.11,0,0,0-1.14,3.2,8.44,8.44,0,0,0,1.12,3.32,11.1,11.1,0,0,1,.61,1.47,33.61,33.61,0,0,0,.88,3.35,2.84,2.84,0,0,0,.42.66,1.08,1.08,0,0,1,0,.17c-.27,1.38.6,2.82.21,4.15-.34,1.14-1.45,1.83-2.15,2.78a4.18,4.18,0,0,0-.1,4.61c.75,1.16,2.11,2,2.5,3.28.51,1.75-.87,3.44-2.1,4.79a74.23,74.23,0,0,0-6.26,7.89,4.89,4.89,0,0,0-1,2.35c-.11,1.74,1.56,3.27,1.27,5-.23,1.36-1.56,2.19-2.71,3-4.25,2.8-7.66,7.3-8,12.39a43.4,43.4,0,0,0-9.68-22c-1.43-1.72-3-3.45-3.59-5.63-.22-.87-.26-1.8-.56-2.64-1-2.65-4.18-3.79-5.57-6.23-1-1.72-1-3.93-2.24-5.44s-3.19-1.85-4.26-3.31a21.17,21.17,0,0,1-1.36-3.08,6.73,6.73,0,0,0-1.85-2.22,5.4,5.4,0,0,0-.46-.33,1.59,1.59,0,0,0,.53-1.18c0-1.17-1.16-1.94-2.17-2.52-1.3-.74-2.57-1.54-3.81-2.37a8.91,8.91,0,0,0,3.41-2.79,9.17,9.17,0,0,0,1.3-6,7.57,7.57,0,0,0-1.79-4.59c-.63-.67-1.42-1.15-2.08-1.78-1.71-1.67-2.29-4.14-3-6.42-.94-3-2.41-6.15-5.15-7.74-1.32-.77-2.86-1.13-4.15-1.94s-2.37-2.34-1.92-3.81c.3-1,1.23-1.69,1.86-2.54a5.06,5.06,0,0,0-1.27-7c-.74-.47-1.65-.88-1.8-1.74a3.18,3.18,0,0,1-2.32-2.46,9.48,9.48,0,0,1,0-3.56q.39-2.79.77-5.56a3.62,3.62,0,0,0,2.78,0,24.48,24.48,0,0,0,3,3.92,39.17,39.17,0,0,1,7,12.15c.57,1.6,1.15,3.39,2.63,4.24.51.29,1.09.44,1.59.75a5.94,5.94,0,0,1,1.56,1.6c1.2,1.59,2.4,3.17,3.59,4.76l.06.24a1.4,1.4,0,0,0,.16.4,1.33,1.33,0,0,0,.86.44c3.68.85,7.81,1.63,11-.38,2.88-1.8,4.14-5.36,6.58-7.74,1.73-1.69,4.18-3,4.67-5.38a17.71,17.71,0,0,1-1.72-.63c.5-.5,1-1.08,1.68-1.74a21.18,21.18,0,0,0,2.66-3.17,20.43,20.43,0,0,0,2-4.48q2.89-8.24,5.8-16.49c.92-2.6,1.84-5.22,3-7.75,1.2-2.74,2.62-5.37,3.93-8.06a107,107,0,0,0,7.78-21.9,8,8,0,0,0,.31-3.19c-.28-1.73-1.59-3.09-2.84-4.32a20.84,20.84,0,0,0-4.26-3.53,7,7,0,0,0-5.34-.86c-2.56.75-4.17,3.37-4.76,6s-.37,5.34-.62,8c-.36,3.85-1.68,7.57-2,11.43-.17,2.23,0,4.49-.27,6.72a24.52,24.52,0,0,1-3,8.28A53.6,53.6,0,0,1,852.31,259c-.61.51-1.24,1-1.84,1.55a9.54,9.54,0,0,1,.13-1.3,7.84,7.84,0,0,0-1.27.45,3.81,3.81,0,0,0-.15-1.5c-.8-2.39-4.36-3-5-5.43A11.1,11.1,0,0,1,844,251c-.21-2.13-1.66-3.93-2.16-6-.46-1.91-.11-4-1-5.77a16.13,16.13,0,0,0-2.66-3,11.77,11.77,0,0,1-2.53-4.77c-.13-.49-.25-1-.39-1.49a6.82,6.82,0,0,0-.36-3.29c-.91-2.26-3.26-3.71-4.11-6-.66-1.78-.37-4-1.62-5.38a5.85,5.85,0,0,0-2.37-1.43,52.73,52.73,0,0,0-14.27-3.37c-2.74-.25-5.76-.39-7.72-2.32-2.29-2.24-2.4-6.27-5.08-8-2.36-1.53-5.7-.4-7.53,1.75a9.54,9.54,0,0,0-.76,1,10.7,10.7,0,0,1-.21-4.1c0-.34.07-.69.1-1a20,20,0,0,0,10.84-8.56v.06l.12.31c.29.73.75,1.43,1.43,1.51h0a2,2,0,0,0,1.24-.45,10.27,10.27,0,0,0,1.66-1.44q.38-.42.72-.87a11.33,11.33,0,0,0,1.18-2,11.88,11.88,0,0,0,1-3.35c.18-1.16.2-2.35.4-3.51a21.61,21.61,0,0,1,.73-2.65c.1-.29.2-.58.29-.87l.32-1a23.17,23.17,0,0,0,1-6.34q0-.54,0-1.08a10.55,10.55,0,0,0-3.36-7.45c-1.72-1.41-4-2-5.26-3.91-.82-1.28-1-2.93-1.48-4.43a10,10,0,0,0-7.86-7.07,8.75,8.75,0,0,0-6.22,1.71h0l-.14.11h0a10,10,0,0,0-2.48,2.76,8.25,8.25,0,0,1-3.52-2c-1-.93-1.77-2.1-2.78-3a7.15,7.15,0,0,0-7.12-1.5,8.51,8.51,0,0,0-5.09,5.83c-.55,2.06-.45,4.43-1.6,6.15-.89,1.34-2.35,2-3.37,3.22a6.06,6.06,0,0,0-1.26,2.67h0a7.23,7.23,0,0,0-.17,1.67h0a3,3,0,0,0,.06.74v.12a5.29,5.29,0,0,0,.17.81h0a7,7,0,0,0,1.49,2.74,6.58,6.58,0,0,0,2.41,1.74,9.76,9.76,0,0,0,1.16.37l1.19.27.42.1a19.94,19.94,0,0,0-.56,17.61,8,8,0,0,1-.1.84,69.17,69.17,0,0,0,.52,11.79c.14,1.55.22,3.26-.73,4.49a8.52,8.52,0,0,1-1.45,1.29c.54-.7,1.09-1.39,1.65-2.08-1.41-1.42-3.64-1.6-5.64-1.46a26.13,26.13,0,0,0-11,3.36c-2.24,1.29-4.54,3-7.1,2.7-1.51-.17-3-1-4.47-.6a9.06,9.06,0,0,0-2.29,1.36,3.1,3.1,0,0,1-1.88.58c-1.57-1.93-4-3.24-5.88-4.81a46.33,46.33,0,0,1-5.85-6.27c-3.24-3.91-6.47-7.83-9.65-11.78-2.68-3.32-5.43-6.91-5.9-11.16a10.93,10.93,0,0,1-.07-1.27,32.3,32.3,0,0,1,.76-6,3,3,0,0,0,0-1.45c-.3-1-1.45-1.37-2.44-1.59h0c.13-.77.22-1.56.27-2.31.56-8.6,0-17.34,1.77-25.76.69-3.24,1.82-6.52,4.15-8.87,3.65-3.69,9.76-4.58,12.56-8.95,2.34-3.64,1.41-8.79-1.53-12s-7.47-4.52-11.78-4.36a6.08,6.08,0,0,0-3.43.92,7.29,7.29,0,0,0-2.08,3.16L701,117a63.09,63.09,0,0,0-3.14,8.38c-1.2,4.38-1.47,9-2.42,13.42,0,3.4-2.19,7.64-3.39,10.77-1.34,3.52-2.79,7-4,10.59-.3.9-1.35,3.57-2,6a3.66,3.66,0,0,0-.68.51,18.09,18.09,0,0,0-1.42,2.11c-.91,1.2-2.39,1.84-3.39,3s-1.21,3.29.18,3.87a4.08,4.08,0,0,0,.87.19,3.38,3.38,0,0,1,.54.09c1.5.42,2.09,2.31,1.87,3.87s-1,3-1.13,4.56c-.27,2.76,1.35,5.33,2.91,7.65a65.94,65.94,0,0,0,5.34,7.19c1.41,1.58,3,3,4.42,4.52,5.41,5.56,9.71,12.06,14.57,18.1a40.13,40.13,0,0,0,5.93,6.22,44.65,44.65,0,0,0,4.49,3.09l8.36,5.3a9.16,9.16,0,0,0,3.16,1.49,4.2,4.2,0,0,0,1.12,0c0,.25.09.49.15.74.65,2.62,2.08,5,2.24,7.67s-.08,5.4.11,8.1c.18,2.49.73,5,.87,7.45.28,4.72-.88,9.38-2,14-1.69,6.76-2.71,13.66-6,19.79-.92,1.69-2,3.41-2,5.34a2.76,2.76,0,0,0,.06.7h0l-1.5.85c-.44.25-.88.5-1.28.76-1.9,1.24-3.93,2.61-4.71,4.75-.63,1.73-.34,3.71-1.1,5.39l-.12.22c-.8,1.56-2.39,2.72-2.75,4.43h0c-.27,1.31.25,2.7,0,4v0a14.47,14.47,0,0,0-.54,2,2.39,2.39,0,0,0,.06.66,3.81,3.81,0,0,0,1.2,2,8,8,0,0,0,1.17.93q.64.42,1.32.78l.26.14c.38.2.76.39,1.15.57l.26.11c.45.2.91.38,1.37.54l.32.1c.36.12.73.23,1.1.32l.25.08.23,0,1,.21.37.07q.66.11,1.35.18h.4c.34,0,.67,0,1,.06h1.83a11.2,11.2,0,0,0,1.41-.13h.15c.42-.06.84-.13,1.26-.22l.32-.07c.39-.09.78-.18,1.17-.3l.21-.06c.47-.14.94-.29,1.4-.47a36.74,36.74,0,0,0,4.62-2.29c1-.55,2-1.11,3-1.62a23.29,23.29,0,0,1,2.28-1,12.87,12.87,0,0,1,6-1,23.5,23.5,0,0,1,3,.61v.33q1.22,7.2,2.41,14.4a29.32,29.32,0,0,1,4.14-2.49,9.21,9.21,0,0,0-.53,2.25,8.92,8.92,0,0,0,0,1.79c.09,1,.29,2-.28,2.75-.35.46-1,.72-1.19,1.24a4.23,4.23,0,0,0-.1,1.63,2.6,2.6,0,0,1-2.38,2.42,3.8,3.8,0,0,1-1.51,4.46,5.28,5.28,0,0,0-1.16.76,3.46,3.46,0,0,0-.67,1.51A26.72,26.72,0,0,1,745,368.32a25.17,25.17,0,0,0-3.87,3.78,17.21,17.21,0,0,0-1.75,3.45q-4,9.78-8.12,19.57a43.43,43.43,0,0,0-3.48,11.29c-1.2,10.78-10.8,19.92-9,30.62a15,15,0,0,0,3.12,7.31c2,2.41,5,3.79,8,4.91,7.71,3,15.84,4.64,23.94,6.29l12.72,2.61a55.6,55.6,0,0,0,7.58,1.2c3.07.21,6.22-.08,9.21.7,1.85.48,3.62,1.37,5.53,1.47,1.64.09,3.66-.26,4.63,1.08s.22,3.11,1.14,4.3c1.48,1.89,5.09,0,6.7,1.78a8.29,8.29,0,0,1,1,2.21,4,4,0,0,0,1,1.26,8.45,8.45,0,0,1,.12,1.71,29.49,29.49,0,0,1-1.44,6.82q-1.8,6.09-3.59,12.19a27,27,0,0,0-1,4.4,10.57,10.57,0,0,0,0,2.18c.21,2.21,1.48,4.49,3.59,5.21a6.58,6.58,0,0,0,4.86-.6,21.48,21.48,0,0,0,4-2.7,27.31,27.31,0,0,0,5.77-5.94c5-7.48,3.38-17.6,6.89-25.87,2.33-5.52,6.87-10,8.38-15.82a6.33,6.33,0,0,0,.12-3.42c-.63-2-2.76-3.14-4.75-3.86h-.09a41,41,0,0,0-5-1.43c-.42-.09-.85-.16-1.28-.23a7.85,7.85,0,0,1-2.21-2.88,6.7,6.7,0,0,0-.47-1.73,1.8,1.8,0,0,0-1.44-.8c-1-.1-2.34.26-3.43.18-2.23-.16-3.71-2.35-5.71-3.36s-4.17-.76-6.3-.61a5.83,5.83,0,0,1-2.28-.14,8.57,8.57,0,0,1-2.4-1.65,10.06,10.06,0,0,0-8.81-1.77,9.6,9.6,0,0,1-3,.68c-2-.11-3.33-1.85-4.77-3.17-3.94-3.61-9.55-4.56-14.33-6.93a3.27,3.27,0,0,1-1.72-1.48c-.55-1.36.69-2.72,1.81-3.65l8.22-6.83c9-7.48,20.25-13.11,24.43-24.08a13.93,13.93,0,0,1,2-4.11,5.58,5.58,0,0,1,1.11-1,8.4,8.4,0,0,1,6.15-1.2,20.77,20.77,0,0,1,7.24,3.16q5.37,3.25,10.45,7a92.45,92.45,0,0,1,9.55,7.84c5.25,5,9.62,10.93,14.51,16.32S859,425,865.8,427.58s15,2.47,20.83-1.86c6.73-5,8.89-13.94,10.59-22.14,3.75-3.62,4.88-9.13,6.71-14,1.15-3.09,2.62-6,3.86-9.08,1.48-3.62,2.64-7.36,3.8-11.09a53.33,53.33,0,0,0,2.66-11.57c.48-6.23-1.19-12.86.56-18.71,2.31-.51,4.41-1.81,6.68-2.57,3.38-1.11,7-.93,10.58-.91h.23a5.46,5.46,0,0,0,3.52-.83c1.2-1,1.39-2.71,1.45-4.26C937.41,326.73,937.17,322.43,934.3,319.95ZM789.41,149.37a7.43,7.43,0,0,1-2.53.18Z" fill="url(#a)"/><path d="M793.35,212.63a11,11,0,0,1-4.16,2.21l-7.09,2.54c-3.85,1.38-7.87,2.77-11.93,2.27-2.27-.28-12-1.71-13.47-3.48-2.24-2.74,5.61-6.77,8.29-9.08a11.34,11.34,0,0,0,1.68-1.48c1-1.22.87-2.93.73-4.47a69,69,0,0,1-.52-11.77,23.72,23.72,0,0,1,.4-2.79c1-4.6,5.28-2.92,8.66-1.7A67.71,67.71,0,0,1,787.69,190a8.43,8.43,0,0,1,2.9,2.46c1.48,2.24.89,5.18.65,8-.21,2.19-.2,4.29,1.17,5.88a15.14,15.14,0,0,1,1.89,2A3.75,3.75,0,0,1,793.35,212.63Z" fill="#be6f72"/><path d="M695.41,140.56c1-4.43,1.22-9,2.42-13.39a62.69,62.69,0,0,1,3.14-8.35l4.41-10.29a7.26,7.26,0,0,1,2.08-3.15,6.16,6.16,0,0,1,3.43-.92c4.31-.16,8.84,1.18,11.78,4.35s3.87,8.3,1.53,11.93c-2.8,4.37-8.91,5.25-12.56,8.93-2.33,2.35-3.46,5.62-4.15,8.85-1.82,8.4-1.21,17.11-1.77,25.69-.18,2.67-.7,5.72-3,7.1a8.75,8.75,0,0,1-4.48.87l-6.56.11c-1.1,0-5.09.69-5.82-.14-1.28-1.45,1.64-8.67,2.17-10.28,1.18-3.57,2.63-7,4-10.56C693.22,148.18,695.41,143.95,695.41,140.56Z" fill="#be6f72"/><path d="M830.86,454.72c-1.51,5.78-6,10.28-8.38,15.79-3.51,8.25-1.93,18.34-6.89,25.8a27.26,27.26,0,0,1-5.77,6,21.43,21.43,0,0,1-4,2.69,6.58,6.58,0,0,1-4.86.6c-2.11-.72-3.38-3-3.59-5.2a10.49,10.49,0,0,1,0-2.17,26.89,26.89,0,0,1,1-4.39q1.8-6.07,3.59-12.16a29.44,29.44,0,0,0,1.44-6.8c.13-2.52-1.47-5.8-.79-8.15.31-1.06,1.47-2,2-2.89a16.73,16.73,0,0,0,1.72-4.09c.82-2.79,1.38-5.77,3.1-8.12a19.06,19.06,0,0,1,3.9-3.65,10.34,10.34,0,0,1,3.72-2.09,9.11,9.11,0,0,1,4,.19,39.24,39.24,0,0,1,5,1.42h.09c2,.72,4.12,1.83,4.75,3.85A6.29,6.29,0,0,1,830.86,454.72Z" fill="#3f3d56"/><path d="M937.26,331.78c-.06,1.55-.25,3.28-1.45,4.25a5.46,5.46,0,0,1-3.52.83H932c-3.57,0-7.2-.2-10.58.91-2.57.85-4.93,2.41-7.61,2.72-3.69.42-7.16-1.6-10.43-3.36a103.75,103.75,0,0,0-9.47-4.5c-2.12-.87-6.45-1.43-7.47-3.75a34.15,34.15,0,0,1-.88-3.34,11.1,11.1,0,0,0-.61-1.47,8.45,8.45,0,0,1-1.12-3.31,5.11,5.11,0,0,1,1.14-3.2,9.59,9.59,0,0,1,6.55-3.37,29,29,0,0,1,7.54.4l24.62,3.54c1.9.27,3.81.54,5.68,1a11.14,11.14,0,0,1,4.88,2.14C937.17,323.71,937.41,328,937.26,331.78Z" fill="#3f3d56"/><path d="M915.62,338.18c-3,6.33-.84,13.82-1.38,20.82a53.07,53.07,0,0,1-2.66,11.54c-1.16,3.72-2.32,7.45-3.8,11.06-1.24,3-2.71,6-3.86,9.06-1.83,4.88-3,10.37-6.71,14-1.7,8.18-3.86,17.12-10.59,22.08-5.85,4.32-14,4.47-20.83,1.86s-12.38-7.61-17.27-13-9.26-11.26-14.51-16.28a91,91,0,0,0-9.57-7.83q-5.08-3.69-10.45-6.94a20.93,20.93,0,0,0-7.24-3.15,8.4,8.4,0,0,0-6.15,1.2,5.58,5.58,0,0,0-1.11,1,13.76,13.76,0,0,0-2,4.1c-4.2,10.94-15.47,16.56-24.47,24l-8.22,6.81c-1.12.93-2.36,2.29-1.81,3.64a3.27,3.27,0,0,0,1.72,1.48C769.49,426,775.1,427,779,430.56c1.44,1.32,2.82,3.06,4.77,3.16a9.58,9.58,0,0,0,3-.67,10.09,10.09,0,0,1,8.81,1.76,8.57,8.57,0,0,0,2.4,1.65,5.83,5.83,0,0,0,2.28.14c2.13-.15,4.39-.34,6.3.61s3.48,3.19,5.71,3.35c1.09.08,2.39-.28,3.43-.18a1.8,1.8,0,0,1,1.44.8,6.63,6.63,0,0,1,.47,1.72c.41,1.41,1.79,2.27,2.69,3.43,1.38,1.78,1.58,4.2,1.44,6.45A27.52,27.52,0,0,1,813,471.2a10.84,10.84,0,0,1-5.39,3,5,5,0,0,1-5.34-2.37,8.22,8.22,0,0,0-1-2.2c-1.61-1.77-5.22.11-6.7-1.78-.92-1.18-.26-3.07-1.14-4.29s-3-1-4.63-1.07c-1.91-.1-3.68-1-5.53-1.47-3-.78-6.14-.49-9.21-.7a55.6,55.6,0,0,1-7.58-1.2l-12.72-2.6c-8.1-1.65-16.23-3.32-23.94-6.27-3-1.12-5.92-2.5-8-4.9a15,15,0,0,1-3.12-7.3c-1.81-10.67,7.79-19.79,9-30.54.43-3.92,2-7.62,3.48-11.26q4.07-9.76,8.12-19.53a17.4,17.4,0,0,1,1.7-3.46,25.11,25.11,0,0,1,3.87-3.77,26.63,26.63,0,0,0,7.83-12.84,3.46,3.46,0,0,1,.67-1.51,5.62,5.62,0,0,1,1.16-.75,3.8,3.8,0,0,0,1.51-4.45,2.6,2.6,0,0,0,2.38-2.42,4.18,4.18,0,0,1,.1-1.62c.24-.52.84-.78,1.19-1.24.57-.75.37-1.8.28-2.74a8.92,8.92,0,0,1,0-1.79,9.19,9.19,0,0,1,2.68-5.59c2.39-2.35,5.79-1.74,9.09-2.3a52.07,52.07,0,0,0,9.6-3.07,94.31,94.31,0,0,1,27.11-6.27,59.19,59.19,0,0,1,27.38,4.36,15.57,15.57,0,0,1,3.53,2,6.69,6.69,0,0,1,1.85,2.21,20.6,20.6,0,0,0,1.36,3.07c1.07,1.46,3.09,1.93,4.26,3.31s1.27,3.71,2.24,5.42c1.39,2.44,4.61,3.57,5.57,6.22.3.84.34,1.76.56,2.63.54,2.18,2.16,3.9,3.59,5.62a43.21,43.21,0,0,1,9.68,22c.32-5.07,3.73-9.56,8-12.36,1.15-.75,2.48-1.58,2.71-2.94.29-1.72-1.38-3.25-1.27-5a4.9,4.9,0,0,1,1-2.34,74,74,0,0,1,6.26-7.87c1.23-1.35,2.61-3,2.1-4.78-.39-1.33-1.75-2.11-2.5-3.27a4.16,4.16,0,0,1,.1-4.6c.7-1,1.81-1.64,2.15-2.77.39-1.33-.48-2.77-.21-4.14a5.12,5.12,0,0,1,2.06-2.67,17.13,17.13,0,0,1,4.47-2.94c2.64-1,5.58-.63,8.38-.24,4.68.65,9.93,1.65,12.57,5.57C916,331.84,916.88,335.56,915.62,338.18Z" fill="#65617d"/><path d="M937.26,331.78c-.06,1.55-.25,3.28-1.45,4.25a5.46,5.46,0,0,1-3.52.83H932c.41-2.08,2.94-3.27,3.38-5.38a4.76,4.76,0,0,0-1.1-3.63c-2.14-2.89-5.58-4.49-9-5.66a59.62,59.62,0,0,0-30.06-2.25,30.27,30.27,0,0,0-7.9,2.43,25.75,25.75,0,0,0-2.4,1.7,8.45,8.45,0,0,1-1.12-3.31,5.11,5.11,0,0,1,1.14-3.2,9.59,9.59,0,0,1,6.55-3.37,29,29,0,0,1,7.54.4l24.62,3.54c1.9.27,3.81.54,5.68,1a11.14,11.14,0,0,1,4.88,2.14C937.17,323.71,937.41,328,937.26,331.78Z" opacity="0.1" style="isolation:isolate"/><path d="M830.86,454.72c-1.51,5.78-6,10.28-8.38,15.79-3.51,8.25-1.93,18.34-6.89,25.8a27.26,27.26,0,0,1-5.77,6,21.43,21.43,0,0,1-4,2.69,6.58,6.58,0,0,1-4.86.6c-2.11-.72-3.38-3-3.59-5.2a10.49,10.49,0,0,1,0-2.17l.06.16c.87,2.1,2.29,4.3,4.53,4.67a6.13,6.13,0,0,0,4.62-1.63c3.3-2.65,5.22-6.6,7-10.41a43.3,43.3,0,0,0,3.38-8.63c.4-1.7.59-3.44,1-5.14,1.9-8.26,8.37-15,9.8-23.37a5.72,5.72,0,0,0,.08-1.75,8.84,8.84,0,0,0-.86-2.18,10.8,10.8,0,0,1-.76-2.42c2,.72,4.12,1.83,4.75,3.85A6.29,6.29,0,0,1,830.86,454.72Z" opacity="0.1" style="isolation:isolate"/><path d="M815.76,440.38a14.49,14.49,0,0,1-4.51,6.16,22,22,0,0,1-9.71,4.2,9.66,9.66,0,0,1-5-.06c-2.22-.77-3.82-2.85-6.09-3.45-1.62-.44-3.36,0-5-.29-3-.41-5.24-2.66-7.62-4.46-7.29-5.48-16.86-7.25-24.15-12.73a2.24,2.24,0,0,1-.78-.81,2.41,2.41,0,0,1-.15-1.13,23,23,0,0,1,2.19-9.61,33.53,33.53,0,0,1,4.12-5.87c6.53-8,13.09-16.06,20.91-22.81,3.28-2.83,6.86-5.47,11-6.75,2.3-.71,6.84-1.38,9.64-.18a5.58,5.58,0,0,0-1.11,1,13.76,13.76,0,0,0-2,4.1c-4.21,10.95-15.48,16.57-24.48,24l-8.22,6.81c-1.12.93-2.36,2.29-1.81,3.64a3.27,3.27,0,0,0,1.72,1.48C769.49,426,775.1,427,779,430.56c1.44,1.32,2.82,3.06,4.77,3.16a9.58,9.58,0,0,0,3-.67,10.09,10.09,0,0,1,8.81,1.76,8.57,8.57,0,0,0,2.4,1.65,5.83,5.83,0,0,0,2.28.14c2.13-.15,4.39-.34,6.3.61s3.48,3.19,5.71,3.35C813.42,440.64,814.72,440.26,815.76,440.38Z" opacity="0.1" style="isolation:isolate"/><path d="M723.79,304.66c-1.9,1.22-3.92,2.6-4.7,4.72-.64,1.73-.34,3.71-1.11,5.39s-2.5,2.85-2.88,4.65c-.27,1.31.26,2.69,0,4a17.24,17.24,0,0,0-.55,2.08c-.1,1.49,1.18,2.7,2.43,3.53a20.3,20.3,0,0,0,18.17,2c2.67-1,5.08-2.63,7.64-3.91a15.11,15.11,0,0,1,8.23-2c1.65.18,3.23.78,4.88,1a5.12,5.12,0,0,0,4.57-1.36,5.7,5.7,0,0,0,1-2.37c1.39-5.49.76-11.31-.56-16.83s-3.32-10.83-4.73-16.32c-1-4.07-1.77-8.24-3.44-12.09s-4.48-7.43-8.41-8.9a1.57,1.57,0,0,0-1-.13,1.7,1.7,0,0,0-.65.48,30.75,30.75,0,0,0-6.86,11.54c-1.57,4.79-2,9.87-3.44,14.68-.62,2-1.42,4.68-3,6.21S725.58,303.51,723.79,304.66Z" fill="#3f3d56"/><path d="M761.5,322.36a5.83,5.83,0,0,1-1,2.37,5.07,5.07,0,0,1-4.57,1.35c-1.64-.2-3.22-.81-4.87-1a15.08,15.08,0,0,0-8.23,2c-2.56,1.28-5,2.87-7.65,3.9a20.19,20.19,0,0,1-12.13.69,19.57,19.57,0,0,1-6-2.64c-1.26-.82-2.53-2-2.43-3.53a17.09,17.09,0,0,1,.55-2.07c.26-1.31-.26-2.69,0-4,.38-1.8,2.12-3,2.88-4.66s.47-3.65,1.1-5.38c.78-2.13,2.81-3.5,4.71-4.73s4.16-2.17,5.68-3.66a5.64,5.64,0,0,0,.53-.74,18,18,0,0,0,2.38-5.51c1.47-4.82,1.87-9.89,3.43-14.69a30.81,30.81,0,0,1,6.87-11.53,1.51,1.51,0,0,1,.64-.48,1.6,1.6,0,0,1,1,.12c3.92,1.48,6.73,5.06,8.41,8.91s2.39,8,3.44,12.08c1.4,5.49,3.41,10.82,4.73,16.33S762.89,316.86,761.5,322.36Z" opacity="0.1" style="isolation:isolate"/><path d="M791.24,200.4a20,20,0,0,1-24.36-11,23.72,23.72,0,0,1,.4-2.79c1-4.6,5.28-2.92,8.66-1.7A67.71,67.71,0,0,1,787.69,190a8.43,8.43,0,0,1,2.9,2.46C792.07,194.67,791.48,197.61,791.24,200.4Z" opacity="0.1" style="isolation:isolate"/><circle cx="785.2" cy="180.34" r="20" fill="#be6f72"/><path d="M839.47,329.8c0,1.66-2.25,2.19-3.92,2.1-6-.35-11.87-2-17.81-1.5-7.51.68-14.41,4.83-21.94,5.21-2.9.15-5.85-.28-8.71.25-3.7.69-7,2.94-10.77,3.26-3.27.28-6.5-1-9.77-.82a15.7,15.7,0,0,0-6.53,1.86,9.19,9.19,0,0,1,2.68-5.59c2.39-2.35,5.79-1.74,9.09-2.3a52.07,52.07,0,0,0,9.6-3.07,94.31,94.31,0,0,1,27.11-6.27,59.19,59.19,0,0,1,27.37,4.33,15.57,15.57,0,0,1,3.53,2A1.57,1.57,0,0,1,839.47,329.8Z" opacity="0.1" style="isolation:isolate"/><path d="M776,216.86l-8.1-3-3.42-1.26a16.54,16.54,0,0,0-4.36-1.16c-3.92-.3-7.61,2.31-9.7,5.64s-2.88,7.3-3.55,11.17q-1.38,7.94-2.34,15.94a104.13,104.13,0,0,0-1,14.54c.23,12.38,2.85,24.59,5.73,36.64a128.88,128.88,0,0,1,3.19,16.25c.24,2.26.35,4.53.59,6.8.26,2.55.68,5.07,1.1,7.6l2.41,14.37c3-2.13,6.41-4,10.1-4.11,3.27-.12,6.51,1.1,9.77.82,3.75-.31,7.07-2.56,10.77-3.25,2.86-.53,5.81-.11,8.72-.25,7.52-.38,14.43-4.54,21.93-5.21,6-.54,11.86,1.14,17.82,1.49,1.66.1,3.91-.43,3.91-2.1,0-1.16-1.16-1.93-2.17-2.51a107,107,0,0,1-13.55-9.67c-3.94-3.12-7.94-6.32-10.65-10.54-6.53-10.15-4.29-23.88-9.86-34.59-4.53-8.7,0-20.1,0-29.91,0-4.89,0-9.84-1.15-14.59a61.89,61.89,0,0,0-2.68-7.8l-3.89-9.85a1.61,1.61,0,0,0-.46-.75,1.53,1.53,0,0,0-.89-.27,9.38,9.38,0,0,0-6.46,2.07c-1.83,1.49-3,3.63-4.8,5.18C780.94,216.26,778.4,217.76,776,216.86Z" fill="#e3e8f4"/><path d="M789,211.18c.64-2.74,1.33-5.59,3.16-7.73s5.17-3.27,7.53-1.74c2.68,1.74,2.79,5.76,5.08,8,2,1.92,5,2.07,7.72,2.32a52.35,52.35,0,0,1,14.27,3.36,5.83,5.83,0,0,1,2.37,1.42c1.25,1.42,1,3.6,1.62,5.37.85,2.28,3.2,3.73,4.11,6,1,2.52,0,5.34-.84,7.93-1.51,4.65-2.46,9.48-3.93,14.15s-3.56,9.27-7,12.79c-1.52,1.56-3.78,3-5.78,2.07l-.77,5.55a9.43,9.43,0,0,0,0,3.55,3.18,3.18,0,0,0,2.32,2.46c.15.86,1.06,1.27,1.8,1.74a5,5,0,0,1,1.3,6.95l0,.05c-.63.85-1.56,1.52-1.86,2.53-.45,1.46.62,3,1.92,3.8s2.83,1.17,4.15,1.94c2.74,1.58,4.21,4.69,5.15,7.71.7,2.28,1.28,4.75,3,6.41.66.63,1.45,1.11,2.08,1.77a7.59,7.59,0,0,1,1.79,4.59,9.11,9.11,0,0,1-1.3,6c-2,2.86-5.73,3.71-9,5-5.31,2.18-9.68,6.08-14.36,9.4a15.32,15.32,0,0,1-6.55,3.08c-3.24.43-6.43-1-9.69-1.13a24.06,24.06,0,0,0-5.78.76l-6,1.3c.32-4.65-2.24-9.31-3.67-13.74-2.7-8.34-3.2-17.26-2.56-26s2.42-17.36,4.18-25.94c1.23-6,1.11-12.27,3-18.1,1.77-5.61,4.3-11,5.23-16.84C793.2,228.51,786.88,220.5,789,211.18Z" fill="#3f3d56"/><path d="M834.51,229.67a11,11,0,0,1,1.15,3.25,11.73,11.73,0,0,0,2.53,4.76,16.39,16.39,0,0,1,2.66,3c.92,1.74.57,3.86,1,5.76.5,2.07,2,3.87,2.16,6a11,11,0,0,0,.17,1.82c.65,2.42,4.21,3,5,5.42.53,1.57-.38,3.28-.21,4.93a4.34,4.34,0,0,1,.09,1.56,3.17,3.17,0,0,1-1.14,1.46,23,23,0,0,0-6.58,11.71,66.69,66.69,0,0,0-1.51,13.53l-3.91-5.17a5.94,5.94,0,0,0-1.56-1.6c-.5-.3-1.08-.45-1.59-.75-1.48-.84-2.06-2.62-2.63-4.22a39,39,0,0,0-7-12.12c-1.59-1.87-3.44-3.75-3.79-6.18a11.38,11.38,0,0,1,.18-3.34c1-6.55,2.07-13.26,5.26-19.07,1.49-2.72,3.42-5.18,4.85-7.94C830.6,230.65,832,225.89,834.51,229.67Z" fill="#3f3d56"/><path d="M735.86,236a4.57,4.57,0,0,1-.62,2.4,3.16,3.16,0,0,1-3.16,1,9.14,9.14,0,0,1-3.16-1.48l-8.36-5.29a46.28,46.28,0,0,1-4.49-3.08,40.07,40.07,0,0,1-5.93-6.21c-4.86-6-9.16-12.51-14.57-18-1.47-1.5-3-2.94-4.42-4.51a65.82,65.82,0,0,1-5.34-7.18c-1.56-2.31-3.18-4.87-2.91-7.63.16-1.56.91-3,1.13-4.55s-.37-3.44-1.87-3.86a3.38,3.38,0,0,0-.54-.09,4.08,4.08,0,0,1-.87-.19c-1.39-.58-1.18-2.73-.18-3.86s2.48-1.76,3.39-3a18.09,18.09,0,0,1,1.42-2.11,5.41,5.41,0,0,1,2.33-1.17,36.06,36.06,0,0,1,17.75-.67c1,.22,2.14.62,2.44,1.59a2.93,2.93,0,0,1,0,1.44,32.2,32.2,0,0,0-.76,6,10.65,10.65,0,0,0,.07,1.26c.47,4.24,3.22,7.83,5.9,11.14,3.18,3.94,6.41,7.85,9.65,11.75a46.17,46.17,0,0,0,5.85,6.25c2,1.66,4.59,3,6.15,5.13,1.27,1.72.86,4.07,1,6.14A136.28,136.28,0,0,1,735.86,236Z" fill="#3f3d56"/><path d="M862.86,277.68a21,21,0,0,0,2.66-3.15,20.78,20.78,0,0,0,2-4.47l5.8-16.45c.92-2.6,1.84-5.21,3-7.74,1.2-2.73,2.62-5.36,3.93-8A106.7,106.7,0,0,0,888,216.12a8.06,8.06,0,0,0,.31-3.19c-.28-1.73-1.59-3.08-2.84-4.31a20.79,20.79,0,0,0-4.26-3.52,7,7,0,0,0-5.34-.86c-2.56.75-4.17,3.37-4.76,6s-.37,5.32-.62,8c-.36,3.84-1.68,7.55-2,11.4-.17,2.23,0,4.48-.27,6.7a24.47,24.47,0,0,1-3,8.27,53.69,53.69,0,0,1-12.93,15.9,20.79,20.79,0,0,0-3.88,3.73,12.17,12.17,0,0,0-1.87,4.66,10.73,10.73,0,0,0,.81,7.57c1.63,2.78,4.76,4,7.75,4.62C859.16,281.93,860.09,280.55,862.86,277.68Z" fill="#be6f72"/><path d="M785.32,151.36a9.33,9.33,0,0,1,9.06-4.91,10,10,0,0,1,7.86,7.06c.47,1.49.66,3.14,1.48,4.42,1.24,1.93,3.54,2.49,5.26,3.89a10.53,10.53,0,0,1,3.36,7.44,22.51,22.51,0,0,1-1.33,8.41,26.74,26.74,0,0,0-1,3.52c-.2,1.16-.22,2.34-.4,3.5a11.4,11.4,0,0,1-4.59,7.57,2,2,0,0,1-1.24.45c-.78-.09-1.26-1-1.55-1.82-1.59-4.59-1.21-10.2-4.14-13.86a15.15,15.15,0,0,0-4.74-3.53,6.11,6.11,0,0,0-2.42-.91,6.37,6.37,0,0,0-3.5,1.28,21.79,21.79,0,0,1-6.92,3.06,8.5,8.5,0,0,1-7.15-1.54c-1.38-1.14-2.39-2.85-3.92-3.74s-3.13-.84-4.64-1.45A6.87,6.87,0,0,1,762,159.72c1-1.2,2.48-1.88,3.37-3.21,1.15-1.72,1-4.08,1.6-6.14a8.45,8.45,0,0,1,5.09-5.81A7.15,7.15,0,0,1,779.2,146c1,.9,1.8,2.06,2.78,3a8,8,0,0,0,7.4,2" fill="#3f3d56"/><path d="M801.76,298.55a3.88,3.88,0,0,0-1.06,4.24c.22.47,10.54-1.52,11.63-1.67,2.72-.39,7.49-.2,9.32-2.69,3.26-4.41-6.84-3.43-8.69-3.27C809.44,295.46,804.44,295.94,801.76,298.55Z" opacity="0.1" style="isolation:isolate"/><path d="M707.88,169.55a32.2,32.2,0,0,0-.76,6c-3,.61-6.12-.39-9-1.39l-8.27-2.82a2.35,2.35,0,0,0-3.16.59c-1.33,1.38-3.16,4-5,5.55a4.08,4.08,0,0,1-.87-.19c-1.39-.58-1.18-2.73-.18-3.86s2.48-1.76,3.39-3a18.09,18.09,0,0,1,1.42-2.11,5.41,5.41,0,0,1,2.33-1.17,36.06,36.06,0,0,1,17.75-.67c1,.22,2.14.62,2.44,1.59A2.93,2.93,0,0,1,707.88,169.55Z" fill="#3f3d56"/><path d="M707.88,169.55a32.2,32.2,0,0,0-.76,6c-3,.61-6.12-.39-9-1.39l-8.27-2.82a2.35,2.35,0,0,0-3.16.59c-1.33,1.38-3.16,4-5,5.55a4.08,4.08,0,0,1-.87-.19c-1.39-.58-1.18-2.73-.18-3.86s2.48-1.76,3.39-3a18.09,18.09,0,0,1,1.42-2.11,5.41,5.41,0,0,1,2.33-1.17,36.06,36.06,0,0,1,17.75-.67c1,.22,2.14.62,2.44,1.59A2.93,2.93,0,0,1,707.88,169.55Z" opacity="0.1" style="isolation:isolate"/><path d="M783.53,359.4c1.44.48,3,1.18,3.49,2.62l-11.58-2.94-6-1.53c-1.06-.27-4.86-.58-5.56-1.41-1-1.22,2.55-.38,3.19-.29,1.94.29,3.88.59,5.81.94C776.52,357.44,780,358.51,783.53,359.4Z" opacity="0.1" style="isolation:isolate"/><path d="M788,369.65c-1-.67-3.87-.59-5.1-.88-1.8-.43-3.57-1-5.34-1.55-3.59-1.17-7.15-2.5-10.84-3.36-.68-.15-3-.19-2.89-1s2.32-1.16,2.87-1.2c3.27-.24,7.35,1.29,10.39,2.38A45.79,45.79,0,0,1,788,369.65Z" opacity="0.1" style="isolation:isolate"/><path d="M780.68,350.26c-3.67-1-7-3.28-10.78-3.72a4.38,4.38,0,0,1-2.75-.84,3.24,3.24,0,0,1-.89-1.6c2.53-.13,5.47.94,7.77,2a24.45,24.45,0,0,1,3.64,1.94C778.51,348.5,779.77,350,780.68,350.26Z" opacity="0.1" style="isolation:isolate"/><path d="M850.64,260.72A17.49,17.49,0,0,0,862.9,280c-.49,2.37-2.94,3.68-4.67,5.37-2.44,2.37-3.7,5.92-6.58,7.72-3.21,2-7.34,1.22-11,.38a1.34,1.34,0,0,1-.86-.45,1.23,1.23,0,0,1-.16-.39c-1.21-4.43-2-9.16-.76-13.6,1-3.78,3.4-7,5.32-10.34S846.29,261.82,850.64,260.72Z" fill="#3f3d56"/><path d="M761.23,203.38a26,26,0,0,0-11,3.35c-2.24,1.28-4.54,3-7.1,2.69-1.51-.17-3-1-4.47-.6a8.77,8.77,0,0,0-2.29,1.36,2.59,2.59,0,0,1-2.52.4l-1,13.84c-.38,5.26-.75,10.63.51,15.76.65,2.62,2.08,5,2.24,7.66s-.08,5.39.11,8.08c.18,2.49.73,4.94.87,7.43.28,4.7-.88,9.36-2,13.93-1.69,6.74-2.71,13.63-6,19.73-.92,1.69-2,3.41-2,5.33a2.73,2.73,0,0,0,.06.7c-1,.55-1.93,1.07-2.78,1.61-1.9,1.23-3.93,2.6-4.71,4.73-.63,1.73-.34,3.71-1.1,5.38s-2.5,2.86-2.88,4.66c-.27,1.31.25,2.69,0,4a17.09,17.09,0,0,0-.55,2.07c-.1,1.5,1.17,2.71,2.43,3.53a19.57,19.57,0,0,0,6,2.64l6-23.7h0a191.09,191.09,0,0,0,13.53-31.47,67.66,67.66,0,0,1,3.91-10.36,48.67,48.67,0,0,0,3-5.88c.91-2.52,1-5.25,1.44-7.91a55.37,55.37,0,0,1,2.35-9.13c1.08-3.21,2.33-6.41,2.55-9.78.33-4.82-1.42-9.91.44-14.37a19.11,19.11,0,0,1,3-4.59c2.58-3.16,4.93-6.47,7.51-9.63C765.46,203.41,763.23,203.26,761.23,203.38Z" fill="#3f3d56"/><g opacity="0.1"><path d="M789.41,148.07l-1.25.09-.14.1A7.38,7.38,0,0,0,789.41,148.07Z"/><path d="M812.29,168.83a26.94,26.94,0,0,1-1.28,5.84,26.74,26.74,0,0,0-1,3.52c-.2,1.16-.22,2.34-.4,3.5a11.4,11.4,0,0,1-4.59,7.57,2,2,0,0,1-1.24.45c-.78-.09-1.26-1-1.55-1.82-1.59-4.59-1.21-10.2-4.14-13.86a15.15,15.15,0,0,0-4.74-3.53,6.11,6.11,0,0,0-2.42-.91,6.37,6.37,0,0,0-3.5,1.28,21.79,21.79,0,0,1-6.92,3.06,8.5,8.5,0,0,1-7.15-1.54c-1.38-1.14-2.39-2.85-3.92-3.74s-3.13-.84-4.64-1.45a6.83,6.83,0,0,1-3.9-4.46,2.87,2.87,0,0,1-.08-.38,7,7,0,0,0,.08,3.38,6.83,6.83,0,0,0,3.9,4.46c1.51.61,3.21.62,4.64,1.45s2.54,2.6,3.92,3.74a8.5,8.5,0,0,0,7.15,1.54,21.79,21.79,0,0,0,6.92-3.06,6.37,6.37,0,0,1,3.5-1.28,6.11,6.11,0,0,1,2.42.91,15.15,15.15,0,0,1,4.67,3.56c2.93,3.66,2.55,9.27,4.14,13.86.29.83.77,1.73,1.55,1.82a2,2,0,0,0,1.31-.48,11.4,11.4,0,0,0,4.6-7.6c.18-1.16.2-2.34.4-3.5a26.74,26.74,0,0,1,1-3.52,22.51,22.51,0,0,0,1.33-8.41C812.33,169.11,812.31,169,812.29,168.83Z"/></g><path d="M749,249.07l-.68,9.13c-.1,1.24-2.47,30.76-20,65.26-15,29.59-44.19,68.13-99.3,89.79q-6.45,2.55-13.39,4.76l-5.16-16.2a189.43,189.43,0,0,0,37.22-16.28c28.09-16.22,49.93-39.37,65.16-69.16a185.77,185.77,0,0,0,17.1-50.3h-62.7v-17Z" fill="#6c63ff"/><path d="M622.34,413.26c55.1-21.66,84.3-60.19,99.29-89.78,17.48-34.5,19.86-64,20-65.26l.68-9.13h7l-.68,9.13c-.09,1.24-2.47,30.76-20,65.26-15,29.59-44.19,68.12-99.29,89.78q-6.45,2.55-13.4,4.77l-.68-2.13Q618.88,414.61,622.34,413.26Z" fill="#fff" opacity="0.1" style="isolation:isolate"/><path d="M512,401.81,506.86,418q-6.95-2.22-13.4-4.77c-55.1-21.66-84.3-60.19-99.29-89.78-17.48-34.5-19.86-64-20-65.26l-.68-9.13H455.2v17H392.49a185.88,185.88,0,0,0,17.15,50.3c15.23,29.79,37.06,52.94,65.15,69.15A189,189,0,0,0,512,401.81Z" fill="#6c63ff"/><path d="M500.2,413.26c-55.1-21.66-84.3-60.19-99.29-89.78-17.48-34.5-19.86-64-20-65.26l-.68-9.13h-7l.68,9.13c.09,1.24,2.47,30.76,20,65.26,15,29.59,44.19,68.12,99.29,89.78q6.45,2.55,13.4,4.77l.68-2.13Q503.67,414.61,500.2,413.26Z" fill="#fff" opacity="0.1" style="isolation:isolate"/><path d="M655.61,558.41v91.67H466.94V558.41l6-8c61.14-21.7,73.53-78.29,76-100.68a92,92,0,0,0,.63-9.32H572.9a92,92,0,0,0,.63,9.32c2.51,22.39,14.9,79,76,100.68Z" fill="#6c63ff"/><rect x="466.94" y="558.41" width="188.67" height="11.5" opacity="0.1" style="isolation:isolate"/><path d="M482.94,550.41c61.14-21.7,73.53-78.29,76-100.68a92,92,0,0,0,.63-9.32h-10a92,92,0,0,1-.63,9.32c-2.51,22.39-14.9,79-76,100.68l-6,8v91.67h10V558.41Z" fill="#fff" opacity="0.1" style="isolation:isolate"/><path d="M438.28,249.07H455.2v17H439.78Q438.87,257.67,438.28,249.07Z" opacity="0.1" style="isolation:isolate"/><path d="M512,401.81,506.86,418q-6.95-2.22-13.4-4.77a179.15,179.15,0,0,1-18.67-27.72A189,189,0,0,0,512,401.81Z" opacity="0.1" style="isolation:isolate"/><path d="M610.53,401.81a189.43,189.43,0,0,0,37.22-16.28,179.86,179.86,0,0,1-18.67,27.73q-6.45,2.55-13.39,4.76Z" opacity="0.1" style="isolation:isolate"/><path d="M684.26,249.07q-.59,8.6-1.5,17H667.35v-17Z" opacity="0.1" style="isolation:isolate"/><path d="M573.57,449.73a64.64,64.64,0,0,1-24.59,0,92,92,0,0,0,.63-9.32h23.33A92,92,0,0,0,573.57,449.73Z" opacity="0.1" style="isolation:isolate"/><path d="M440.28,220.91c.43,126.06,54.43,228,121,228s120.56-101.94,121-228Z" fill="#6c63ff"/><path d="M461.78,220.91h-21.5c.43,126.06,54.43,228,121,228A65.35,65.35,0,0,0,572,448C510.49,437.72,462.19,340.11,461.78,220.91Z" fill="#fff" opacity="0.1" style="isolation:isolate"/><rect x="497.11" y="593.5" width="128.33" height="33" fill="#3f3d56"/><polygon points="503.11 598 625.44 598 625.44 593.5 497.11 593.5 497.11 626.5 503.11 626.5 503.11 598" fill="#fff" opacity="0.1" style="isolation:isolate"/><path d="M887.31.11S803.12-5,813,54c0,0-2,10.43,7.48,15.16,0,0,.15-4.37,8.64-2.88a39.5,39.5,0,0,0,9.15.44,19.06,19.06,0,0,0,11.18-4.62h0s23.67-9.78,32.87-48.46c0,0,6.81-8.44,6.54-10.61L874.67,9.13s4.86,10.25,1,18.77c0,0-.46-18.4-3.19-18-.55.09-7.38,3.55-7.38,3.55s8.35,17.85,2,30.83c0,0,2.39-22-4.66-29.54l-10,5.84s9.76,18.44,3.14,33.49c0,0,1.7-23.08-5.25-32.07l-9.06,7.07s9.17,18.18,3.58,30.66c0,0-.73-26.87-5.54-28.9,0,0-7.93,7-9.14,9.86,0,0,6.28,13.2,2.38,20.16,0,0-2.39-17.9-4.35-18,0,0-7.9,11.86-8.72,20,0,0,.34-12.09,6.81-21.12,0,0-7.64,1.31-12.1,6.26,0,0,1.23-8.38,14-9.11,0,0,6.53-9,8.27-9.55,0,0-12.74-1.06-20.47,2.36,0,0,6.8-7.91,22.81-4.31l9-7.31s-16.78-2.29-23.9.24c0,0,8.19-7,26.31-1.9L860,12.59s-14.31-3.08-22.83-2c0,0,9-4.85,25.69.41l7-3.13s-10.48-2.06-13.55-2.39-3.23-1.17-3.23-1.17A36.35,36.35,0,0,1,872.77,6.5S887.57,1,887.31.11Z" fill="#6c63ff" opacity="0.1" style="isolation:isolate"/><path d="M783.47,15.12s-38-2.3-33.55,24.36c0,0-.89,4.72,3.37,6.86,0,0,.07-2,3.91-1.31a17.51,17.51,0,0,0,4.13.2,8.57,8.57,0,0,0,5-2.09h0s10.7-4.41,14.86-21.89c0,0,3.07-3.82,3-4.8l-6.42,2.74s2.2,4.64.47,8.49c0,0-.21-8.32-1.44-8.12-.25,0-3.34,1.6-3.34,1.6s3.78,8.07.93,13.94c0,0,1.08-9.94-2.11-13.35l-4.52,2.64s4.42,8.33,1.42,15.13c0,0,.77-10.43-2.37-14.49l-4.09,3.23s4.14,8.22,1.62,13.85c0,0-.33-12.14-2.51-13.05,0,0-3.58,3.16-4.13,4.46,0,0,2.84,6,1.08,9.1,0,0-1.08-8.09-2-8.12,0,0-3.56,5.36-3.94,9a19.55,19.55,0,0,1,3.08-9.55,10.76,10.76,0,0,0-5.47,2.83S751,33,756.8,32.66c0,0,3-4.06,3.74-4.31,0,0-5.76-.48-9.25,1.07,0,0,3.07-3.58,10.31-2l4-3.3s-7.58-1-10.8.11c0,0,3.7-3.16,11.89-.86l4.4-2.63s-6.46-1.4-10.32-.89c0,0,4.07-2.2,11.61.18l3.15-1.41s-4.74-.94-6.13-1.08-1.46-.53-1.46-.53a16.39,16.39,0,0,1,8.9,1S783.59,15.54,783.47,15.12Z" fill="#6c63ff" opacity="0.1" style="isolation:isolate"/><ellipse cx="916.21" cy="643.96" rx="40.21" ry="6.8" fill="#6c63ff"/><path d="M932.84,632.84a11.64,11.64,0,0,0,3.83-5.79c.5-2.29-.48-5-2.68-5.89-2.46-.94-5.09.77-7.08,2.49s-4.28,3.69-6.88,3.32a10.5,10.5,0,0,0,3.24-9.81,4.12,4.12,0,0,0-.9-2c-1.37-1.46-3.84-.84-5.48.31-5.2,3.66-6.65,10.73-6.68,17.08-.52-2.29-.08-4.68-.09-7s-.66-5-2.65-6.23a7.91,7.91,0,0,0-4-.94c-2.33-.09-4.94.15-6.53,1.86-2,2.12-1.47,5.68.25,8s4.35,3.81,6.77,5.42a15,15,0,0,1,4.83,4.61,4.16,4.16,0,0,1,.36.83h14.66A40.77,40.77,0,0,0,932.84,632.84Z" fill="#6c63ff"/><path d="M437.2,292.87H49.3a13.51,13.51,0,0,0-13.46,13.57h0V579.25a13.51,13.51,0,0,0,13.44,13.59H437.2a13.51,13.51,0,0,0,13.46-13.57h0V306.46a13.51,13.51,0,0,0-13.44-13.59Z" fill="url(#b)"/><path d="M448.91,321.77V576a13.34,13.34,0,0,1-13.34,13.34H51.09A13.34,13.34,0,0,1,37.75,576h0V321.77Z" fill="#f6f7f9"/><path d="M138.19,452.81V589.33H51.09a13.48,13.48,0,0,1-13.34-13.6V452.81Z" fill="#dde1ec"/><rect x="168" y="352.9" width="167.39" height="4.71" fill="#dde1ec"/><rect x="168" y="386.37" width="100.96" height="4.71" fill="#dde1ec"/><rect x="291.46" y="386.37" width="34" height="4.71" fill="#dde1ec"/><g opacity="0.1"><rect x="68.61" y="503.81" width="34" height="4.71" fill="#6c63ff"/></g><rect x="291.46" y="430.31" width="34" height="4.71" fill="#dde1ec"/><rect x="291.46" y="474.25" width="34" height="4.71" fill="#dde1ec"/><rect x="291.46" y="401.02" width="34" height="4.71" fill="#dde1ec"/><rect x="350.04" y="401.02" width="34" height="4.71" fill="#dde1ec"/><rect x="291.46" y="415.67" width="34" height="4.71" fill="#dde1ec"/><rect x="350.04" y="415.67" width="34" height="4.71" fill="#dde1ec"/><rect x="350.04" y="442.87" width="34" height="4.71" fill="#dde1ec"/><rect x="350.04" y="457.52" width="34" height="4.71" fill="#dde1ec"/><rect x="350.04" y="488.9" width="34" height="4.71" fill="#dde1ec"/><rect x="168" y="401.02" width="100.96" height="4.71" fill="#dde1ec"/><rect x="168" y="415.67" width="100.96" height="4.71" fill="#dde1ec"/><rect x="168" y="430.31" width="100.96" height="4.71" fill="#dde1ec"/><rect x="168" y="444.96" width="100.96" height="4.71" fill="#dde1ec"/><rect x="168" y="459.61" width="100.96" height="4.71" fill="#dde1ec"/><rect x="168" y="474.25" width="100.96" height="4.71" fill="#dde1ec"/><rect x="168" y="488.9" width="100.96" height="4.71" fill="#dde1ec"/><rect x="37.75" y="321.51" width="100.43" height="133.91" fill="#6c63ff"/><path d="M448.91,308.17a13.34,13.34,0,0,0-13.34-13.34H51.09a13.34,13.34,0,0,0-13.34,13.34h0v15.17H448.91Z" fill="#e8eaf1"/><circle cx="53.97" cy="308.96" r="5.23" fill="#ff5252"/><circle cx="71.23" cy="308.96" r="5.23" fill="#ff0"/><circle cx="88.49" cy="308.96" r="5.23" fill="#69f0ae"/><path d="M117.27,388.47a29.16,29.16,0,0,1-6.53,18.42l-.48.58h0l-.09.11a29.44,29.44,0,0,1-5.05,4.63l-.24.18c-.33.24-.67.48-1,.69l-.24.15-.51.31-.23.13-.2.12q-1.11.65-2.3,1.2l-.28.13-.3.14-.48.2a28.51,28.51,0,0,1-5.23,1.64,29.2,29.2,0,0,1-5.19.63H88a29.24,29.24,0,0,1-6.84-.79l-.42-.1q-1.48-.39-2.9-.9c-.57-.21-1.14-.44-1.7-.69l-.42-.19-.42-.19-.37-.19h0l-.39-.2-.43-.23-.48-.28-.08,0a29.41,29.41,0,0,1-5.69-4.2c-.14-.14-.29-.28-.43-.42l-.45-.45a29.29,29.29,0,1,1,50.31-20.4Z" fill="#fff"/><path d="M108.58,398.9a8.36,8.36,0,0,1-.28,1.29,1.19,1.19,0,0,1-.06.19c0-.18,0-.38,0-.58h0a32.75,32.75,0,0,1,.16-7.55c.41-1.89-2.58-1.31-4.57.38h0a5.26,5.26,0,0,0-1.39,1.74l-.14-.17a5.26,5.26,0,0,0-4-2,13.47,13.47,0,0,1-8.41-3.69c-.1-.39-.17-.78-.23-1.17a3.2,3.2,0,0,0-.05-.37,7.27,7.27,0,0,0,2.23-3.77v-.06a7.29,7.29,0,0,0,.18-1.6,5.71,5.71,0,0,0,0-.65.79.79,0,0,0,0-.24c0-.08,0-.18,0-.27l.35-.18a4,4,0,0,0,1.56-1.77v0a6.68,6.68,0,0,0,.31-.8h0a9.69,9.69,0,0,0,.4-2.41v-.31c0-.63-.13-1.42-.74-1.55-.82-.17-1.41,1.06-2.23.93a1.25,1.25,0,0,1-.65-.39c-.56-.56-.94-1.27-1.5-1.83a5.12,5.12,0,0,0-3.2-1.36,12.07,12.07,0,0,0-3.51.32,5.92,5.92,0,0,0-1.81.62,2.16,2.16,0,0,0-1.09,1.49,2.13,2.13,0,0,0,0,.41v.62a2.32,2.32,0,0,1,0,.27,2.21,2.21,0,0,1-1.11,1.33c-.51.3-1.08.52-1.57.86a4.11,4.11,0,0,0-1.51,2.41,6.38,6.38,0,0,0-.17,1.64,10.83,10.83,0,0,0,.08,1.49A16,16,0,0,0,76.9,387a7.64,7.64,0,0,0,.69,1.21h0a3,3,0,0,0,.21.27,7.28,7.28,0,0,0,1.56,1.32l.33.23a1,1,0,0,0,.83.21.88.88,0,0,0,.25-.14,1.93,1.93,0,0,0,.6-1.52v-.08a.48.48,0,0,1,0,.08.79.79,0,0,1,0,.11h0a7.15,7.15,0,0,1,0,.74,2.7,2.7,0,0,1,0,.3v.17l-.08.07h0l-.85.69h0a25.53,25.53,0,0,1-5.42,3.23,7.72,7.72,0,0,0-4.45,4.94,17.32,17.32,0,0,1-2.11,4.57c-.23.34-.87,2.9-1.61,5.52.14.16.3.31.45.45l.43.42a29.41,29.41,0,0,0,5.69,4.2l.08,0,.48.28.43.23c0-.36,0-.7-.07-1a4.79,4.79,0,0,0,0-.54c.11-.18.21-.35.3-.48,0,.14,0,.29,0,.48h0c.05.48.11,1.08.16,1.76a5,5,0,0,0,0,.68c0-.24,0-.48,0-.68l.37.19.42.19.42.19c.56.25,1.12.48,1.7.69a29.71,29.71,0,0,0,2.9.9l.42.1a29.24,29.24,0,0,0,6.85.81h1a29.2,29.2,0,0,0,5.23-.65,28.51,28.51,0,0,0,5.23-1.64l.48-.2.3-.14.28-.13c-.48-1.69-.74-2.78-.74-2.78l.64-1.64.08-.2.19-.51h0a.55.55,0,0,0,.05.19h0a7.69,7.69,0,0,0,2.27,3.62l.23-.13.51-.31.24-.15c.35-.23.68-.45,1-.69l.24-.18a29.44,29.44,0,0,0,5.05-4.63l.09-.11h0l.48-.58Zm-4.21,2.2,0,.07,0,0Z" fill="url(#c)"/><path d="M104.45,400.2v0l0,0ZM74.93,414.68c0-.68-.1-1.28-.14-1.81,0-.37-.07-.7-.1-1a.09.09,0,0,1,0,0v-.19a11.1,11.1,0,0,0-1.14,2.27l.08,0,.48.28.43.23.39.2a5,5,0,0,0,0,.68c0-.23,0-.45,0-.67Zm6.42-27.59h0l0,0h0a.11.11,0,0,1,0,0,.19.19,0,0,0,0-.06Z" fill="url(#d)"/><path d="M89.76,382.16s-1.74,7.83,3,12S81.49,401.5,78.66,398s2-5.23,2-5.23,2.41-2,0-7.83Z" fill="#e0a17e"/><path d="M94.1,417.11a29.2,29.2,0,0,1-5.19.63H88a29.24,29.24,0,0,1-6.83-.8l-.42-.1q-1.48-.39-2.9-.9l-.48-7.24,2.09-10,1.23-5.91.35-1.65.35.48.08.11.1.13L85.38,397l4-4.26.2-.22,1.09-1.17.41-.44.19,1.49.7,5.36,1.29,9.89Z" fill="#f0f1f5"/><path d="M104.87,412.39c-.33.24-.67.48-1,.69l-.24.15-.51.31-.23.13-.2.12a7.76,7.76,0,0,1-2.31-3.41,5.31,5.31,0,0,1-.14-.51.48.48,0,0,1,0-.08l-.28.72-.84,2.09s.25,1,.7,2.64l-.48.2a28.51,28.51,0,0,1-5.23,1.64,29.2,29.2,0,0,1-5.19.63h-.27a48,48,0,0,1-.26-6.76L89,398.82l.32-6.13.18-3.38.18.18.35.32h0A13,13,0,0,0,97.78,393a5.13,5.13,0,0,1,4,2.13,9.46,9.46,0,0,1,1.64,4.17l.14,1.33h0l0,.38.05.48Z" opacity="0.1" style="isolation:isolate"/><path d="M105.11,412.21l-.24.18c-.33.24-.67.48-1,.69l-.24.15-.51.31a8,8,0,0,1-2.5-3.48h0a1.34,1.34,0,0,1-.06-.17c-.05-.17-.1-.35-.14-.52l-.2.52-.27.7-.62,1.61s.28,1.16.79,2.94l-.3.14-.48.2a28.51,28.51,0,0,1-5.23,1.64,29.2,29.2,0,0,1-5.19.63,48,48,0,0,1-.3-7.2l.62-11.77.33-6.27.16-3,0-.61.08.08A13.07,13.07,0,0,0,98,392.62a5.13,5.13,0,0,1,4,2.08,9.43,9.43,0,0,1,1.68,4.23l.26,2.38v0h0l.05.48Z" fill="#293158"/><path d="M81.65,390.4v.29l-.08,1.12-.27,3.83s-.16,1.11-.28,3.6c-.17,3.28-.27,9,.12,17.71l-.42-.1q-1.48-.39-2.9-.9c-.57-.21-1.14-.44-1.7-.69l-.42-.19c-.14-1.93-.31-3.11-.31-3.11a5.64,5.64,0,0,0-.33.48c-.08.13-.18.29-.29.48l0,0h0q-.14.24-.3.55a8.19,8.19,0,0,0-.36.79l-.48-.28-.08,0a29.41,29.41,0,0,1-5.69-4.2c.78-2.74,1.45-5.49,1.69-5.84a16.78,16.78,0,0,0,2.05-4.47,7.58,7.58,0,0,1,4.34-4.83,17.62,17.62,0,0,0,5.69-4.25h0Z" opacity="0.1" style="isolation:isolate"/><path d="M81.65,390.26a26.1,26.1,0,0,1-6.18,3.89A7.58,7.58,0,0,0,71.13,399a16.78,16.78,0,0,1-2.05,4.47c-.24.35-.91,3.11-1.69,5.85l.43.42a29.41,29.41,0,0,0,5.69,4.2l.08,0a11,11,0,0,1,1.06-2l0,0c.17-.25.28-.39.28-.39s0,.32.11.89.14,1.45.22,2.46l.42.19.42.19c.56.25,1.12.48,1.7.69a29.7,29.7,0,0,0,2.9.9c-.4-8.66-.31-14.36-.15-17.73.13-2.71.29-3.91.29-3.91l.61-3.52.17-1,.08-.48Z" fill="#293158"/><path d="M84.76,389.78a7.15,7.15,0,0,1-3.13-.72,14.08,14.08,0,0,0-1-3.63l9.13-2.82a17.48,17.48,0,0,0-.19,5.31A7.15,7.15,0,0,1,84.76,389.78Z" opacity="0.1" style="isolation:isolate"/><circle cx="84.76" cy="382.16" r="7.18" fill="#e0a17e"/><g opacity="0.1"><path d="M99.34,415.47c-.56-2-.88-3.29-.88-3.29l1.09-2.83a6.11,6.11,0,0,0,.37,1.16l0,.06-.62,1.61s.28,1.16.79,2.94l-.3.14Z"/></g><path d="M107.81,402s-.65-6.31,0-9.35-7.61.43-5.87,4.57a35.51,35.51,0,0,0,3.48,6.53Z" fill="#e0a17e"/><path d="M110.17,407.58a29.47,29.47,0,0,1-5.05,4.63l-.24.18c-.33.24-.67.48-1,.69a20.4,20.4,0,0,1-2.08-3l-.06-.11,1.74-9.14.18.19c.08.07.18.17.3.27h0c.9.77,2.81,1.93,3.73-.76a8.13,8.13,0,0,0,.33-1.45l.18.67h0l.11.39,1.93,7.28h0Z" opacity="0.1" style="isolation:isolate"/><path d="M110.17,407.58a29.44,29.44,0,0,1-5.05,4.63l-.24.18c-.33.24-.67.48-1,.69l-.24.15a21.05,21.05,0,0,1-1.9-2.79l.06-.32,1.68-8.81s.09.1.24.24l.3.27a4.75,4.75,0,0,0,.43.33h0c1,.69,2.52,1.2,3.29-1.21a8.15,8.15,0,0,0,.31-1.37l.22.82Z" fill="#293158"/><path d="M110.17,407.58a29.44,29.44,0,0,1-5.05,4.63l-.24.18c-.33.24-.67.48-1,.69l-.24.15a21.05,21.05,0,0,1-1.9-2.79l.06-.32,1.68-8.81s.09.1.24.24l.3.27a4.75,4.75,0,0,0,.43.33h0c1,.69,2.52,1.2,3.29-1.21a8.15,8.15,0,0,0,.31-1.37l.22.82Z" opacity="0.02" style="isolation:isolate"/><path d="M74.69,411.92l0,0v-.07a5.29,5.29,0,0,1,.83-2s.32,2.15.61,5.37l-.42-.19-.42-.19c-.07-1-.15-1.88-.22-2.46s-.11-.89-.11-.89Z" opacity="0.1" style="isolation:isolate"/><path d="M84.84,380.19a2,2,0,0,1,1.23-.22,1.4,1.4,0,0,1,.48.34,4.31,4.31,0,0,0,1.89,1.32,3.65,3.65,0,0,0,1.41-.06,6.76,6.76,0,0,0,2.33-.71c1.62-1,2.13-3.06,2.23-4.93,0-.63-.1-1.45-.72-1.58-.79-.17-1.37,1-2.17.9a1.21,1.21,0,0,1-.63-.38c-.55-.55-.92-1.25-1.45-1.8a5,5,0,0,0-3.11-1.33,11.62,11.62,0,0,0-3.42.32,5.62,5.62,0,0,0-1.76.6,2.12,2.12,0,0,0-1.06,1.45c-.05.42.06.85,0,1.27A2.13,2.13,0,0,1,79,376.68a16,16,0,0,0-1.53.85A4,4,0,0,0,76,379.88a7.94,7.94,0,0,0-.08,2.81,15.58,15.58,0,0,0,1.34,4.69,6.65,6.65,0,0,0,.87,1.45,8.11,8.11,0,0,0,1.76,1.45,1.07,1.07,0,0,0,.88.27.77.77,0,0,0,.25-.14,2.21,2.21,0,0,0,.48-2.23,12.55,12.55,0,0,1-.56-2.34,1.12,1.12,0,0,1,.13-.65,2.9,2.9,0,0,1,.43-.44,2.63,2.63,0,0,0,.48-.82,8,8,0,0,0,.75-2.35,3.16,3.16,0,0,0-.42-1.93A2.5,2.5,0,0,0,84.84,380.19Z" opacity="0.1" style="isolation:isolate"/><path d="M84.84,379.93a2,2,0,0,1,1.23-.22,1.4,1.4,0,0,1,.48.34,4.31,4.31,0,0,0,1.89,1.32,3.65,3.65,0,0,0,1.41-.06,6.76,6.76,0,0,0,2.33-.71c1.62-1,2.13-3.06,2.23-4.93,0-.63-.1-1.45-.72-1.58-.79-.17-1.37,1-2.17.9a1.21,1.21,0,0,1-.63-.38c-.55-.55-.92-1.25-1.45-1.8a5,5,0,0,0-3.11-1.33,11.62,11.62,0,0,0-3.42.32,5.62,5.62,0,0,0-1.76.6,2.12,2.12,0,0,0-1.06,1.45c-.05.42.06.85,0,1.27A2.13,2.13,0,0,1,79,376.43a16,16,0,0,0-1.53.85A4,4,0,0,0,76,379.63a7.94,7.94,0,0,0-.08,2.81,15.58,15.58,0,0,0,1.34,4.69,6.65,6.65,0,0,0,.87,1.45A8.11,8.11,0,0,0,79.9,390a1.07,1.07,0,0,0,.88.27.77.77,0,0,0,.25-.14,2.21,2.21,0,0,0,.48-2.23,12.55,12.55,0,0,1-.56-2.34,1.12,1.12,0,0,1,.13-.65,2.9,2.9,0,0,1,.43-.44,2.63,2.63,0,0,0,.48-.82,8,8,0,0,0,.75-2.35,3.16,3.16,0,0,0-.42-1.93A2.5,2.5,0,0,0,84.84,379.93Z" fill="#463e3b"/><ellipse cx="45.35" cy="561.75" rx="12.16" ry="4.46" fill="#cd9494"/><ellipse cx="45.35" cy="561.26" rx="6.2" ry="2.28" opacity="0.05" style="isolation:isolate"/><path d="M33.19,560.77s13.4,7.44,24.32,1c0,0-1.49,25.81-8.93,28.29H38.65S30.22,572.67,33.19,560.77Z" fill="#ff7361"/><path d="M55.85,513.47c3.41,12.47-11.13,48-11.13,48s-30.6-23.17-34-35.63a23.4,23.4,0,1,1,45.14-12.35Z" fill="#6c63ff"/><path d="M55.85,513.47c3.41,12.47-11.13,48-11.13,48s-30.6-23.17-34-35.63a23.4,23.4,0,1,1,45.14-12.35Z" opacity="0.1" style="isolation:isolate"/><path d="M27.23,497.15s19,28.75,17.61,64.37" fill="none" stroke="#535461" stroke-miterlimit="10"/><path d="M60.71,536.26s-17.29-9.4-15.08,25.29c0,0,14.41-.52,19.52-12.27A10.19,10.19,0,0,0,61,536.4Z" fill="#6c63ff"/><path d="M61,536.31s-2.23,18-15.37,25.23" fill="none" stroke="#535461" stroke-miterlimit="10"/><path d="M55.88,562.59C55.4,568.53,53.32,587,47.09,589h-8.9c.28.63.46,1,.46,1h9.93c7.44-2.49,8.93-28.3,8.93-28.3A18.07,18.07,0,0,1,55.88,562.59Z" opacity="0.05" style="isolation:isolate"/><rect x="168" y="521.07" width="100.96" height="58.59" fill="#dde1ec"/><path d="M434.77,405.43a4.23,4.23,0,0,0,0-.57c-.17-2.36-2.41-4.06-4.63-5s-4.7-1.35-6.67-2.73c-3.32-2.33-4.34-6.68-4.64-10.65-.09-1.24-.13-2.47-.14-3.71s.08-2.61.19-3.91a65.24,65.24,0,0,0,.48-6.57,12.62,12.62,0,0,0-1.16-6c-2-3.89-6.39-5.88-10.48-7.57a11,11,0,0,0-10.16-.3,82,82,0,0,1-8.27,2.73c-1.57.35-3.3.09-4.83.64-3,1.1-3.64,3.8-3.6,6.76v.56c-.3-.28-.61-.54-.92-.79l-.18-.14a11.15,11.15,0,0,0-1-.74l-.17-.11a17.3,17.3,0,0,0-2.31-1.26l-.12-.05q-.6-.27-1.23-.48l-.08,0a17.6,17.6,0,0,0-2.64-.7h0a17.55,17.55,0,0,0-15.7,4.93l-3.32,3.38h0c-15.07-3.38-15.75,9.72-15.75,9.72l.11,0,0,.09a46.54,46.54,0,0,0,1.3,4.9L222.4,506.72l-11.77,36.47,6.61-2.36L247.43,530,355.51,419.64A202.11,202.11,0,0,1,372,433.09s-5.21,2.76-3.28,15.38c2.36,15.44-1.19,37.43-1.19,37.43v14.22l.67-.18c-.08.48-.17,1-.25,1.52a81.12,81.12,0,0,0-.42,21.58c1.79,15.09,8.92,35.69,8.92,35.69a65.11,65.11,0,0,1,3.27,13.06,12.17,12.17,0,0,0,.76,3.35,26.67,26.67,0,0,1,2.09,10.07,71.45,71.45,0,0,0,4.59,25.45c3,7.76,4.13,12.31,4.46,15-2.14,2.83-4.93,5.91-7.14,6.22-4.16.58-12.19,1.16-6.84,8.12a4.93,4.93,0,0,0,.62.66c-4.06.66-8.53,2.1-4.19,7.75,5.35,7,36.87,3.77,36.87,3.77s.2-3.86,0-8.12c2.21-.15,3.58-.29,3.58-.29s.89-16.83-3-18.86a8.16,8.16,0,0,0-2.09.51c-.42-2.33-.73-5.22-.93-7.36l1.53-.12V592.68S408.29,577,401.75,570a14.07,14.07,0,0,1-2.14-2.9c0-2,.05-4.83,0-8.07a6.7,6.7,0,0,1,.92-1.22s3.57-4.34,15.76-31.92c7.19-16.26,5.59-25.65,3.06-30.62-.48-1.77-1.74-6.81-3.38-16.1a71.26,71.26,0,0,1,.3-23.51s7.72-20,11.3-28.14a13.22,13.22,0,0,0,1-6.2,5.94,5.94,0,0,0,1.78-2.9l3.66-9.77a7.83,7.83,0,0,0,.71-3.28ZM385,387.83a14.87,14.87,0,0,0,1.33,1.77h0l-1.45-1.49Zm-18,20.06,10.08-10.3c3.48,3.19,7.22,6.44,10.33,9.12a29.85,29.85,0,0,1-1.18,4,5.48,5.48,0,0,1-5.31-.29C377.49,408.6,371.14,408,367,407.89Z" fill="url(#e)"/><path d="M358.89,369.89s-7.48,4.31-5.17,10.38c0,0,7.77,2.3,10.93,8.06s27.61,26.46,27.61,26.46l17.83-8.93s-6.2-8.28-25.82-14.06c0,0-11.58-12.4-15.59-14.7A85.86,85.86,0,0,1,358.89,369.89Z" fill="#febdd5"/><path d="M358.89,369.89s-7.48,4.31-5.17,10.38c0,0,7.77,2.3,10.93,8.06s27.61,26.46,27.61,26.46l17.83-8.93s-6.2-8.28-25.82-14.06c0,0-11.58-12.4-15.59-14.7A85.86,85.86,0,0,1,358.89,369.89Z" opacity="0.05" style="isolation:isolate"/><path d="M225.68,507.86l129.73-135.8a16.74,16.74,0,0,1,23.65-.54h0a16.74,16.74,0,0,1,.54,23.65L249.89,531,214.3,544Z" fill="#6c63ff"/><path d="M372,369.11h0a16.74,16.74,0,0,1,.54,23.65L242.8,528.56l-26.72,9.77L214.28,544l35.59-13L379.61,395.23a16.74,16.74,0,0,0-.54-23.65h0a16.66,16.66,0,0,0-9.8-4.54A16.8,16.8,0,0,1,372,369.11Z" fill="#fff" opacity="0.1" style="isolation:isolate"/><polygon points="225.68 507.87 249.89 530.99 220.69 541.68 214.3 544.01 218.35 531.16 225.68 507.87" fill="#efc8c4"/><path d="M218.35,531.15a7.12,7.12,0,0,1,2.49,1,2.84,2.84,0,0,1,1.27,2.78,6.67,6.67,0,0,1-1,1.82,5.68,5.68,0,0,0-.42,4.92L214.28,544Z" fill="#727a9c"/><path d="M405.49,615.22s.86,12.66,2.3,14.09-12.94,2.3-12.94,2.3l2-16.41Z" fill="#ffb9b9"/><path d="M405.49,615.22s.86,12.66,2.3,14.09-12.94,2.3-12.94,2.3l2-16.41Z" opacity="0.05" style="isolation:isolate"/><path d="M408.65,625s-2,0-9.2,3.74c0,0-4.89-.86-6.9-7.77,0,0-6,10.35-10.07,10.93S370.68,633,375.86,640s35.66,3.74,35.66,3.74S412.39,627,408.65,625Z" fill="#cbcdda"/><path d="M408.65,625s-2,0-9.2,3.74c0,0-4.89-.86-6.9-7.77,0,0-6,10.35-10.07,10.93S370.68,633,375.86,640s35.66,3.74,35.66,3.74S412.39,627,408.65,625Z" opacity="0.05" style="isolation:isolate"/><path d="M404.33,634.77l-2,5.46-13.23-3.74.75-5.42.18-1.31.48-3.62s11.22-2.9,11.22-1.45a22.32,22.32,0,0,0,.74,3.5c.48,1.77,1,3.78,1.45,5.11C404.16,634.2,404.33,634.77,404.33,634.77Z" fill="#ffb9b9"/><path d="M397.12,559.77a7.86,7.86,0,0,0,0,8,13.93,13.93,0,0,0,2.07,2.87c6.33,6.9,8.06,22.43,8.06,22.43v25l-4.31.33L396,619l-10.38-42.56s-6-31.06-3.16-36.53,5.46-39.69,5.46-39.69l2.39-2.47,5.67-5.87h16.41a11,11,0,0,1,3.19,3.57c2.75,4.56,5.22,14-2.33,31.52C401.46,554.25,398,558.56,398,558.56A6.63,6.63,0,0,0,397.12,559.77Z" fill="#4c4c78"/><path d="M397.12,559.77a7.86,7.86,0,0,0,0,8,13.93,13.93,0,0,0,2.07,2.87c6.33,6.9,8.06,22.43,8.06,22.43v25l-4.31.33L396,619l-10.38-42.56s-6-31.06-3.16-36.53,5.46-39.69,5.46-39.69l2.39-2.47,5.67-5.87h16.41a11,11,0,0,1,3.19,3.57c2.75,4.56,5.22,14-2.33,31.52C401.46,554.25,398,558.56,398,558.56A6.63,6.63,0,0,0,397.12,559.77Z" opacity="0.05" style="isolation:isolate"/><path d="M402.48,628.21,390,629.76l.48-3.62s11.22-2.9,11.22-1.45A22.31,22.31,0,0,0,402.48,628.21Z" opacity="0.1" style="isolation:isolate"/><path d="M396.28,522.9s.71,22.64.83,36.87c0,3.22,0,6,0,8a17.73,17.73,0,0,1-.23,3.16c-.86,2.59.86,8.34.86,8.34a83,83,0,0,1,5.18,35.66v12.66l-13.81,1.73s2.3-1.73-4-18.41a72.81,72.81,0,0,1-4.44-25.23,27,27,0,0,0-2-10,12.32,12.32,0,0,1-.71-3.33,65.91,65.91,0,0,0-3.16-12.94S367.84,539,366.11,524a82.37,82.37,0,0,1,.4-21.4,53.39,53.39,0,0,1,1-5.35s28.11-17.69,38.73-5.46a13.85,13.85,0,0,1,2.41,4,26.57,26.57,0,0,1,1.36,4.48C413.31,516.57,396.28,522.9,396.28,522.9Z" fill="#4c4c78"/><circle cx="395.42" cy="382.26" r="14.67" fill="#ffb9b9"/><path d="M387.37,391.46s6,17,0,25.88,19.27,6,19.27,6l9.78-11.79s-11.51,0-12.07-20.13S387.37,391.46,387.37,391.46Z" fill="#ffb9b9"/><path d="M416.41,498.73a37.74,37.74,0,0,1-6.41,1.61c-3.58.55-7.8.57-10.28-1.61-1.45-1.29-5.07-1.45-9.41-1-9.13.87-21.48,4.28-23.85,5a53.39,53.39,0,0,1,1-5.35s28.11-17.69,38.73-5.46h6.13a11,11,0,0,1,3.19,3.57C416.11,497.69,416.41,498.73,416.41,498.73Z" opacity="0.1" style="isolation:isolate"/><path d="M404.33,634.77l-2,5.46-13.23-3.74.75-5.42c2.27,5,6.15,5.71,6.15,5.71a46.92,46.92,0,0,1,7.92-3.47Z" opacity="0.1" style="isolation:isolate"/><path d="M405.2,633.34s-2,0-9.2,3.74c0,0-4.89-.86-6.9-7.77,0,0-6,10.35-10.07,10.93s-11.79,1.14-6.61,8.06S408.07,652,408.07,652,408.94,635.35,405.2,633.34Z" fill="#cbcdda"/><path d="M337,385.07s.65-13,15.23-9.63l-3.74,7Z" fill="#ffb9b9"/><path d="M404.93,415s-14.09-2.3-17.83-5.18c0,0-2.9,5.46-8.06,2.59s-17.25-2.59-17.25-2.59A26,26,0,0,1,349.72,392s-2-7.48-1.45-9.49c0,0-7.48-7.77-11.22,2.59,1.45,7.19,2.59,6.62,2.3,12.37l4.6,12.66s.29,4.31,8.63,10.07a185.84,185.84,0,0,1,17.83,14.67s-5,2.73-3.16,15.24c2.28,15.29-1.15,37.1-1.15,37.1v14.09s28.76-8.34,33.65-4,16.68,0,16.68,0A163.76,163.76,0,0,1,413,480.62a72.65,72.65,0,0,1,.29-23.3s7.48-19.85,10.93-27.9-2.59-19-8.63-23-8.29-1.61-8.29-1.61S417.85,412.46,404.93,415Z" fill="#febdd5"/><path d="M379.55,378.67a5.09,5.09,0,0,0,.3,1.76,5.54,5.54,0,0,0,1.35,1.67,16.76,16.76,0,0,1,4.8,7.52,22.89,22.89,0,0,1,.45,6.08c-.13,8.26-.48,17.17-5.57,23.65a51.58,51.58,0,0,1-6.55,6.31,2,2,0,0,0-.69.94,1.72,1.72,0,0,0,.21,1.14c1.05,2.19,3.27,3.53,5.37,4.74a6.8,6.8,0,0,0,3.08,1.16c2.62.09,4.34-2.68,6.72-3.76,3.47-1.58,7.35.62,10.79,2.26a38,38,0,0,0,7.79,2.72c3.68.85,7.84,1.06,10.94-1.1a8.35,8.35,0,0,0,3.41-5.33c.25-1.4.21-3,1.27-4,.55-.48,1.3-.7,1.89-1.13a5.84,5.84,0,0,0,1.75-2.9l3.54-9.69a8,8,0,0,0,.69-3.25c-.17-2.33-2.32-4-4.48-4.92s-4.55-1.34-6.45-2.7c-3.21-2.31-4.2-6.62-4.49-10.56a50.84,50.84,0,0,1,.06-8.13c.35-4,1.13-8.29-.65-11.9-1.91-3.86-6.18-5.83-10.14-7.51a13.89,13.89,0,0,0-4.73-1.37,13.5,13.5,0,0,0-5.1,1.08,79.54,79.54,0,0,1-8,2.71c-1.52.35-3.19.09-4.66.64C377.08,366.83,379.55,374.33,379.55,378.67Z" opacity="0.1" style="isolation:isolate"/><path d="M379.55,378.09a5.09,5.09,0,0,0,.3,1.76,5.54,5.54,0,0,0,1.35,1.67A16.76,16.76,0,0,1,386,389a22.89,22.89,0,0,1,.45,6.08c-.13,8.26-.48,17.17-5.57,23.65a51.58,51.58,0,0,1-6.55,6.31,2,2,0,0,0-.69.92,1.72,1.72,0,0,0,.21,1.14c1.05,2.19,3.27,3.53,5.37,4.74a6.8,6.8,0,0,0,3.08,1.16c2.62.09,4.34-2.68,6.72-3.76,3.47-1.58,7.35.62,10.79,2.26a38,38,0,0,0,7.79,2.72c3.68.85,7.84,1.06,10.94-1.1a8.35,8.35,0,0,0,3.41-5.33c.25-1.4.21-3,1.27-4,.55-.48,1.3-.7,1.89-1.13a5.84,5.84,0,0,0,1.75-2.9l3.54-9.69a8,8,0,0,0,.69-3.25c-.17-2.33-2.32-4-4.48-4.92s-4.55-1.34-6.45-2.7c-3.21-2.31-4.2-6.62-4.49-10.56a50.84,50.84,0,0,1,.06-8.13c.35-4,1.13-8.29-.65-11.9-1.91-3.86-6.18-5.83-10.14-7.51a13.89,13.89,0,0,0-4.73-1.37,13.5,13.5,0,0,0-5.1,1.08,79.54,79.54,0,0,1-8,2.71c-1.52.35-3.19.09-4.66.64C377.08,366.27,379.55,373.75,379.55,378.09Z" fill="#b96b6b"/><path d="M368,456.58s2.29-.55,13.8-2.28,31.64,2.3,31.64,2.3" opacity="0.05" style="isolation:isolate"/></svg>