<svg xmlns="http://www.w3.org/2000/svg" xmlns:xlink="http://www.w3.org/1999/xlink" width="1077.89" height="917.59" viewBox="0 0 1077.89 917.59"><defs><linearGradient id="a" x1="228.61" y1="69.53" x2="228.61" y2="528.61" gradientTransform="matrix(1, 0, 0, -1, -61.06, 971.67)" gradientUnits="userSpaceOnUse"><stop offset="0" stop-color="gray" stop-opacity="0.25"/><stop offset="0.54" stop-color="gray" stop-opacity="0.12"/><stop offset="1" stop-color="gray" stop-opacity="0.1"/></linearGradient><linearGradient id="b" x1="980.93" y1="496.73" x2="980.93" y2="498.7" xlink:href="#a"/><linearGradient id="c" x1="1069.91" y1="277" x2="1069.91" y2="287.02" xlink:href="#a"/><linearGradient id="d" x1="972.79" y1="630.78" x2="972.79" y2="631.02" xlink:href="#a"/><linearGradient id="e" x1="1002.06" y1="224.89" x2="1002.06" y2="661.19" xlink:href="#a"/><linearGradient id="f" x1="611.36" y1="331.9" x2="611.36" y2="684.82" xlink:href="#a"/><linearGradient id="g" x1="545.39" y1="837.89" x2="545.39" y2="1006.51" gradientTransform="matrix(1, 0, 0, -1, 0, 1006.51)" xlink:href="#a"/><linearGradient id="h" x1="597.75" y1="962.35" x2="597.75" y2="991.8" gradientTransform="matrix(1, 0, 0, -1, 0, 1006.51)" xlink:href="#a"/><linearGradient id="i" x1="597.75" y1="907.58" x2="597.75" y2="937.03" gradientTransform="matrix(1, 0, 0, -1, 0, 1006.51)" xlink:href="#a"/><linearGradient id="j" x1="597.75" y1="853.17" x2="597.75" y2="882.63" gradientTransform="matrix(1, 0, 0, -1, 0, 1006.51)" xlink:href="#a"/></defs><title>p2p-internet</title><path d="M663.81,198.6C617.56,237.86,557.57,235.32,505,214.89S404.14,158.1,352.92,132.25A427,427,0,0,0,219.31,90C154,81,81.13,92,35.65,155.46c-50.65,70.68-46.76,198.16,8,263,27.87,33,64.36,49.2,96.18,75S201.11,562,198.4,611.75c-2.51,46-31.68,81.38-61.87,103.54-23.33,17.14-52.06,35.85-54.87,71.33-2.72,34.34,21.44,61.24,44.51,76.54,75.26,49.92,168,49.44,243-1.26,26.75-18.08,51.34-42.13,79.39-56.23,73.65-37,154.81.25,232.8,13.87,66,11.53,133.69,5.56,198-17.47,38.62-13.83,77.39-35,104.52-74.37,19.57-28.4,31.76-64.34,43.2-99.84q18.3-56.79,35.19-114.37c6.75-23,13.4-46.54,15.15-71.19,3.16-44.68-10.16-88.84-28.3-126.55-43.1-89.51-115.64-152.46-194.2-168.46s-161.67,15.25-222.6,83.59" fill="#6c63ff" opacity="0.1" style="isolation:isolate"/><g opacity="0.1"><path d="M274.57,324.76s-27.31,6.34-34.87,22l-8.29-2.93V354l-17.31-4.6s11.7,6.34,5.12,14.63-26.3,23.14-26.3,23.14-13.41-12.44,4.64-36.58S254.34,309.15,274.57,324.76Z" fill="#6c63ff"/><path d="M272.62,317.69s-47.11-66.57-112.31-12.19c0,0,20.38,1,25.75,4.63,0,0,.24-13.9,4.87-10.24l2.69,10.73,15.11,2.19s3.52-12.43,7.74-10.24l5.68,10.73,12.19.73s2.44-11.22,5.12-9.51,4.88,8.54,4.88,8.54S265.8,311.84,272.62,317.69Z" fill="#6c63ff"/><path d="M277.26,317.69,266,290.42s.49-9.51,3.66-10l-6.1,2.44L258.48,277l3.66-9.51s-7.32,7.07-9.76,7.07-17.55-9.51-17.55-9.51l7.56-9s-9.76,10.49-17.32,7.08-34.15-15.44-25.85-17.88,24.88-15.11,51.21-1.46S297.25,292.33,277.26,317.69Z" fill="#6c63ff"/><path d="M282.13,317.69l18.54-33.56L307.5,286l-1.22-10.24L320.66,266l3.17,5.12V260.42l16.34-6.09,4.15,4.39s-2.44-9.51,10-8,17.32-.15,17.32-.15-11.72,16.64-18.79,22.62l-9.26-3.05,4,8.78-17.16,10s-10.24-6.64-10.73-4.78l4.14,8.48S281.16,313.06,282.13,317.69Z" fill="#6c63ff"/><path d="M288.72,321.83s10-18.28,25.36-16.82l4.63,5.85s-4.14-9.75,12.44-13.17,40.48-5.08,40.48-5.08l4.39,8.3,5.12-8.3,18.29,8.3s-4.15,14.58-33.41,16.78l-4.63-7.07-.74,7.07L344.07,323s-4.14-8.78-5.85-7.56-1,7.56-1,7.56S313.1,329.42,288.72,321.83Z" fill="#6c63ff"/><path d="M283.84,325.54s3.9,26.53,9.27,29.7,15.12,4.88,15.12,4.88l-15.85,2,8,12.68,14.88,6.83L304,383.77l-.73,6.59,6.34,2.92-7.28,3.14s-4.87,18.29-11.94,27.07c0,0,18.77-4.63,24.87-14.63s9-25.61,9-25.61,1-22.92-3.17-29S288.47,323.89,283.84,325.54Z" fill="#6c63ff"/><polygon points="277.74 332.07 274.57 334.02 268.72 346.21 278.96 346.21 277.74 332.07" fill="#6c63ff"/><path d="M276.77,348.66l-10,2.19v7.32s5.85,2.19,5.85,4.14Z" fill="#6c63ff"/><polygon points="263.84 359.88 261.4 370.37 270.18 374.5 270.18 365 263.84 359.88" fill="#6c63ff"/><path d="M260.55,373l-3.17,17.44s8.9-4.51,10.49-3.29l.85-9.27S262.92,371.7,260.55,373Z" fill="#6c63ff"/><path d="M256.53,393.65l.85,5.73,10.25,3V391.94l-2.57-3S256.15,391.07,256.53,393.65Z" fill="#6c63ff"/><path d="M255.07,402.42c.12.73,0,15.12,0,15.12h13l-.48-11.59Z" fill="#6c63ff"/><polygon points="255.06 419.25 256.51 436.81 268.72 429.38 268.11 420.95 255.06 419.25" fill="#6c63ff"/><polygon points="256.51 438.88 257.38 450.95 272.25 450.11 270.18 431.07 256.51 438.88" fill="#6c63ff"/><polygon points="257.38 454.37 259.82 465.7 274.57 463.14 272.25 452.54 257.38 454.37" fill="#6c63ff"/><polygon points="259.21 469.86 261.59 478.75 277.98 481.19 275.3 467.65 259.21 469.86" fill="#6c63ff"/><path d="M261.92,482.53l6.71,22.68s7.93-14.26,13.41-13.41l-2.68-8.54S263.24,480.7,261.92,482.53Z" fill="#6c63ff"/><path d="M269.58,508l5,13.29s16-6,18.29-4.39l-10-23.38S273.6,507.53,269.58,508Z" fill="#6c63ff"/><polygon points="276.77 524.6 283.96 538.99 299.2 529.48 292.86 519.12 276.77 524.6" fill="#6c63ff"/><polygon points="285.91 541.54 291.88 550.93 316.15 550.93 301.03 531.79 285.91 541.54" fill="#6c63ff"/><polygon points="292.86 554.11 309.93 577.39 327.12 562.75 318.71 554.11 292.86 554.11" fill="#6c63ff"/><polygon points="328.71 565.75 312.12 578.86 334.44 587.38 342.36 577.39 328.71 565.75" fill="#6c63ff"/><path d="M426.4,385.69s21.06,4.88,26.89,16.92l6.39-2.26v7.9L473,404.67s-9,4.89-4,11.28,20.3,17.86,20.3,17.86,10.34-9.58-3.57-28.2S442,373.65,426.4,385.69Z" fill="#6c63ff"/><path d="M427.92,380.23s36.32-51.32,86.59-9.4c0,0-15.72.76-19.85,3.58,0,0-.19-10.72-3.76-7.9l-2.07,8.27-11.66,1.69s-2.71-9.58-6-7.89l-4.38,8.27-9.4.56s-1.88-8.64-4-7.33-3.76,6.58-3.76,6.58S433.17,375.72,427.92,380.23Z" fill="#6c63ff"/><path d="M424.33,380.23l8.65-21s-.37-7.33-2.82-7.71l4.7,1.88,4-4.51L436,341.51s5.64,5.45,7.52,5.45,13.54-7.33,13.54-7.33l-5.83-7s7.52,8.08,13.35,5.45,26.35-11.8,19.92-13.66-19.17-11.66-39.48-1.13S408.92,360.68,424.33,380.23Z" fill="#6c63ff"/><path d="M420.57,380.23l-14.29-25.87L401,355.79l.94-7.89-11-7.48-2.45,4v-8.28l-12.59-4.7-3.2,3.39s1.88-7.33-7.71-6.21-13.34-.11-13.34-.11,9,12.9,14.47,17.5l7.15-2.35-3.09,6.77,13.24,7.71s7.89-5.12,8.27-3.69l-3.2,6.54S421.33,376.66,420.57,380.23Z" fill="#6c63ff"/><path d="M415.5,383.42s-7.71-14.1-19.56-13l-3.57,4.51s3.2-7.52-9.59-10.15-31.2-3.92-31.2-3.92l-3.39,6.4-4-6.4-14.1,6.4s3.2,11.24,25.76,12.93l3.57-5.45.57,5.45,12.78,4.23s3.2-6.77,4.51-5.83.75,5.83.75,5.83S396.7,389.26,415.5,383.42Z" fill="#6c63ff"/><path d="M419.26,386.29s-3,20.45-7.15,22.9-11.65,3.76-11.65,3.76l12.22,1.5-6.21,9.78L395,429.49l8.65,1.69.57,5.08-4.89,2.25L405,441s3.76,14.1,9.21,20.87c0,0-14.48-3.57-19.18-11.28s-7-19.74-7-19.74-.75-17.68,2.44-22.38S415.69,385,419.26,386.29Z" fill="#6c63ff"/><polygon points="423.95 391.32 426.4 392.82 430.91 402.24 423.01 402.24 423.95 391.32" fill="#6c63ff"/><path d="M424.71,404.11l7.71,1.69v5.62s-4.51,1.69-4.51,3.2Z" fill="#6c63ff"/><polygon points="434.67 412.75 436.55 420.85 429.78 424.02 429.78 416.7 434.67 412.75" fill="#6c63ff"/><path d="M437.21,422.91l2.45,13.44s-6.87-3.48-8.09-2.54l-.66-7.14S435.43,421.88,437.21,422.91Z" fill="#6c63ff"/><path d="M440.31,438.8l-.65,4.42-7.9,2.35v-8.09l2-2.35S440.61,436.81,440.31,438.8Z" fill="#6c63ff"/><path d="M441.44,445.57c-.09.56,0,11.65,0,11.65H431.38l.38-8.93Z" fill="#6c63ff"/><polygon points="441.44 458.54 440.32 472.07 430.91 466.33 431.38 459.86 441.44 458.54" fill="#6c63ff"/><polygon points="440.32 473.68 439.65 482.98 428.18 482.31 429.78 467.65 440.32 473.68" fill="#6c63ff"/><polygon points="439.65 485.61 437.77 494.36 426.4 492.38 428.18 484.19 439.65 485.61" fill="#6c63ff"/><polygon points="438.24 497.55 436.41 504.4 423.76 506.3 425.83 495.86 438.24 497.55" fill="#6c63ff"/><path d="M436.18,507.32,431,524.81s-6.11-11-10.34-10.34l2.07-6.58S435.14,505.91,436.18,507.32Z" fill="#6c63ff"/><path d="M430.26,527l-3.86,10.25s-12.31-4.61-14.1-3.39l7.71-18S427.15,526.59,430.26,527Z" fill="#6c63ff"/><polygon points="424.7 539.75 419.16 550.85 407.41 543.51 412.3 535.52 424.7 539.75" fill="#6c63ff"/><polygon points="417.65 552.82 413.05 560.05 394.34 560.05 406 545.3 417.65 552.82" fill="#6c63ff"/><polygon points="412.3 562.5 399.14 580.46 385.88 569.17 392.37 562.5 412.3 562.5" fill="#6c63ff"/><polygon points="384.66 571.48 397.44 581.59 380.24 588.16 374.13 580.46 384.66 571.48" fill="#6c63ff"/><path d="M249.09,593.84s50.81-21.62,92.34-17a83.85,83.85,0,0,0,8.54.55c17,.18,77,1.85,104.69,16.43Z" fill="#6c63ff"/></g><ellipse cx="930.02" cy="740.36" rx="111.1" ry="13.79" transform="translate(-107.12 159.48) rotate(-9.27)" fill="#6c63ff" opacity="0.1" style="isolation:isolate"/><ellipse cx="125.35" cy="892.91" rx="113.45" ry="12.53" fill="#6c63ff" opacity="0.1" style="isolation:isolate"/><ellipse cx="535.86" cy="635.65" rx="79.91" ry="11.03" fill="#6c63ff" opacity="0.1" style="isolation:isolate"/><path d="M271.39,538.31v-.07l-.09-.06h0l-.54-.37.11.09a1.79,1.79,0,0,0-2.36.51l-.22.32h0L256.14,556.2,254,559.26c-6.41-1.93-16.82,6.2-22.09,10.85l-.93.82c-.41-.94-.66-1.53-.66-1.53-.26,2.86-10.36,7.14-12.72,8.7a8.66,8.66,0,0,1-3.52,1.19C214.42,568.41,206,557,206,557l-20.5-26.15a23.08,23.08,0,0,1,2.1-13.87c.17-.34.34-.67.53-1h.1a22.79,22.79,0,0,0-1.29,6.83c.05,1.78,1.69,10.35,4,10a1.25,1.25,0,0,0,1.18-.57c1.84-2.14,2-5.78,1.91-9.15a18.62,18.62,0,0,1-.33,3c.15-2.8-.17-5.76-.17-7.87,0-.84,0-1.67.06-2.51h.25v0h.27a27.59,27.59,0,0,0,12.55-5.81,6.77,6.77,0,0,0,4.72-2.21,4.59,4.59,0,0,1-.89,4.27c2.75-.13,5.08-2.27,6.14-4.78a16.68,16.68,0,0,0,.78-8,55.49,55.49,0,0,1-.59-8.13,29.77,29.77,0,0,0,.24-4.42,8.67,8.67,0,0,0-.24-1.35h.08a1.89,1.89,0,0,0,1.43-.55c1.14-.88,1.51-2.61,1.8-3.92a33.42,33.42,0,0,0,1.06-9.31c-.06,1-.18,1.9-.32,2.85.25-3.6-.25-7.1-2.63-9.7-1.64-1.8-3.93-2.85-6.13-3.89a4.74,4.74,0,0,1-2-1.43,5.93,5.93,0,0,1-.61-2.48c-.77-5.27-5.72-8.92-10.65-11.06-6.34-2.75-14-3.94-20.05-.66-3,1.59-5.3,4.09-8,6.12-3.38,2.56-7.28,4.36-10.89,6.6s-7.05,5.08-8.77,8.94c-2.65,6-.66,12.81-.33,19.31.53,10.25-3.69,21-12.05,27a10.84,10.84,0,0,0-2.65,2.29,2.86,2.86,0,0,0-.22,3.27c.43.57,1.11.88,1.58,1.41.95,1.09.76,2.73.39,4.12a25.79,25.79,0,0,1-7,11.85c.15,1.07,1.46,1.49,2.53,1.64a56.91,56.91,0,0,0,8.55.62h1.23c-.13.33-.27.68-.41,1-1.55,4.09-3.56,10.36-2.89,14.2,1.05,6.07,4.2,33.78,2.62,38.63S145,632.4,145,632.4s.55,2.72,1.5,6.78c-2.47,5.83-5.29,12.28-6.7,14.87-2.84,5.2-1.44,31.7,8.35,43.47,0,0,4.05,5.72,3,7.8s.18,5.71.18,5.71l1.55,34.3a87.57,87.57,0,0,1-.73,10.47c-4.17,5.17-10.61,12.71-13.64,14-4.69,1.9-39.67,44.33-39.67,44.33s.28.51.82,1.35l-1,1.13-6.71,7.78-.53.61c-1.26-.23-9.65-1.76-16.3-2.24h-.66v-.34a24.88,24.88,0,0,0-7,.19,2.26,2.26,0,0,0-1.16.61C64,826,62.77,869.64,62.77,869.64s2.42,21.84,10,23.06a4.4,4.4,0,0,0,1.2.23h.42a10.31,10.31,0,0,0,9-5.61,9.34,9.34,0,0,0,.75-2s-.88-3.9,1.48-9.27,6.74-14.72,6.74-14.72,8-8.4,6.56-12.49l.77-1.1c3-4.27,9.08-12.72,14-18.37l1-1.08a25.16,25.16,0,0,0,5.57,1.62s7.53-3,10.32-9.53c1.19-2.8,5.86-7.75,10.83-12.53l-.16,1.28-.17,41.73a29,29,0,0,0,5.14,2.83v1a134.26,134.26,0,0,1-1.08,17.8l-.15.92c-.62-.44-1.16-.59-1.5-.24-1.54,1.55-2.5,11.52-2.59,16.1v.46c-.25,4.59-2.86,11.24,5,11.58,5.88.25,31.22.64,44.79.83a30,30,0,0,0,20-7.09c4.31-3.69,6.92-8.08,1-11.31-.36-.19-.74-.38-1.16-.57l-13-2-22.21-11.34s-.13-6.86-2.8-5.72a7.39,7.39,0,0,0-2.25.9c-.13-.26-.27-.52-.4-.8a25.59,25.59,0,0,1-2.74-11.56v-1.11a19.5,19.5,0,0,0,1.84-1.89s-.17-15.58,1.58-18.53,7.19-32.7,7.19-32.7.17-5.55,3.67-8.84,2.27-12.82,2.27-12.82,4.9-2.59,6.47-11.08,6.65-27,6.65-27,10.49-27.36,9.8-44.68,1-26.33,1-26.33l2.18-40.25v-.62c.87.67,1.46,1.2,1.46,1.2v-.43c.32.26.5.43.5.43s1.12-18.26.74-25.5c6.12-2.08,15.44-5.5,16-7.23.79-2.6,11.29-10.78,11.29-10.78a1.94,1.94,0,0,1-.64-.24c.33-.16.67-.33,1-.53,6.88-3.68,19.66-14.44,17.51-21l14-20.08A3.42,3.42,0,0,0,271.39,538.31Z" fill="url(#a)"/><path d="M238.81,586.84a9.12,9.12,0,0,1-3.35,1.27c-4.37.13-8-11.71-8-11.71s1.24-1.26,3.22-3c5.86-5.21,18.15-14.84,23.91-9.45C261.09,570,246.34,582.77,238.81,586.84Z" fill="#ecb4b6"/><path d="M172.4,869l-16.13,17.45s-14.92.17-12-8.06a30.17,30.17,0,0,0,1.24-5.47,134.75,134.75,0,0,0,1-17.62c0-3.87-.06-6.57-.06-6.57s23.49-10.29,21.09.42a20.15,20.15,0,0,0-.48,4.08A27.47,27.47,0,0,0,172.35,869Z" fill="#ecb4b6"/><path d="M172.4,869l-16.13,17.45s-14.92.17-12-8.06a30.17,30.17,0,0,0,1.24-5.47c2.13,1.64,5.19,6.5,5.19,6.5s10.29,3,13.12-6c1.58-5,4.08-7.53,6-8.74A25.78,25.78,0,0,0,172.4,869Z" opacity="0.1" style="isolation:isolate"/><path d="M209.8,895.18a29.29,29.29,0,0,1-19.64,7c-13.3-.19-38.15-.57-43.92-.82-7.72-.33-5.16-6.92-4.91-11.47v-.45c.09-4.54,1-14.41,2.54-16s6.81,6.86,6.81,6.86,10.29,3,13.12-6,8.58-9.86,8.58-9.86c2.61-1.13,2.74,5.66,2.74,5.66l21.8,11.27,12.77,2c.42.19.79.38,1.14.57C216.59,887.18,214,891.52,209.8,895.18Z" fill="#c17174"/><circle cx="169.56" cy="876.95" r="0.94" fill="#fff" opacity="0.25" style="isolation:isolate"/><circle cx="178.39" cy="881.32" r="0.94" fill="#fff" opacity="0.25" style="isolation:isolate"/><circle cx="182.94" cy="883.36" r="0.94" fill="#fff" opacity="0.25" style="isolation:isolate"/><circle cx="192.37" cy="886.98" r="0.94" fill="#fff" opacity="0.25" style="isolation:isolate"/><circle cx="187.57" cy="885.43" r="0.94" fill="#fff" opacity="0.25" style="isolation:isolate"/><path d="M209.8,895.18a29.29,29.29,0,0,1-19.64,7c-13.3-.19-38.15-.57-43.92-.82-7.72-.33-5.16-6.92-4.91-11.47l48.47,3s19.85-3,21-8.92C216.59,887.18,214,891.52,209.8,895.18Z" fill="#c17174"/><path d="M209.8,895.18a29.29,29.29,0,0,1-19.64,7c-13.3-.19-38.15-.57-43.92-.82-7.72-.33-5.16-6.92-4.91-11.47l48.47,3s19.85-3,21-8.92C216.59,887.18,214,891.52,209.8,895.18Z" fill="#fff" opacity="0.25" style="isolation:isolate"/><path d="M119.57,825.24a32.8,32.8,0,0,0-4.86,4.87c-4.81,5.59-10.76,14-13.71,18.19-1.14,1.64-1.83,2.66-1.83,2.66L92.73,850s-6.94-10.6-6.81-10.89,5.49-11.66,5.49-11.66L93.5,825l6.58-7.7,3-3.49S125.4,821,119.57,825.24Z" fill="#ecb4b6"/><path d="M101,848.3c-1.14,1.64-1.83,2.66-1.83,2.66L92.73,850s-6.94-10.6-6.81-10.89,5.49-11.66,5.49-11.66L93.5,825l.68.12h1.63c-5.74,6,.43,19.21.43,19.21S98.92,844.6,101,848.3Z" opacity="0.1" style="isolation:isolate"/><path d="M93.81,861.75s-4.3,9.26-6.61,14.58-1.46,9.17-1.46,9.17a9,9,0,0,1-.73,2A10.12,10.12,0,0,1,76.23,893h-.42c-7.82-.21-10.3-22.9-10.3-22.9s1.2-43.22,3.43-46a2.21,2.21,0,0,1,1.13-.6,24.41,24.41,0,0,1,6.85-.13c7.07.51,16.16,2.25,16.16,2.25h1.63c-5.75,6,.42,19.2.42,19.2s2.75.26,4.89,4.12S93.81,861.75,93.81,861.75Z" fill="#c17174"/><circle cx="84.36" cy="848.91" r="0.94" fill="#fff" opacity="0.25" style="isolation:isolate"/><circle cx="83.9" cy="856.39" r="0.94" fill="#fff" opacity="0.25" style="isolation:isolate"/><path d="M84.37,887.34a10.11,10.11,0,0,1-8.78,5.55h-.41c-7.82-.21-10.31-22.9-10.31-22.9s1.2-43.22,3.43-46a2.21,2.21,0,0,1,1.13-.6,24.41,24.41,0,0,1,6.89-.18c-.13,7.76-.5,32.32,0,34.75S81.26,880.8,84.37,887.34Z" fill="#c17174"/><path d="M84.37,887.34a10.11,10.11,0,0,1-8.78,5.55h-.41c-7.82-.21-10.31-22.9-10.31-22.9s1.2-43.22,3.43-46a2.21,2.21,0,0,1,1.13-.6,24.41,24.41,0,0,1,6.89-.18c-.13,7.76-.5,32.32,0,34.75S81.26,880.8,84.37,887.34Z" fill="#fff" opacity="0.25" style="isolation:isolate"/><path d="M75.18,892.9c-7.82-.21-10.31-22.9-10.31-22.9s1.2-43.22,3.43-46a2.21,2.21,0,0,1,1.13-.6c1.64,2.45,3.08,7.84,1.78,19.73-2.44,22.51.5,23.92.5,23.92S75.36,886.18,75.18,892.9Z" fill="#c17174"/><path d="M75.18,892.9c-7.82-.21-10.31-22.9-10.31-22.9s1.2-43.22,3.43-46a2.21,2.21,0,0,1,1.13-.6c1.64,2.45,3.08,7.84,1.78,19.73-2.44,22.51.5,23.92.5,23.92S75.36,886.18,75.18,892.9Z" opacity="0.1" style="isolation:isolate"/><path d="M238.81,586.84a9.12,9.12,0,0,1-3.35,1.27c-4.37.13-8-11.71-8-11.71s1.24-1.26,3.22-3C232.11,576.6,236.05,585.24,238.81,586.84Z" opacity="0.1" style="isolation:isolate"/><path d="M210.77,582.58s3.6.25,5.91-1.29,12.22-5.79,12.48-8.62c0,0,5.91,14.41,9.26,14.92,0,0-10.29,8.1-11.06,10.68s-20.84,8.87-20.84,8.87Z" fill="#9f9eff"/><path d="M210.77,582.58s3.6.25,5.91-1.29,12.22-5.79,12.48-8.62c0,0,5.91,14.41,9.26,14.92,0,0-10.29,8.1-11.06,10.68s-20.84,8.87-20.84,8.87Z" opacity="0.1" style="isolation:isolate"/><path d="M119.57,825.24a32.8,32.8,0,0,0-4.86,4.87C107,826.86,102,820.23,100,817.32l3-3.49S125.4,821,119.57,825.24Z" opacity="0.1" style="isolation:isolate"/><path d="M156.27,752.27s-12.58,16.8-17.18,18.69-38.89,43.9-38.89,43.9,7.37,13.55,20.92,15.78c0,0,7.37-2.92,10.12-9.43s24.35-24.87,24.35-24.87Z" fill="#5e5a6b"/><path d="M156.27,752.27s-12.58,16.8-17.18,18.69-38.89,43.9-38.89,43.9,7.37,13.55,20.92,15.78c0,0,7.37-2.92,10.12-9.43s24.35-24.87,24.35-24.87Z" opacity="0.1" style="isolation:isolate"/><path d="M118.16,808.56a54.84,54.84,0,0,0,11.45,0C136.42,807.92,131.28,812,118.16,808.56Z" opacity="0.1" style="isolation:isolate"/><path d="M115.07,812.93s9,5.15,12.48,2.57S124.2,818,115.07,812.93Z" opacity="0.1" style="isolation:isolate"/><path d="M167.59,849.07a20.15,20.15,0,0,0-.48,4.08c-6.95,6.32-15.32,4.37-20.55,2.07,0-3.87-.06-6.57-.06-6.57S170,838.36,167.59,849.07Z" opacity="0.1" style="isolation:isolate"/><path d="M209.26,625.36l-.25,4.75-2.09,39.84s-1.72,8.92-1,26.07-9.61,44.24-9.61,44.24-5,18.35-6.52,26.75-6.34,11-6.34,11,1.2,9.43-2.23,12.69-3.6,8.75-3.6,8.75-5.32,29.49-7,32.41-1.7,18.33-1.7,18.33c-11.1,13.23-27.39,1.23-27.39,1.23l.17-41.33s4.63-38.07,8.06-43.39,3.43-19.89,3.43-19.89l-1.53-34s-1.22-3.61-.17-5.66-2.94-7.72-2.94-7.72c-9.6-11.66-11-37.9-8.18-43s11.12-25.72,11.12-25.72L162.92,624l20.73.62Z" fill="#5e5a6b"/><path d="M160.48,827.47s2.71,9.38,4.89,10.41S160.48,827.47,160.48,827.47Z" opacity="0.1" style="isolation:isolate"/><path d="M164.21,796.21s7,5.55,10,5.53S164.21,796.21,164.21,796.21Z" opacity="0.1" style="isolation:isolate"/><path d="M206.52,564v11.37l-7.47-3.22L191.6,569l-16.21-16s-12.82-8.33-19.68-15.92c-3.92-4.33-5.89-8.42-2.44-10.57a21.82,21.82,0,0,0,4.49-3.94,74.09,74.09,0,0,0,8.94-13.19l.32-.58c3.34-6.13,5.55-11.36,5.55-11.36s9.39,3,15.44,7.28c.49.34.95.69,1.39,1,3.37,2.77,5.05,6,1.94,9.16a25,25,0,0,0-2.21,2.65h0a20.69,20.69,0,0,0-1.38,2.17c-.18.33-.36.67-.52,1a23.06,23.06,0,0,0-2.06,13.73Z" fill="#ecb4b6"/><path d="M205.15,483.27c.39.67.93,1.25,1.29,1.94A9.41,9.41,0,0,1,207,490a27,27,0,0,0,.5,7.66c.53,2.25,1.52,4.43,1.6,6.75.11,3.28-1.59,6.3-3.24,9.13a6.59,6.59,0,0,0,4.71-2.19,4.55,4.55,0,0,1-.86,4.23c2.69-.12,5-2.24,6-4.73a16.49,16.49,0,0,0,.77-8,54.4,54.4,0,0,1-.58-8,29.23,29.23,0,0,0,.23-4.38c-.25-2.92-2-5.44-3.76-7.81l-3.46-4.73a2.49,2.49,0,0,0-1-.92C204.61,475.59,204.23,481.66,205.15,483.27Z" fill="#464353"/><path d="M191.34,514.92a25,25,0,0,0-2.21,2.65h0a20.69,20.69,0,0,0-1.38,2.17c-.18.33-.36.67-.52,1A26.94,26.94,0,0,1,167,509.82l-.32-.45.32-.58c3.34-6.13,5.55-11.36,5.55-11.36s9.39,3,15.44,7.28c.49.34.95.69,1.39,1C192.77,508.53,194.45,511.73,191.34,514.92Z" opacity="0.1" style="isolation:isolate"/><path d="M215.76,492.75a27,27,0,0,1-22.11,26.57,28.26,28.26,0,0,1-4.9.44h-1a27,27,0,1,1,28-27Z" fill="#ecb4b6"/><path d="M192.29,559.51s13.6,7.68,10.11,1.2l-17.74-26.24h0l20.15,25.95s12.86,17.66,5.83,29.84c0,0-1,10.12.17,12.52s-.35,28-.35,28-4.8-4.46-7.37-3.6-20.75,2.4-20.75,2.4Z" opacity="0.1" style="isolation:isolate"/><path d="M209.26,625.36l-.25,4.75c-1.63-1.19-3.9-2.51-5.41-2-2.57.86-20.75,2.4-20.75,2.4l.84-5.9Z" opacity="0.1" style="isolation:isolate"/><path d="M192.8,559.51s13.61,7.68,10.12,1.2l-17.75-26.24h0l20.15,25.95s12.86,17.66,5.83,29.84c0,0-1,10.12.17,12.52s-.34,28-.34,28-4.8-4.46-7.37-3.6-20.76,2.4-20.76,2.4Z" fill="#464353"/><path d="M200.07,572.67c-.79,8.24-4.18,18-4.18,18s-2.4,24.36-5.49,31.56-1.72,17.15-3.43,35.5c-.62,6.6-2.75,11.14-5.62,14.21-4.72,5-11.46,6.08-16.78,5.77-.44,0-.85,0-1.27-.09-8.57-.86-16.8-42.19-16.8-42.19s-3.94-35.15-2.4-40-1.54-32.25-2.57-38.25c-.66-3.8,1.31-10,2.83-14.06.89-2.34,1.62-4,1.62-4s2.92-9.26,7.72-14.06a7,7,0,0,1,5.09-2.13,12.56,12.56,0,0,1,6.35,2l.22.14s31.22,31.9,34.13,39.27C200.3,566.54,200.38,569.49,200.07,572.67Z" opacity="0.1" style="isolation:isolate"/><path d="M199.05,572.15c-.8,8.24-4.19,18.06-4.19,18.06s-2.4,24.35-5.49,31.55-1.72,17.15-3.43,35.5c-.62,6.61-2.75,11.15-5.62,14.21-4.72,5-11.46,6.09-16.78,5.78l-1.26-.1C153.7,676.3,145.47,635,145.47,635s-3.94-35.15-2.4-40-1.54-32.24-2.57-38.25c-.66-3.8,1.31-10,2.83-14.06.89-2.33,1.62-3.94,1.62-3.94s2.92-9.26,7.72-14.06a7.08,7.08,0,0,1,5.09-2.14,12.62,12.62,0,0,1,6.35,2l.22.15S195.55,556.6,198.46,564C199.27,566,199.35,569,199.05,572.15Z" fill="#9f9eff"/><path d="M164.08,697.69s-7.08,6.3-9.52,6S164.08,697.69,164.08,697.69Z" opacity="0.1" style="isolation:isolate"/><path d="M165.92,703.74s-7.46,3.47-9.69,4S163.08,702.85,165.92,703.74Z" opacity="0.1" style="isolation:isolate"/><path d="M194.82,609.07s11.06.13,12.73,3.6S198.42,607.66,194.82,609.07Z" opacity="0.1" style="isolation:isolate"/><path d="M193.27,615.12s8.49,1.8,11.06,3.85S193.27,615.12,193.27,615.12Z" opacity="0.1" style="isolation:isolate"/><path d="M179,594.15s-1,34.86-4.82,39.36S179,594.15,179,594.15Z" opacity="0.1" style="isolation:isolate"/><path d="M169.48,692.67s-7.06,30.75,7.14,32.67,9.84-35,9.84-35Z" opacity="0.1" style="isolation:isolate"/><path d="M168.92,692.16s-7.06,30.74,7.15,32.67,9.83-35,9.83-35Z" fill="#ecb4b6"/><path d="M215.59,489.77a10.08,10.08,0,0,1-1-1.87c-1.89-3.93-6.75-2-10.31-.13-.63.82-1.27,1.63-1.91,2.45a15.25,15.25,0,0,0-2.17,3.35,25.93,25.93,0,0,0-.91,3c-.49,1.75-1.21,3.41-1.86,5.1a59.35,59.35,0,0,0-3.81,17.65,28.26,28.26,0,0,1-4.9.44h-.12v-.13c.18-.68.33-1.37.47-2.06h0a35.75,35.75,0,0,0,.27-11.81v-.25c-.13-.88-.3-1.75-.37-2.63l-1,1.83c-2.15,4-4.41,8-8.47,9.75a17.38,17.38,0,0,1-5.15,1.17,28.8,28.8,0,0,0-6.44,1.07,4,4,0,0,0-1.87,1.12,5.55,5.55,0,0,0-.94,2.82,22.49,22.49,0,0,1-1,3.91,34.19,34.19,0,0,1-8.4,12.52l-.94.91a17.23,17.23,0,0,1-5.55,3.84,17,17,0,0,1-5.89.88c.89-2.33,1.62-3.94,1.62-3.94s2.92-9.26,7.72-14.06a7.08,7.08,0,0,1,5.09-2.14A75.19,75.19,0,0,0,167,508.79a27,27,0,1,1,48.57-19Z" opacity="0.1" style="isolation:isolate"/><path d="M217.31,468.7c-1.6-1.78-3.85-2.82-6-3.85a4.49,4.49,0,0,1-2-1.42,5.94,5.94,0,0,1-.6-2.45c-.75-5.22-5.61-8.83-10.44-11-6.22-2.72-13.69-3.89-19.66-.65-2.9,1.57-5.19,4-7.81,6-3.32,2.55-7.14,4.33-10.68,6.54s-6.92,5-8.6,8.86c-2.6,5.9-.65,12.68-.32,19.12.51,10.15-3.62,20.77-11.82,26.77a10.32,10.32,0,0,0-2.6,2.27,2.86,2.86,0,0,0-.21,3.24c.41.56,1.09.87,1.54,1.39.94,1.08.75,2.7.38,4.08a25.47,25.47,0,0,1-6.87,11.72c.14,1.06,1.42,1.47,2.47,1.63a56.1,56.1,0,0,0,8.39.61,14.05,14.05,0,0,0,11.73-4.72c5-4.71,9.23-10.58,10.36-17.33a5.71,5.71,0,0,1,.94-2.83,4.16,4.16,0,0,1,1.87-1.12c3.73-1.29,8-.66,11.59-2.23,4.68-2,7-7,9.45-11.59.08.88.24,1.76.38,2.63a35.75,35.75,0,0,1-.7,14.12c-.67,2.62-1.64,5.21-1.57,7.91.05,2,2.08,12.44,4.75,9.31s1.69-10,1.69-13.93a59.63,59.63,0,0,1,3.9-21.24c.64-1.69,1.37-3.36,1.86-5.1a28,28,0,0,1,.9-3,15.92,15.92,0,0,1,2.18-3.35l1.91-2.45c3.56-1.88,8.42-3.8,10.31.13.72,1.51,1.11,3.18,3,1.72,1.12-.88,1.48-2.59,1.77-3.89C220.07,479.26,221.05,472.85,217.31,468.7Z" fill="#464353"/><path d="M181.12,563.12c-.73-18.48-26.58-22.3-32.61-4.82-.05.12-.09.23-.13.35-3.94,11.84-2.22,41.8-2.22,41.8s.51,20.11,2.4,26.8,7.2,25.89,7.2,29,4.93,14.92,7,15.78,3.12,7.54,3.63,8.74,2.05,16.81,2.05,16.81,19.38-1.2,19.72-4.29-4.24-18.19-4.24-18.19-3.41-6.18-3.85-11.15-3.18-7.2-2.66-10.63-1.55-5.15-1.55-7.38-1.54-8.23-1.54-8.23-3.26-2.57-2.74-5.66-4.63-9.26-3.26-11.49,1.71-7.72,1.71-7.72,1.68-24.69,2.89-31.42,8.23-17.49,8.23-17.49Z" opacity="0.1" style="isolation:isolate"/><path d="M180.32,671.47c-4.72,5-11.46,6.09-16.78,5.78-.62-2.34-1.52-5.21-2.83-5.76-2.08-.85-7-12.68-7-15.77s-5.32-22.3-7.2-29-2.4-26.8-2.4-26.8-1.72-30,2.23-41.79a1,1,0,0,1,.12-.36c6-17.47,31.88-13.65,32.61,4.82v.85s-7,10.81-8.23,17.49-2.92,31.4-2.92,31.4-.35,5.49-1.72,7.71,3.77,8.41,3.26,11.5,2.74,5.66,2.74,5.66,1.54,6,1.54,8.23,2.06,3.94,1.55,7.37,2.23,5.66,2.67,10.64A27.66,27.66,0,0,0,180.32,671.47Z" opacity="0.1" style="isolation:isolate"/><path d="M180.09,562.6c-.73-18.47-26.58-22.29-32.61-4.82l-.12.36c-3.95,11.83-2.23,41.79-2.23,41.79s.51,20.12,2.4,26.8,7.2,25.9,7.2,29,4.93,14.92,7,15.77,3.12,7.55,3.63,8.75,2.05,16.81,2.05,16.81,19.38-1.2,19.72-4.29-4.29-18.18-4.29-18.18-3.4-6.17-3.84-11.17-3.18-7.2-2.66-10.63-1.55-5.14-1.55-7.37-1.54-8.23-1.54-8.23-3.26-2.58-2.74-5.66-4.63-9.26-3.26-11.49,1.71-7.72,1.71-7.72,1.72-24.7,2.92-31.38,8.23-17.5,8.23-17.5S180.11,563.15,180.09,562.6Z" fill="#9f9eff"/><path d="M148.26,610.1c.51-.51,10.29-11.32,13.37-7.46S148.26,610.1,148.26,610.1Z" opacity="0.1" style="isolation:isolate"/><path d="M149.16,618.42c.38-.39,9.77-.77,12.09-6S149.16,618.42,149.16,618.42Z" opacity="0.1" style="isolation:isolate"/><g opacity="0.1"><path d="M138.46,523.62a2.69,2.69,0,0,1,.51.94,4,4,0,0,0-.51-3.51c-.46-.52-1.13-.84-1.55-1.39l-.08-.15a2.67,2.67,0,0,0,.08,2.72C137.33,522.79,138,523.1,138.46,523.62Z"/><path d="M151.55,490.29v-2.92c-.18-3.49-.83-7.09-1-10.59-.2,4.29.76,8.8,1,13.17C151.55,490.06,151.54,490.17,151.55,490.29Z"/><path d="M191.63,533.25c-2.38,2.79-4.25-5.24-4.66-8.4a13.09,13.09,0,0,0-.09,1.66c.06,2,2.08,12.44,4.75,9.31,1.81-2.11,2-5.72,1.88-9.06C193.41,529.26,193,531.67,191.63,533.25Z"/><path d="M189.15,504.48a34.58,34.58,0,0,1,.37,4.07,35.09,35.09,0,0,0-.37-6.64c-.13-.88-.3-1.75-.38-2.63-2.47,4.61-4.76,9.55-9.44,11.58-3.63,1.58-7.86,1-11.6,2.24a4.21,4.21,0,0,0-1.87,1.12,5.7,5.7,0,0,0-.93,2.82c-1.14,6.76-5.38,12.63-10.37,17.33a14.1,14.1,0,0,1-11.73,4.73,56,56,0,0,1-8.38-.61,5.71,5.71,0,0,1-1.26-.33c-.39.44-.8.87-1.22,1.27.14,1.06,1.43,1.47,2.48,1.63a56,56,0,0,0,8.38.61,14.05,14.05,0,0,0,11.73-4.72c5-4.71,9.23-10.58,10.37-17.33a5.7,5.7,0,0,1,.93-2.83,4.21,4.21,0,0,1,1.87-1.12c3.74-1.29,8-.66,11.6-2.23,4.68-2,7-7,9.44-11.59C188.85,502.73,189,503.61,189.15,504.48Z"/><path d="M219.17,482.13c-.29,1.3-.66,3-1.77,3.88-1.88,1.47-2.26-.2-3-1.71-1.89-3.94-6.75-2-10.31-.13l-1.91,2.45A15.25,15.25,0,0,0,200,490a25.93,25.93,0,0,0-.91,3c-.49,1.74-1.21,3.41-1.86,5.1a59.77,59.77,0,0,0-3.93,21.25v1a59.75,59.75,0,0,1,3.91-19.73c.65-1.69,1.37-3.36,1.86-5.1a25.93,25.93,0,0,1,.91-3,15.49,15.49,0,0,1,2.17-3.35l1.91-2.45c3.56-1.88,8.42-3.8,10.31.13.73,1.51,1.11,3.18,3,1.72,1.11-.88,1.48-2.59,1.77-3.89a33.84,33.84,0,0,0,1-9.21A44.15,44.15,0,0,1,219.17,482.13Z"/></g><path d="M242.56,579.49l.53.36a2.12,2.12,0,0,1-.55-2.95h0l23.84-34.6a2.12,2.12,0,0,1,2.94-.58l.06,0-.53-.37a3.41,3.41,0,0,1,.87,4.74L247.3,578.62A3.41,3.41,0,0,1,242.56,579.49Z" fill="#464353"/><path d="M269,541.55l.4.28h0l-26.24,38.1h0l-.4-.28a1.74,1.74,0,0,1-.45-2.42L266.63,542A1.74,1.74,0,0,1,269,541.55Z" fill="#9f9eff"/><rect x="263.12" y="548.06" width="3.77" height="0.43" rx="0.17" ry="0.17" transform="translate(-336.84 455.5) rotate(-55.44)" fill="#464353"/><g opacity="0.1"><path d="M919.4,474.95a4.58,4.58,0,0,0,.31-1.66l.62-.31C920,473.64,919.73,474.3,919.4,474.95Z" fill="url(#b)"/></g><g opacity="0.1"><path d="M1009.92,694.57a4,4,0,0,0-.16-.89c-.67-2.78-1.42-6-2.08-9,.32,1.42,1.42,6.21,2.33,10Z" fill="url(#c)"/></g><g opacity="0.1"><path d="M911.56,340.9l.29-.19,0,0Z" fill="url(#d)"/></g><path d="M1012.54,715.81c-1-1.33-1.65-5.9-1-7.6s1.56-19.45.82-20.77-4.8-3.18-4.85-3.21l-.18-.81c-.08-.37-.16-.74-.23-1.1a32.36,32.36,0,0,0,4.44-5.27,15.28,15.28,0,0,1-6.28-12.6c0-8.62-9.4-36.25-9.4-36.25s-5.38-7.74-3.36-11.49.22-14.81.22-14.81L997,595s.67-6.63,1.34-13.48-4-14.37-1.79-17.68-.9-19.88-.9-19.88-2-21-5.27-28.1v0a59.87,59.87,0,0,1-1.42-9.14c0-.78-.09-1.58-.1-2.39,5.28-9.47,13-23.53,12.74-24.77-.34-1.88,1.79-8.18,1.79-8.18l1.68-15.47s2.69-24.87,2.91-39.23-7.84-19.9-7.84-19.9a6,6,0,0,0-5.54,1.2,5.69,5.69,0,0,1,2.46-1.52l.57-.12a5.25,5.25,0,0,1,2.46.42h0c-.11-.09-.46-.33-1-.67a4.79,4.79,0,0,0,1.35-.4,3.62,3.62,0,0,0,1.66-1.75,4.16,4.16,0,0,0,.77-1.38h-.16a4.88,4.88,0,0,0,.27-2,9.16,9.16,0,0,0-2-4.5c-4.54-6-12.1-9.59-15.64-16.22-3-5.71-2.51-12.57-1.51-18.93s2.4-12.91.86-19.17a25.38,25.38,0,0,0-10-14.12A40.63,40.63,0,0,0,958.33,311c-2.73-.51-5.62-.82-8.25.06-2,.68-3.78,2-5.77,2.83-4.52,1.83-9.72.73-14.46,1.9a19.49,19.49,0,0,0-10.7,7.63,30.29,30.29,0,0,0-2.76,4.65,48.89,48.89,0,0,0-3.28,8.25c-.53,1.69-.24,2.76-.47,3.68a3.45,3.45,0,0,1-.81.71,4.29,4.29,0,0,0-1.21,1.74,5.9,5.9,0,0,0,0,5.83,8.7,8.7,0,0,0,.18,2.3,20.64,20.64,0,0,0,1.24,3.19,53.11,53.11,0,0,1,1.41,38.39c-.58.27-1.16.55-1.77.86,0,0-.38.3-1,.88-2.65,2.52-9.62,10.15-9.08,20.56.67,12.82,0,31.16,0,31.16s-1.57,12.62-.68,16.82c-.25,3.88,0,11,4.55,15.66a7.37,7.37,0,0,0,8.43,1.43c2.15-1,4.54-2.58,5.45-4.56-1.6,3.23-3.53,6.23-5.92,7.32-3.36,1.55-2.53,8.85-2.53,8.85s-3.74,4.42-3.07,6.41-5.37,4.2-2.24,7.07c.18.17.47.41.84.72h0a20.1,20.1,0,0,0-6,11,160.74,160.74,0,0,1-4.15,19.1,1.46,1.46,0,0,0-.85,2.46,8,8,0,0,1-1.23,2.31,42.31,42.31,0,0,0-4.07,5.12,1.46,1.46,0,0,0-1,1.39,1.27,1.27,0,0,0,0,.28c-1.22,2.26-1.85,4.58-.75,6.25,2.46,3.76,2.91,16.58,2.91,16.58s-.9,11.49,1.57,15.25,4.48,27.63-.9,34.7c0,0-1.79,16.36-1.12,17.9s-2.91,5.53-1.79,8.85,6.49,64.32,5.82,66.75c0,0,1.86-.27,4.51-.48-.06.44-.12.89-.19,1.35-.16,1.1-.34,2.26-.55,3.4a3.33,3.33,0,0,1-.13.7c-1-1.49-2.54-2.29-4.65-.5l-3.13,5.59s-4.59,8.73-9.57,9.5c-3.59.56-7.08,2.86-8.77,4.1-.65.49-1,.82-1,.82s-6,5,1.9,7.13a55.37,55.37,0,0,0,6.28,1.21,76.2,76.2,0,0,0,24.71-.65,41.27,41.27,0,0,1,6-.67c7.73-.28,10.36-2.21,10.36-2.21s.78-8.07,0-8.85a2.17,2.17,0,0,1-.29-.44c-1.2-2.13-4.43-10.84-4.43-10.84s-.36,0-.81.54l-.15-.69a48.69,48.69,0,0,1-.94-7.36v-1.33a6.86,6.86,0,0,1,2.41,1.28s.9-6.64,0-11.28.68-23,2.69-27.63,2.47-22.32,1.79-24.09c0,0,3.59-15.69,2.24-18.79s5.77-31.65,5.77-31.65,3.58-6.85,2.69-7.73c0,0,5.82-3.76,5.15-6.63s5.37-6.19,5.37-6.19,5.38,13,7.17,15,1.86,14.81,4.07,17.46,5.11,16.58,8,20.34,14.56,13.7,16.36,25c0,0,10.52,16.14,10.07,21.22-.18,2.14,1.9,5,5.25,6.36l-.16,1.27-.42,3.53h0s-3.17.36-3.69,7.28-.38,14.52-1.87,16.51a22.78,22.78,0,0,0-2.74,4.2c-1.66,3.59-1.73,8.23,8.3,9.72,15.34,2.29,19.08-6.19,19.08-6.19a25.61,25.61,0,0,0,1.21-5A2.88,2.88,0,0,0,1012.54,715.81Z" fill="url(#e)"/><path d="M911.59,355.86a19.91,19.91,0,0,0,1.2,3.14,53,53,0,0,1,.65,39.87c3.59-.23,7.17.35,10.76.63s7.29.23,10.62-1.17,6.24-4.41,6.72-8.12c.66-5-3-9.37-6.19-13.17s-6.4-8.15-7.37-13.2c-1.06-5.55.45-12.06-3.06-16.38a3.48,3.48,0,0,0-1.16-1c-1.89-.86-6.79-.83-8.69.24C912.15,348.34,910.92,352.68,911.59,355.86Z" fill="#3e373a"/><path d="M1010.92,718a25.26,25.26,0,0,1-1.18,4.91s-3.63,8.36-18.58,6.1c-9.76-1.47-9.69-6-8.07-9.59a22.79,22.79,0,0,1,2.66-4.15c1.45-2,1.31-9.45,1.82-16.28s3.59-7.19,3.59-7.19l.19,7.69c5.82-7.63,9.89,1.31,9.89,1.31s8.27.18,7.26-4.07c-1.08-4.51-2.69-11.67-2.69-11.67s4,1.86,4.73,3.17-.14,18.83-.8,20.5,0,6.18,1,7.49A2.84,2.84,0,0,1,1010.92,718Z" fill="#e7c7ca"/><path d="M1010.92,718a25.26,25.26,0,0,1-1.18,4.91s-3.63,8.36-18.58,6.1c-9.76-1.47-9.69-6-8.07-9.59,1.37,2,4.46,3.6,11.09,3C1004.32,721.62,1008.71,719.92,1010.92,718Z" fill="#e7c7ca"/><path d="M1010.92,718a25.26,25.26,0,0,1-1.18,4.91s-3.63,8.36-18.58,6.1c-9.76-1.47-9.69-6-8.07-9.59,1.37,2,4.46,3.6,11.09,3C1004.32,721.62,1008.71,719.92,1010.92,718Z" opacity="0.1" style="isolation:isolate"/><path d="M1008.13,696.28a8.14,8.14,0,0,1-5.7,7.77,11,11,0,0,1-9.58-1.46,5.65,5.65,0,0,1-2.37-5.28l.23-1.93.84-7,1.15-9.71s12.38-6.31,11.56-3.92c-.31.89.37,4.89,1.36,9.56.69,3.33,1.54,7,2.29,10.12A8.19,8.19,0,0,1,1008.13,696.28Z" fill="#be6f72"/><path d="M989.72,695.75s10.72-12.59,19.5,1.15l-1.47,8.8h-18Z" opacity="0.1" style="isolation:isolate"/><path d="M989.72,696.62s10.72-12.59,19.5,1.15l-1.47,8.8h-18Z" fill="#e7c7ca"/><circle cx="1003.65" cy="703.31" r="1.09" fill="#4b4b5b"/><circle cx="989.71" cy="701.56" r="1.09" fill="#4b4b5b"/><circle cx="999.89" cy="710.7" r="1.09" fill="#4b4b5b"/><circle cx="990.38" cy="709.41" r="1.09" fill="#4b4b5b"/><circle cx="1002" cy="707.23" r="1.09" fill="#4b4b5b"/><circle cx="989.71" cy="705.49" r="1.09" fill="#4b4b5b"/><circle cx="998.8" cy="714.75" r="1.09" fill="#4b4b5b"/><circle cx="990.38" cy="713.34" r="1.09" fill="#4b4b5b"/><path d="M917.92,731.19l-14.83,5s-7.85-7.85-5.67-10.25c.93-1,1.74-4.43,2.36-8,.2-1.12.38-2.27.54-3.36.51-3.55.81-6.53.81-6.53s17.23-8.28,14.39,0a20.56,20.56,0,0,0-.81,7.25,48.33,48.33,0,0,0,.92,7.26A68.51,68.51,0,0,0,917.92,731.19Z" fill="#be6f72"/><path d="M917.92,731.19l-14.83,5s-7.85-7.85-5.67-10.25c.93-1,1.74-4.43,2.36-8a15.39,15.39,0,0,1,1.73,4.84c12.82,7,13,2.83,13,2.83a7.71,7.71,0,0,1,1.09-3A68.51,68.51,0,0,0,917.92,731.19Z" opacity="0.1" style="isolation:isolate"/><path d="M921.17,742.64s-2.57,1.91-10.09,2.18a40.87,40.87,0,0,0-5.87.66,73,73,0,0,1-24,.65,50.7,50.7,0,0,1-6.12-1.2c-7.74-2.13-1.86-7-1.86-7s.38-.32,1-.81c1.64-1.23,5-3.49,8.53-4,4.85-.77,9.32-9.38,9.32-9.38l3-5.51c4.74-4.09,6.38,5.51,6.38,5.51,12.82,7,13,2.83,13,2.83.71-3.76,2-3.76,2-3.76s3.2,8.6,4.35,10.74a2.17,2.17,0,0,0,.29.44C921.92,734.68,921.17,742.64,921.17,742.64Z" fill="#e7c7ca"/><path d="M921.17,742.64s-2.57,1.91-10.09,2.18a40.87,40.87,0,0,0-5.87.66,73,73,0,0,1-24,.65,50.7,50.7,0,0,1-6.12-1.2c-7.74-2.13-1.86-7-1.86-7s.38-.32,1-.81c4.37,1,11.84,2.57,16.54,2.28,7-.43,13.74-1.56,13.74-1.56s12-3.77,16.4-4.33a2.17,2.17,0,0,0,.29.44C921.92,734.68,921.17,742.64,921.17,742.64Z" fill="#e7c7ca"/><path d="M921.17,742.64s-2.57,1.91-10.09,2.18a40.87,40.87,0,0,0-5.87.66,73,73,0,0,1-24,.65,50.7,50.7,0,0,1-6.12-1.2c-7.74-2.13-1.86-7-1.86-7s.38-.32,1-.81c4.37,1,11.84,2.57,16.54,2.28,7-.43,13.74-1.56,13.74-1.56s12-3.77,16.4-4.33a2.17,2.17,0,0,0,.29.44C921.92,734.68,921.17,742.64,921.17,742.64Z" opacity="0.1" style="isolation:isolate"/><circle cx="901.42" cy="727.27" r="1.09" fill="#4b4b5b"/><circle cx="895.18" cy="730.32" r="1.09" fill="#4b4b5b"/><circle cx="898.53" cy="728.76" r="1.09" fill="#4b4b5b"/><circle cx="891.66" cy="732.12" r="1.09" fill="#4b4b5b"/><path d="M915.49,708.07a20.56,20.56,0,0,0-.81,7.25c-3.87-1.3-10.21-1.07-14.39-.72.51-3.55.81-6.53.81-6.53S918.33,699.79,915.49,708.07Z" opacity="0.1" style="isolation:isolate"/><path d="M1005.62,684.27c-5.36,5.25-10.49,5.58-14.07,4.07l1.15-9.71s12.38-6.31,11.56-3.92C1003.92,675.6,1004.63,679.6,1005.62,684.27Z" opacity="0.1" style="isolation:isolate"/><path d="M911.57,505.25s-8.51,4.79-10,14.17-4.15,21.38-6.11,23.56-8.07,9.16-5.67,12.86,2.83,16.36,2.83,16.36-.87,11.34,1.53,15,4.36,27.26-.87,34.24c0,0-1.75,16.14-1.09,17.67s-2.84,5.45-1.75,8.72,6.33,63.47,5.67,65.87c0,0,16.58-2.4,20.94,1.52,0,0,.87-6.54,0-11.12s.66-22.68,2.62-27.26,2.4-22,1.74-23.78c0,0,3.49-15.48,2.18-18.53s5.64-31.16,5.64-31.16,3.49-6.76,2.62-7.63c0,0,5.67-3.71,5-6.55s5.23-6.1,5.23-6.1,5.24,12.86,7,14.83,1.81,14.61,4,17.23,5,16.35,7.82,20.06,14.17,13.52,15.92,24.65c0,0,10.25,15.92,9.81,20.93S998.19,695,1009.75,678a15.13,15.13,0,0,1-6.1-12.43c0-8.51-9.16-35.77-9.16-35.77s-5.24-7.63-3.28-11.34.22-14.61.22-14.61l4.15-6.77s.65-6.54,1.3-13.3-3.92-14.18-1.74-17.45-.87-19.61-.87-19.61-2.72-28.18-6.76-29.89S911.57,505.25,911.57,505.25Z" fill="#4b4b5b"/><path d="M931.44,465.77s-4.48.51-9.92,1c-7.87.74-17.75,1.49-18.92.72-2-1.31,0-17.89,0-17.89s.68-18.1,0-30.75c-.54-10.26,6.26-17.8,8.84-20.28a12.63,12.63,0,0,1,1-.87l2.18,1.74,12.43,21.16Z" fill="#be6f72"/><path d="M980.05,396.2l-12.21,7.41-20.07,15.27s-20.72-10.9-15.48-17.23a9.75,9.75,0,0,0,1.91-4.28c1.58-7.28-1.91-17.75-1.91-17.75s27.29-36.86,25.73-8.28c-.62,11.48,2.81,17.74,7.14,21.14C971.61,397.53,980.05,396.2,980.05,396.2Z" fill="#be6f72"/><ellipse cx="942.57" cy="363.42" rx="25.26" ry="26.76" opacity="0.1" style="isolation:isolate"/><ellipse cx="942.57" cy="362.55" rx="25.26" ry="26.76" fill="#be6f72"/><path d="M980.05,396.2l-12.21,7.41-20.07,15.27s-20.72-10.9-15.48-17.23a9.75,9.75,0,0,0,1.91-4.28c22.86,19.54,29.8-.68,31-4.89C971.61,397.53,980.05,396.2,980.05,396.2Z" opacity="0.1" style="isolation:isolate"/><path d="M931.44,465.77s-4.48.51-9.92,1c-.21-4.7-.92-10-.79-13.24.22-5.45.22-6.11-1.53-9.16s-1.52-5.45-1.31-9.38c.21-3.76-.78-4.52-4.32-10.53l-.47-.81c-1.74-3-2.24-8.41-2.26-13.52a.06.06,0,0,0,0-.06c0-1.21,0-2.41.07-3.55v-.1c.13-3.45.41-6.4.56-7.8a12.63,12.63,0,0,1,1-.87l2.18,1.74,12.43,21.16Z" opacity="0.1" style="isolation:isolate"/><path d="M998.59,401.42h-.05c-7.9-3.41-12.38,13.75-13.58,19.15-.22,1-.33,1.59-.33,1.59s.14,1.45.31,3.75c.59,7.72,1.61,25-.75,29.18a7.17,7.17,0,0,0-.56,1.4c-.74,2.56-.65,6.39-.27,10.12A99.72,99.72,0,0,0,985.29,478s5.23,13.31,3.05,22a32.26,32.26,0,0,0-.64,9.89,59.4,59.4,0,0,0,1.38,9c.21.87.35,1.36.35,1.36q-4.93,1.69-9.65,2.81a93.72,93.72,0,0,1-18.65,2.52c-29.49.94-49.12-13.19-53.76-17-.37-.3-.64-.54-.82-.71-3-2.83,2.84-5,2.18-7s3-6.32,3-6.32-.81-7.2,2.47-8.72,5.67-6.77,7.51-11.13-.32-15.7-.1-21.15.22-6.11-1.53-9.16-1.52-5.45-1.3-9.38c.21-3.76-.79-4.52-4.33-10.53l-.47-.81c-1.74-3-2.24-8.41-2.25-13.52V410c0-1.21,0-2.41.06-3.55v-.06c.18-4.84.66-8.67.66-8.67,17.45-9,21.59.37,21.59.37,25.52,22,31.31-5.48,31.31-5.48,13.89-4.75,32.16,8,33.2,8.78Z" fill="#e7c7ca"/><path d="M902.3,463.55s-2.18,11.64,4.13,18.14a7.08,7.08,0,0,0,8.21,1.41c2.1-1,4.45-2.56,5.33-4.52C921.7,474.71,916.26,455.81,902.3,463.55Z" fill="#be6f72"/><path d="M984.19,455.08a7.17,7.17,0,0,0-.56,1.4l1-25.5.31-5.08C985.53,433.62,986.55,450.88,984.19,455.08Z" opacity="0.1" style="isolation:isolate"/><path d="M988.34,500a32.26,32.26,0,0,0-.64,9.89c-1.41,2.57-2.62,4.74-3.41,6.15l-1,1.74a40.9,40.9,0,0,0-3.54,5.31,10.36,10.36,0,0,0-1.47,4.31c0,3.35-3.38,25.71-19.41,20.15-10.36-3.59-3.75-14.59,2.23-21.94a82.83,82.83,0,0,1,6.38-7s1.85-2.36,3.63-4.82a29,29,0,0,0,3.13-5C975,506.62,980,497,980,497s5-10.58,3.91-15.49c-.61-2.75-.68-9.54-.62-15a99.72,99.72,0,0,0,1.93,11.38S990.52,491.29,988.34,500Z" opacity="0.1" style="isolation:isolate"/><path d="M998.59,401.42s7.85,5.46,7.63,19.63-2.83,38.71-2.83,38.71L1001.75,475s-2.07,6.22-1.74,8.07S982.92,516,982.92,516s-5,6.27-5,9.63-3.38,25.7-19.41,20.14,8.61-28.9,8.61-28.9,6-7.63,6.77-9.81,5.79-11.78,5.79-11.78,5-10.57,3.91-15.48-.44-22.72-.44-22.72l1.09-27.88.44-7.09S988.67,398.6,998.59,401.42Z" fill="#be6f72"/><path d="M915.3,453.47l11.91-4.32a5.61,5.61,0,0,1,5.79,1.2l15.79,14.91s.87,2.4-.29,2.29-18.17-17.13-18.17-17.13l-16.87,5.67h0A2.8,2.8,0,0,1,915.3,453.47Z" fill="#9f9eff"/><polygon points="932.14 473.48 948.49 467.56 930.32 450.44 913.45 456.11 932.14 473.48" fill="#4b4b5b"/><circle cx="907.57" cy="521.03" r="1.45" fill="#e7c7ca"/><circle cx="897.68" cy="539.71" r="1.45" fill="#e7c7ca"/><circle cx="976.66" cy="546.5" r="1.45" fill="#e7c7ca"/><circle cx="984.88" cy="572.89" r="1.45" fill="#e7c7ca"/><circle cx="981.68" cy="565.47" r="1.45" fill="#e7c7ca"/><circle cx="978.9" cy="555.98" r="1.45" fill="#e7c7ca"/><circle cx="902.29" cy="529.87" r="1.45" fill="#e7c7ca"/><circle cx="891.91" cy="549.41" r="1.45" fill="#e7c7ca"/><path d="M998.54,401.42h0c-7.9-3.41-12.38,13.75-13.58,19.15l-12.4-17.74S967.48,411,951,412.2s-20.42-12.5-20.42-12.5c-2.26-.18-12.47,18.2-16.18,24.8l-.47-.81c-1.74-3-2.24-8.41-2.25-13.52v-.06c0-1.18,0-2.37.06-3.55v-.14c.18-4.84.66-8.67.66-8.67,17.45-9,21.59.37,21.59.37,25.52,22,31.31-5.48,31.31-5.48C979.23,387.87,997.5,400.66,998.54,401.42Z" fill="#464353"/><path d="M901.75,560.86c.22.55,18.54,21.7,25.3,22.79S901.75,560.86,901.75,560.86Z" opacity="0.1" style="isolation:isolate"/><path d="M914.92,528.42s.19,14.92-4.39,18.29S914.92,528.42,914.92,528.42Z" opacity="0.1" style="isolation:isolate"/><path d="M923.35,533.71s-.44,17.55,6.1,21.7C929.45,555.42,917.46,543.74,923.35,533.71Z" opacity="0.1" style="isolation:isolate"/><path d="M915.28,623.89s-12.22,9-15.6,9.71S915.28,623.89,915.28,623.89Z" opacity="0.1" style="isolation:isolate"/><path d="M912.23,346.94c-2.63,2.22-1.69,6.82,1,9s6.37,2.48,9.81,2.56c6.62.18,13.35-.21,19.77,1.42a16.13,16.13,0,0,1,7.58,3.88,17.1,17.1,0,0,1,3.94,7.85,43.07,43.07,0,0,1,1.35,13.14c-.16,3-.62,6-.2,8.91a29,29,0,0,0,2.78,7.93,329.7,329.7,0,0,0,16.85,31.25,5.9,5.9,0,0,0,2.2,2.41c1.57.76,3.42,0,5-.78a37.5,37.5,0,0,1-1.55-9.47,4.23,4.23,0,0,0,4.48-1.56,12.55,12.55,0,0,0,2-4.58l2.93-10.12c.91-3.12,2.26-6.71,5.38-7.63a20.3,20.3,0,0,0,3.3-.77,4.22,4.22,0,0,0,2-4.16,9,9,0,0,0-2-4.44c-4.41-5.94-11.77-9.46-15.22-16-3-5.63-2.45-12.4-1.47-18.68s2.34-12.74.83-18.91a25,25,0,0,0-9.72-13.93,39.27,39.27,0,0,0-15.91-6.54c-2.66-.51-5.47-.82-8,0-2,.67-3.68,2-5.62,2.79-4.39,1.81-9.46.73-14.08,1.88A18.94,18.94,0,0,0,919.25,330a40,40,0,0,0-5.45,11.86c-.85,2.77.51,3.88-2,5.39" opacity="0.1" style="isolation:isolate"/><path d="M912.66,346.07c-2.63,2.22-1.68,6.82,1,9s6.36,2.47,9.8,2.56c6.62.17,13.35-.21,19.77,1.42a16,16,0,0,1,7.58,3.88,17.13,17.13,0,0,1,4,7.84,42.85,42.85,0,0,1,1.34,13.15c-.15,3-.62,6-.19,8.91a28.48,28.48,0,0,0,2.78,7.93A329.69,329.69,0,0,0,975.59,432a5.73,5.73,0,0,0,2.19,2.4c1.58.77,3.43,0,5-.77a38,38,0,0,1-1.54-9.47,4.26,4.26,0,0,0,4.48-1.56,12.51,12.51,0,0,0,2-4.59l2.94-10.11c.91-3.13,2.25-6.71,5.37-7.63a19.82,19.82,0,0,0,3.3-.77,4.23,4.23,0,0,0,2-4.16,8.89,8.89,0,0,0-2-4.44c-4.41-5.94-11.78-9.47-15.22-16-3-5.62-2.45-12.39-1.47-18.67s2.33-12.74.83-18.91a25.12,25.12,0,0,0-9.73-13.94,39.22,39.22,0,0,0-15.9-6.54,15.86,15.86,0,0,0-8,.06c-2,.67-3.68,2-5.62,2.79-4.4,1.81-9.47.73-14.08,1.88a18.92,18.92,0,0,0-10.41,7.52A39.92,39.92,0,0,0,914.27,341c-.85,2.77.52,3.88-2,5.39" fill="#3e373a"/><path d="M909.92,464.9s20-13.31,25.63-5.13S918,478,918,478Z" fill="#be6f72"/><path d="M916.46,401.68c-.08,1.28-.32,2.85-1,3.09,1.86,0,3.7,1.32,5.55.91,1.37-.3,2.67-1.64,3.5-3.61a1.64,1.64,0,0,1,.47-.77c.19-.11.4,0,.6.12a58.31,58.31,0,0,1,10,7.57c1,1,2.16,2,3.28,1.49A25,25,0,0,0,936.72,400a13.38,13.38,0,0,0-5.72-6.26,17.54,17.54,0,0,0-6.72-1.75,6.58,6.58,0,0,1-2.9-.72c-1-.58-4.15-4.36-4.86-1.61-.35,1.33.09,4.16.1,5.64C916.63,397.42,916.58,399.56,916.46,401.68Z" fill="#3e373a"/><g opacity="0.1"><path d="M979.61,432.2a5.73,5.73,0,0,1-2.19-2.4,327.45,327.45,0,0,1-16.85-31.25,28.48,28.48,0,0,1-2.78-7.93c-.43-3,0-5.94.19-8.92a42.83,42.83,0,0,0-1.35-13.14,17.06,17.06,0,0,0-3.94-7.84,16,16,0,0,0-7.58-3.88c-6.42-1.63-13.15-1.25-19.77-1.42-3.44-.09-7.12-.42-9.8-2.56a6.78,6.78,0,0,1-2.24-7.19,4.57,4.57,0,0,1-.56.45c-2.57,2.23-1.62,6.78,1,8.92s6.37,2.47,9.8,2.56c6.63.17,13.35-.21,19.77,1.42a16,16,0,0,1,7.59,3.88,17.11,17.11,0,0,1,3.94,7.84,43.17,43.17,0,0,1,1.35,13.15c-.16,3-.63,6-.2,8.91a28.48,28.48,0,0,0,2.78,7.93A329.7,329.7,0,0,0,975.62,432a5.69,5.69,0,0,0,2.2,2.4c1.57.77,3.42,0,5-.77-.14-.44-.26-.88-.37-1.32A4,4,0,0,1,979.61,432.2Z"/><path d="M912.45,346.31l.29-.19v0Z"/><path d="M914.48,343.93l-.28.19.33-.23h0c2.07-1.41.87-2.54,1.68-5.2A40.54,40.54,0,0,1,921.48,327a25.29,25.29,0,0,0-1.61,2,40.14,40.14,0,0,0-5.45,11.87,18.58,18.58,0,0,0-.43,3.53A4.79,4.79,0,0,1,914.48,343.93Z"/><path d="M1001.19,397.3a19.8,19.8,0,0,1-3.3.76,6.42,6.42,0,0,0-3.65,3.23,5.07,5.07,0,0,1,1.91-1,19.94,19.94,0,0,0,3.29-.77,3.69,3.69,0,0,0,1.81-2.22Z"/><path d="M983.07,422c0,.75.07,1.51.14,2.26a4.94,4.94,0,0,0,2.59-1.64,7.7,7.7,0,0,0,.86-1.35A3.87,3.87,0,0,1,983.07,422Z"/></g><path d="M905.11,462.3s5.26-2.13,8.35-1.65" opacity="0.1" style="isolation:isolate"/><path d="M920.28,486.27s2.67,4.15,16.17,5.89S920.28,486.27,920.28,486.27Z" opacity="0.1" style="isolation:isolate"/><path d="M915.42,501.76s12.15,10.68,31.63,6.76S915.42,501.76,915.42,501.76Z" opacity="0.1" style="isolation:isolate"/><path d="M595,355.42c-.28-.31-.57-.62-.86-.92,2.25-2.55,4.58-5.17,4.56-8.45,0-4-3.56-7-4.88-10.83-1.8-5.13.69-10.63,1.72-16a30,30,0,0,0-6.49-24.66,8.65,8.65,0,0,0-3.8-2.9c-2.35-.74-4.86.29-7.31.59-8.1,1-15.47-6-23.6-5.35a4.43,4.43,0,0,0-1.57.35,6.6,6.6,0,0,0-2.27,2.57c-2.53,3.72-6.78,5.57-11,7.48a5.94,5.94,0,0,0-1.5.68,41.41,41.41,0,0,0-3.69,1.91c-8,4.72-6.82,11.32-2.12,15.4-.92,4.58-5.6,8.61-4.79,13.31.63,3.69,4.47,6.2,5.21,9.88a9.87,9.87,0,0,1-1.18,6.17c-8.92,2.07-19,5.87-19.79,12.58-1.37,11.68-5.49,43.92-5.49,43.92s-4.77,25.83,13.36,13.62l-.23.68a149.67,149.67,0,0,0-6.65,30.45c-.19,1.54-.56,2.75-1.23,3.15-.24.14.24.37,1.29.66-.12.43-.25.86-.36,1.3a123.35,123.35,0,0,0-3.81,23.06,161.17,161.17,0,0,1-2.84,20.54c-4.3,21.6,0,49.31,0,49.31L515.09,588l1.6,7.55a11.23,11.23,0,0,0,3.8,2.74,59.35,59.35,0,0,1,1.3,8.21,4.17,4.17,0,0,0,.07.93,3.89,3.89,0,0,0-2.78,1.74c-3.34,4.69.47,8.45-12.41,17.84-3.33,2.43-4.93,4.64-5.34,6.51h0a4.39,4.39,0,0,0,2.21,4.76h0a7.75,7.75,0,0,0,.9.5h0c.16.07.32.15.49.21h0l.51.19h0l.5.16h0l.54.14h0l.51.11h.06l.56.09h.06l.5.06h2.75l.57-.06h.07l.51-.07h.14l.56-.11h.06l.51-.12h.14l.55-.16h0l.52-.18.14-.06.54-.21c8.59-3.76,26.24-13.62,26.24-13.62V624a1.76,1.76,0,0,0,0-.23v-.31h0c-.09-4.1-.5-13.53-2.36-13.16-.64.12-1.07,1-1.52,2l-.22-.42c-1.82-3.51-4.45-9.53-4.71-15.41a27.72,27.72,0,0,0,4.06-3.6s-1-4-1.78-8.3c-.7-3.69-1.3-7.55-1.08-9.08.47-3.29-5.73-28.65-5.73-28.65s.64-5.58,1.92-13.33c2.5-15.07,7.41-38.36,14.75-45,.17-.15.34-.3.51-.43,0,0,5.25.94,9.54,30.53l1.25,13.18a75,75,0,0,0,1.82,10.78,57,57,0,0,1,1.19,17.32c-.54,7.77-.77,16.91-.87,23.33-.08,4.84-.08,8.14-.08,8.14a18.46,18.46,0,0,0,2.86,2v4.31a3.61,3.61,0,0,1-1,2.45h0a6.76,6.76,0,0,0-1.44,2.65c-.83,1.5-1.54,3.94-1.83,7.86-1,12.68-1.43,11.27-1.43,11.27a16.71,16.71,0,0,0-1.08,4.27h0a7.7,7.7,0,0,0,0,.83v.51a1.15,1.15,0,0,1,0,.19v.7a.71.71,0,0,0,.07.34c.07.11,0,.1,0,.14a3.38,3.38,0,0,0,.1.34v.11l.12.3a.56.56,0,0,0,0,.08,2.21,2.21,0,0,0,.18.34l.06.08a3.46,3.46,0,0,0,.22.31l.06.07.29.3h0l.33.26h.06a3.61,3.61,0,0,0,.39.22h.08a3,3,0,0,0,.45.18h.08a3,3,0,0,1,.53.14h0a4.89,4.89,0,0,0,.59.09h2l.82-.09c10-1.41,14.79-2.35,14.31-8-.29-3.4-1.1-8.33-1.69-11.72a17.86,17.86,0,0,0-1.65-4.94c0-.26,0-.53.07-.81a17.91,17.91,0,0,0-.55-7l.22-4.11a13.1,13.1,0,0,0,6.46-3.87s.07-3,.28-7.09c.32-6.24,1-14.85,2.11-18.27,1.91-5.64,0-25.36,0-25.36s-7.16-33.82-.48-48.38c5.89-12.84,5.84-25.69.17-38.21a2.23,2.23,0,0,0,.31-.3s-1.43-.94-1-11.74c.37-8.25-2-16.76-3.21-20.33a49.76,49.76,0,0,0,5.6,2c11,3.29,11.93-8.92,11.93-8.92l2.47-18.11,2.83-27.3h0C599.5,367.06,600.54,361.71,595,355.42Zm-48.51-18.09a6.8,6.8,0,0,1-.06.9,12.37,12.37,0,0,1-.61,2.85,18.67,18.67,0,0,0,.59-3.81ZM575.38,404c.17.31.33.62.48.91l-1.2-.61a27.11,27.11,0,0,1,2.15-6.4,44.64,44.64,0,0,0,2.91-7.38,74.31,74.31,0,0,0,.43,8.79c1,7.53-4.77,4.71-4.77,4.71Z" fill="url(#f)"/><path d="M534.92,301.91c-1.53,1-3.12,2.24-3.67,4-.87,2.84,1.33,5.7,1.54,8.67.4,5.4-5.71,9.86-4.81,15.2.62,3.66,4.37,6.15,5.09,9.79,1.06,5.31-4.7,10-4.24,15.38.24,2.88,2.24,5.32,4.5,7.1a21.93,21.93,0,0,0,11,4.51c-.27-4.62-3.69-8.82-3.11-13.41.41-3.14,2.62-5.71,3.9-8.62,2.25-5.09,1.53-11,.18-16.39s-3.28-10.72-3.38-16.31c-.06-3.35,1.51-8.27.36-11.45C540.92,296.51,537.53,300.13,534.92,301.91Z" fill="#7e656a"/><path d="M534.92,302c-1.53,1-3.12,2.24-3.67,4-.87,2.85,1.33,5.71,1.54,8.68.4,5.4-5.71,9.86-4.81,15.2.62,3.66,4.37,6.15,5.09,9.79,1.06,5.31-4.7,10-4.24,15.38.24,2.87,2.24,5.31,4.5,7.09a21.85,21.85,0,0,0,11,4.52c-.27-4.62-3.69-8.82-3.11-13.41.41-3.14,2.62-5.72,3.9-8.62,2.25-5.09,1.53-11,.18-16.39S542,317.53,541.91,312c-.06-3.35,1.51-8.28.36-11.46C540.92,296.64,537.53,300.26,534.92,302Z" opacity="0.1" style="isolation:isolate"/><path d="M539.38,613.66l-4.19,4.19s-14.91,7.92-13-2.79a38.56,38.56,0,0,0,.32-9.63,59.72,59.72,0,0,0-2.65-13.19l14-2.8c-2.32,7.3,1.51,16.5,3.9,21.18A30.37,30.37,0,0,0,539.38,613.66Z" fill="#ffb9b9"/><path d="M571.12,605.19a42,42,0,0,1-.53,4.28s-11.67,7.95-12.58-.93c-.6-5.77.77-8.37,1.8-9.49h0a3.63,3.63,0,0,0,1-2.43V586.18l10.24,3.24-.46,8.85A18,18,0,0,1,571.12,605.19Z" fill="#ffb9b9"/><path d="M539.38,613.66l-4.19,4.19s-14.91,7.92-13-2.79a38.56,38.56,0,0,0,.32-9.63c3.26-.48,7.13,3.11,7.13,3.11,5.46,7.7,6.93,4.79,8.09,2.08A34,34,0,0,0,539.38,613.66Z" opacity="0.05" style="isolation:isolate"/><path d="M529.6,609.47s-6.52-6.06-9.78-1.4.46,8.39-12.11,17.7,0,15.37,8.38,11.65,25.62-13.51,25.62-13.51,0-15.37-2.33-14.91S537.52,620.65,529.6,609.47Z" fill="#8189a6"/><path d="M571.12,605.19a42,42,0,0,1-.53,4.28s-11.67,7.95-12.58-.93c-.6-5.77.77-8.37,1.8-9.49a2.79,2.79,0,0,1,2.86-.29c1.86-.83,3.91.55,5.61,2.34A16.66,16.66,0,0,1,571.12,605.19Z" opacity="0.05" style="isolation:isolate"/><path d="M562.67,599.69s-5.12-2.8-6.06,9.78-1.39,11.18-1.39,11.18-4.66,11.18,5.12,9.78,14.44-2.33,14-7.92c-.28-3.37-1.06-8.26-1.65-11.61a17,17,0,0,0-4.38-8.87C566.58,600.24,564.53,598.86,562.67,599.69Z" fill="#8189a6"/><path d="M579.44,540.07s1.86,19.56,0,25.15c-1.13,3.39-1.75,11.93-2.06,18.12-.2,4-.27,7-.27,7-8.85,9.32-19.1,0-19.1,0s0-3.27.08-8.06c.09-6.37.32-15.44.85-23.14A57.22,57.22,0,0,0,557.77,542a76.67,76.67,0,0,1-1.8-10.74l-1.22-13.07c-4.19-29.35-9.31-30.28-9.31-30.28-.17.13-.33.28-.5.42-7.16,6.54-12,29.63-14.39,44.58-1.26,7.69-1.88,13.22-1.88,13.22s6,25.16,5.59,28.42c-.22,1.51.37,5.34,1.06,9,.8,4.22,1.73,8.23,1.73,8.23-11.64,12.58-19.56,2.79-19.56,2.79l-1.57-7.45-9.14-43.75s-4.2-27.48,0-48.91A163.94,163.94,0,0,0,509.56,474a123.81,123.81,0,0,1,3.71-22.87q.85-3.31,1.89-6.6a229.88,229.88,0,0,1,34-3c12.35,0,24.13,1.71,27.52,7.7q1.18,2.07,2.14,4.15a44.62,44.62,0,0,1,.19,38.7C572.45,506.53,579.44,540.07,579.44,540.07Z" fill="#4b4b5b"/><path d="M540.31,371s-24.68-25.15-6-23.29c4.22.42,7.08-.33,9-1.75a9,9,0,0,0,3.32-6.65A27.52,27.52,0,0,0,545,328.6s25.15-20,20,5.13a43.27,43.27,0,0,0-1,7.77c-.08,5.34,1.67,7.38,4.14,8.22,4.15,1.42,10.33-.57,13.14,4C586.42,362.14,540.31,371,540.31,371Z" fill="#ffb9b9"/><path d="M565,333.73a43.27,43.27,0,0,0-1,7.77,18.21,18.21,0,0,1-2,.58,19.66,19.66,0,0,1-4.43.5,19.93,19.93,0,0,1-11-3.28A27.52,27.52,0,0,0,545,328.6S570.12,308.58,565,333.73Z" opacity="0.05" style="isolation:isolate"/><path d="M577.57,321.62A20,20,0,0,1,562,341.15a19.66,19.66,0,0,1-4.43.5,20,20,0,0,1-20-20v-1.12a20,20,0,0,1,40,1.12h0Z" fill="#ffb9b9"/><path d="M540.31,371s-24.68-25.15-6-23.29c4.22.42,7.08-.33,9-1.75-3.61,6-7.66,16.74,10.58,15.72,16.7-.92,16.41-7.58,14.34-12,4.15,1.42,10.33-.57,13.14,4C586.42,362.14,540.31,371,540.31,371Z" opacity="0.05" style="isolation:isolate"/><path d="M579.44,455.3c-4.24,5.51-58.27-1.72-66.17-4.12q.85-3.31,1.89-6.6a229.88,229.88,0,0,1,34-3c12.35,0,24.13,1.71,27.52,7.7q1.18,2.07,2.14,4.15C579.07,455,579.44,455.3,579.44,455.3Z" opacity="0.1" style="isolation:isolate"/><path d="M545.44,343.51S514,346.07,512.6,358.18c-1.34,11.58-5.36,43.55-5.36,43.55s-4.66,25.62,13,13.51l-.22.68a151.1,151.1,0,0,0-6.5,30.2c-.18,1.52-.54,2.73-1.19,3.12-2.33,1.4,62.41,10.71,67.07,4.66,0,0-1.4-.93-.93-11.65s-3.73-21.89-3.73-21.89-3.73-11.18,1.4-21.89,3.26-14,3.26-14L597.1,371s3.82-6.55-3.17-14.64a24.2,24.2,0,0,0-16.63-8.2l-12.21-.87s13.38,14.39-11.78,15.79S545.44,343.51,545.44,343.51Z" fill="#c3c7d9"/><path d="M524.48,369.13s.93,7.45-.94,9.78-2.32,13,0,19.56" opacity="0.05" style="isolation:isolate"/><path d="M544.92,488.32c-7.16,6.54-12,29.63-14.39,44.58-3.4-20.81,10.69-55.25,10.69-55.25Z" opacity="0.1" style="isolation:isolate"/><path d="M537.05,591.77c-11.64,12.58-19.56,2.79-19.56,2.79l-1.57-7.48c4.41,2.29,11.84,4.07,19.4-3.54C536.12,587.76,537.05,591.77,537.05,591.77Z" opacity="0.1" style="isolation:isolate"/><path d="M577.38,583.34c-.2,4-.27,7-.27,7-8.85,9.32-19.1,0-19.1,0s0-3.27.08-8.06A19.19,19.19,0,0,0,577.38,583.34Z" opacity="0.1" style="isolation:isolate"/><rect x="526.8" y="384.97" width="31.67" height="13.04" rx="3.75" ry="3.75" fill="#cdd0db"/><rect x="526.8" y="384.97" width="31.67" height="13.04" rx="3.75" ry="3.75" opacity="0.05" style="isolation:isolate"/><rect x="526.8" y="385.43" width="31.67" height="13.04" rx="3.75" ry="3.75" fill="#5e5a6b"/><circle cx="551.72" cy="391.72" r="1.4" fill="#9da7c0"/><path d="M513.32,405.62a9.1,9.1,0,0,1,5.27-5.55,8.25,8.25,0,0,0,4.51-4c1.84-4.07,5.1-8.26,13.49-5.47s-2.33,4.66-2.33,4.66,19.09-2.79,11.64,2.8a71.7,71.7,0,0,1-16.77,8.85l-4.58,4.85a6.86,6.86,0,0,1-10.24-.2A5.92,5.92,0,0,1,513.32,405.62Z" opacity="0.05" style="isolation:isolate"/><path d="M512.86,404.68a9.06,9.06,0,0,1,5.26-5.54,8.28,8.28,0,0,0,4.52-4.06c1.84-4.06,5.1-8.25,13.48-5.46s-2.33,4.66-2.33,4.66,19.1-2.8,11.65,2.79a71.46,71.46,0,0,1-16.77,8.85l-4.59,4.86a6.86,6.86,0,0,1-10.24-.2A6,6,0,0,1,512.86,404.68Z" fill="#ffb9b9"/><path d="M578.51,414.31l-3.26,7.92-4.18-3.07-11.66-8.58-7.92-5.16c-11.18-8.39,0-9.78,0-9.78-4.19-1.87,0-3.73,0-3.73,14.91-3.26,12.11,8.85,12.11,8.85l9.44,4.9,3.14,1.62Z" opacity="0.05" style="isolation:isolate"/><path d="M579.44,413.42l-3.26,7.91L572,418.26l-11.66-8.57-7.92-5.12c-11.18-8.39,0-9.79,0-9.79-4.19-1.86,0-3.72,0-3.72,14.91-3.26,12.11,8.85,12.11,8.85L574,404.8l3.14,1.63Z" fill="#ffb9b9"/><path d="M579.44,413.42l-3.26,7.91L572,418.26c3.78.14,8.24-1.69,2-13.46l3.14,1.63Z" opacity="0.05" style="isolation:isolate"/><path d="M596.67,366.33l.9,3.67-2.76,27.07-2.33,18.17s-.93,12.11-11.64,8.85-11.65-6.52-11.65-6.52,15.37,5.12,5.59-13c0,0,5.59,2.79,4.66-4.66s0-20.5,0-20.5Z" fill="#c3c7d9"/><path d="M577.57,321.62A20,20,0,0,1,562,341.15a10.12,10.12,0,0,1-.66-5.82c.94-3.81,5.34-6.59,4.85-10.48a2.64,2.64,0,0,0-.44-1.22c-1-1.29-3-.65-4.58-.33a8.72,8.72,0,0,1-9.75-6,13.6,13.6,0,0,1-13.85,3.2,20,20,0,0,1,40,1.12h0Z" opacity="0.05" style="isolation:isolate"/><path d="M551.92,316.36a8.71,8.71,0,0,0,9.74,6c1.59-.32,3.6-1,4.58.33a2.54,2.54,0,0,1,.44,1.22c.49,3.89-3.9,6.67-4.84,10.47s1.88,7.71,2.49,11.7a44.33,44.33,0,0,1,0,6.62c0,2.21.52,4.59,2.16,6.07s4.67,1.5,5.76-.42c5.25,2.77,3.15,11.35,7.13,15.75,2.2,2.42,5.81,3,9.06,2.69a3.82,3.82,0,0,0,2.13-.68,3.71,3.71,0,0,0,1-2,15.86,15.86,0,0,0-.4-9.42c-.52-1.45-1.27-2.91-1.08-4.44a6.55,6.55,0,0,1,1.62-3.17c2.5-3.1,5.91-6.1,5.89-10.08s-3.48-7-4.77-10.73c-1.76-5.09.68-10.55,1.68-15.84A30,30,0,0,0,588.17,296a8.39,8.39,0,0,0-3.7-2.88c-2.3-.74-4.74.29-7.14.59-7.9,1-15.1-5.93-23-5.31a4.22,4.22,0,0,0-1.53.35,6.5,6.5,0,0,0-2.22,2.55c-3.51,5.24-10.4,6.73-15.8,10C518.92,310.8,539.8,328,551.92,316.36Z" fill="#7e656a"/><path d="M516.09,635.55c-5.44,2.42-12.65.72-13.6-3.32-1.14,5.33,7.38,8,13.6,5.19,8.39-3.73,25.62-13.51,25.62-13.51v-1.85C541.18,622.34,524.35,631.88,516.09,635.55Z" fill="#fff" opacity="0.3" style="isolation:isolate"/><path d="M574.29,622.24c-.54,4.19-5.18,5.07-14,6.33-4.46.63-5.91-1.34-6.18-3.68-.29,3,.56,6.34,6.18,5.54,9.78-1.4,14.44-2.33,14-7.92A2.46,2.46,0,0,0,574.29,622.24Z" fill="#fff" opacity="0.3" style="isolation:isolate"/><g opacity="0.1"><path d="M590.26,374.75c-3.26.31-6.87-.27-9.07-2.69-4-4.4-1.88-13-7.12-15.75-1.1,1.92-4.13,1.9-5.77.42s-2.13-3.86-2.16-6.07.33-4.43,0-6.62c-.61-4-3.47-7.78-2.49-11.7s5.34-6.58,4.84-10.47a2.44,2.44,0,0,0-.44-1.22c-1-1.29-3-.65-4.58-.33a8.71,8.71,0,0,1-9.74-6c-10.79,10.39-28.59-2.24-21-11.81-11.88,9.65,7.61,24.75,19.12,13.68a8.71,8.71,0,0,0,9.74,6c1.59-.32,3.6-1,4.58.34a2.46,2.46,0,0,1,.44,1.21c.49,3.89-3.9,6.67-4.84,10.47s1.88,7.71,2.49,11.71a44.33,44.33,0,0,1,0,6.62c0,2.21.52,4.58,2.16,6.06s4.67,1.5,5.76-.42c5.24,2.77,3.15,11.36,7.13,15.75,2.2,2.42,5.81,3,9.06,2.69a3.82,3.82,0,0,0,2.13-.68,3,3,0,0,0,.86-1.37A6.1,6.1,0,0,1,590.26,374.75Z"/><path d="M552.39,289.27l.48-.73h-.12a6.57,6.57,0,0,0-2.22,2.55c-.22.32-.45.64-.69.93A13.13,13.13,0,0,0,552.39,289.27Z"/></g><path d="M526.8,419.57s-1.2,4.2,6.72,6.06S526.8,419.57,526.8,419.57Z" opacity="0.1" style="isolation:isolate"/><path d="M523.34,432s-4,3,5.71,8.08S523.34,432,523.34,432Z" opacity="0.1" style="isolation:isolate"/><path d="M514.27,481.21s11-3.1,12.47-7.76S514.27,481.21,514.27,481.21Z" opacity="0.1" style="isolation:isolate"/><path d="M514.27,540.21s4.72,2.33,7.72,2S514.27,540.21,514.27,540.21Z" opacity="0.1" style="isolation:isolate"/><path d="M515.92,546.73A15.78,15.78,0,0,0,522,548C525.92,548.13,515.92,546.73,515.92,546.73Z" opacity="0.1" style="isolation:isolate"/><ellipse cx="773.46" cy="745.24" rx="19.1" ry="2.62" fill="#6c63ff" opacity="0.1" style="isolation:isolate"/><ellipse cx="700.31" cy="752.66" rx="19.1" ry="2.62" fill="#6c63ff" opacity="0.1" style="isolation:isolate"/><ellipse cx="614.15" cy="742.62" rx="19.1" ry="2.62" fill="#6c63ff" opacity="0.1" style="isolation:isolate"/><ellipse cx="729.59" cy="773.78" rx="13.58" ry="1.86" fill="#6c63ff" opacity="0.1" style="isolation:isolate"/><ellipse cx="653.67" cy="771.92" rx="13.58" ry="1.86" fill="#6c63ff" opacity="0.1" style="isolation:isolate"/><path d="M699.92,752.07s26.79-87.8-4.19-123c-23.17-26.31-49.47-23.16-61.25-19.9a21.74,21.74,0,0,0-14,11.67c-4.12,8.89-3.37,23.31,25.7,40.14,48.67,28.18,51.7,66.84,51.7,66.84Z" fill="#6c63ff"/><path d="M638.65,621.65s79,24.68,61.27,130.42" fill="none" stroke="#565987" stroke-miterlimit="10"/><path d="M684.77,630.5s-10.87,7.32-7.42,18.33" fill="none" stroke="#565987" stroke-miterlimit="10"/><path d="M646.57,637s6.65-6.76,14.74-3" fill="none" stroke="#565987" stroke-miterlimit="10"/><path d="M677.78,671s11.67-5.92,14.69,1.5" fill="none" stroke="#565987" stroke-miterlimit="10"/><path d="M706.66,683.36s-8.76-.69-8.92,3.5" fill="none" stroke="#565987" stroke-miterlimit="10"/><path d="M701,752.77s-31.37-63.82-40-62.42c-4.09.67-6,4.69-6.83,8.74a25.67,25.67,0,0,0,1.76,15.53C660.33,724.83,672.29,744.22,701,752.77Z" fill="#6c63ff"/><path d="M661.24,702.42s32.92,47.75,39.28,49.84" fill="none" stroke="#565987" stroke-miterlimit="10"/><line x1="658.2" y1="709.92" x2="665.89" y2="709.92" fill="none" stroke="#565987" stroke-miterlimit="10"/><line x1="667.41" y1="727.39" x2="679.45" y2="727.9" fill="none" stroke="#565987" stroke-miterlimit="10"/><line x1="674.74" y1="713.41" x2="673.43" y2="719.69" fill="none" stroke="#565987" stroke-miterlimit="10"/><line x1="687.55" y1="732.51" x2="687.32" y2="738.21" fill="none" stroke="#565987" stroke-miterlimit="10"/><path d="M700.06,752.77s31.36-63.82,40-62.42c4.09.67,6,4.69,6.83,8.74a25.67,25.67,0,0,1-1.71,15.53C740.71,724.83,728.76,744.22,700.06,752.77Z" fill="#6c63ff"/><path d="M739.81,702.42s-32.89,47.79-39.29,49.88" fill="none" stroke="#565987" stroke-miterlimit="10"/><line x1="742.83" y1="709.92" x2="735.15" y2="709.92" fill="none" stroke="#565987" stroke-miterlimit="10"/><line x1="733.63" y1="727.39" x2="721.58" y2="727.9" fill="none" stroke="#565987" stroke-miterlimit="10"/><line x1="726.3" y1="713.41" x2="727.6" y2="719.69" fill="none" stroke="#565987" stroke-miterlimit="10"/><line x1="713.49" y1="732.51" x2="713.72" y2="738.21" fill="none" stroke="#565987" stroke-miterlimit="10"/><path d="M646.2,767.67a5.39,5.39,0,0,1-1.79-2.69,2.41,2.41,0,0,1,1.25-2.75c1.14-.44,2.37.36,3.3,1.16s2,1.72,3.2,1.55a4.93,4.93,0,0,1-1.51-4.57,1.93,1.93,0,0,1,.42-.93c.64-.68,1.79-.39,2.55.15,2.43,1.7,3.1,5,3.12,8a15.61,15.61,0,0,0,0-3.28,3.36,3.36,0,0,1,1.23-2.89,3.79,3.79,0,0,1,1.88-.45,3.85,3.85,0,0,1,3,.87,3,3,0,0,1-.12,3.74,11.59,11.59,0,0,1-3.15,2.52,7.11,7.11,0,0,0-2.25,2.15,2.3,2.3,0,0,0-.17.39h-6.74A19.26,19.26,0,0,1,646.2,767.67Z" fill="#6c63ff"/><path d="M765.72,742a5.44,5.44,0,0,1-1.78-2.69,2.4,2.4,0,0,1,1.25-2.75c1.14-.44,2.37.36,3.29,1.16s2,1.72,3.21,1.55a4.88,4.88,0,0,1-1.51-4.57,1.93,1.93,0,0,1,.42-.93c.64-.68,1.79-.39,2.55.15,2.42,1.7,3.1,5,3.11,8a15,15,0,0,0,0-3.28,3.31,3.31,0,0,1,1.23-2.89,3.79,3.79,0,0,1,1.88-.45,3.87,3.87,0,0,1,3,.87,3,3,0,0,1-.12,3.74,11.74,11.74,0,0,1-3.15,2.52,7,7,0,0,0-2.25,2.15,2.59,2.59,0,0,0-.17.38h-6.76A19.11,19.11,0,0,1,765.72,742Z" fill="#6c63ff"/><path d="M725.92,767.67a5.46,5.46,0,0,1-1.79-2.69,2.41,2.41,0,0,1,1.25-2.75c1.15-.44,2.37.36,3.3,1.16s2,1.72,3.21,1.55a4.88,4.88,0,0,1-1.51-4.57,1.84,1.84,0,0,1,.42-.93c.63-.68,1.78-.39,2.55.15,2.42,1.7,3.09,5,3.11,8a15,15,0,0,0,0-3.28,3.36,3.36,0,0,1,1.23-2.89,3.79,3.79,0,0,1,1.88-.45,3.85,3.85,0,0,1,3,.87,3,3,0,0,1-.12,3.74,11.59,11.59,0,0,1-3.15,2.52,7.22,7.22,0,0,0-2.25,2.15,2.3,2.3,0,0,0-.17.39h-6.82A19.26,19.26,0,0,1,725.92,767.67Z" fill="#6c63ff"/><path d="M612.92,715.72s-2.56,3.35,1.18,8.4,6.83,9.31,5.58,12.46c0,0-5.64-9.38-10.24-9.51S607.86,721.36,612.92,715.72Z" fill="#6c63ff"/><path d="M612.92,715.72a4.19,4.19,0,0,0-.52,1c-4.48,5.26-6.87,10.18-2.56,10.3,4,.11,8.82,7.29,10,9.1a1.25,1.25,0,0,1-.14.41c0,.13-5.64-9.38-10.24-9.51S607.86,721.36,612.92,715.72Z" opacity="0.1" style="isolation:isolate"/><path d="M608.15,720c0,1.18.14,2.14.3,2.14s.3-1,.3-2.14-.17-.62-.33-.62S608.15,718.81,608.15,720Z" fill="#ffd037"/><path d="M606.52,721.42c1,.56,1.94.9,2,.76s-.7-.72-1.74-1.28-.62-.15-.7,0S605.49,720.83,606.52,721.42Z" fill="#ffd037"/><path d="M626.43,715.72s2.56,3.35-1.18,8.4-6.83,9.31-5.58,12.46c0,0,5.64-9.38,10.23-9.51S631.48,721.36,626.43,715.72Z" fill="#6c63ff"/><path d="M626.43,715.72a4.19,4.19,0,0,1,.52,1c4.48,5.26,6.87,10.18,2.56,10.3-4,.11-8.82,7.29-10,9.1a1.25,1.25,0,0,0,.14.41c0,.13,5.64-9.38,10.23-9.51S631.48,721.36,626.43,715.72Z" opacity="0.1" style="isolation:isolate"/><path d="M631.18,720c0,1.18-.13,2.14-.29,2.14s-.3-1-.3-2.14.17-.62.33-.62S631.18,718.81,631.18,720Z" fill="#ffd037"/><path d="M632.82,721.42c-1,.56-1.94.9-2,.76s.7-.72,1.73-1.28.63-.15.71,0S633.85,720.83,632.82,721.42Z" fill="#ffd037"/><path d="M630.37,736.15s-7.16-.23-9.31-1.76-11-3.37-11.54-.91-10.75,12.25-2.68,12.31,18.77-1.25,20.92-2.56S630.37,736.15,630.37,736.15Z" fill="#a8a8a8"/><path d="M606.7,744.94c8.08.06,18.77-1.26,20.92-2.57,1.64-1,2.29-4.58,2.51-6.23h.24s-.45,5.77-2.61,7.08-12.84,2.63-20.92,2.56c-2.33,0-3.13-.84-3.09-2.07C604.08,744.42,605,744.92,606.7,744.94Z" opacity="0.2" style="isolation:isolate"/><ellipse cx="541.71" cy="847.96" rx="34.72" ry="5.13" fill="#6c63ff" opacity="0.1" style="isolation:isolate"/><ellipse cx="625.77" cy="894.01" rx="34.72" ry="5.13" fill="#6c63ff" opacity="0.1" style="isolation:isolate"/><ellipse cx="985.67" cy="825.02" rx="22.99" ry="2.57" fill="#6c63ff" opacity="0.1" style="isolation:isolate"/><ellipse cx="889.2" cy="847.96" rx="22.99" ry="2.57" fill="#6c63ff" opacity="0.1" style="isolation:isolate"/><ellipse cx="840.75" cy="894.01" rx="22.99" ry="2.57" fill="#6c63ff" opacity="0.1" style="isolation:isolate"/><ellipse cx="291.06" cy="912.92" rx="27.19" ry="4.67" fill="#6c63ff" opacity="0.1" style="isolation:isolate"/><path d="M303.19,866s-37.85,19.56-18.29,42.6c0,0,1.84,5,7.16,4.65,0,0-1.06-1.94,3-3.49a19.77,19.77,0,0,0,4.09-2.17,9.64,9.64,0,0,0,3.66-4.9h0s7.74-10.36,1.74-29.53c0,0,.77-5.42.1-6.29l-4.6,6.31s4.75,3.19,5.3,7.87c0,0-5-7.86-6-7-.22.18-2.29,3.45-2.29,3.45s8.25,5.59,8.86,12.85c0,0-4.64-10.16-9.65-11.61l-2.84,5.12s9,5.48,10,13.72c0,0-5.22-10.46-10.56-12.56l-2.12,5.41s8.68,5.52,9.48,12.38c0,0-7.26-11.48-9.88-11.11,0,0-1.63,5.08-1.41,6.64,0,0,6.13,4.1,6.24,8.13,0,0-5.66-7.15-6.53-6.68,0,0-.37,7.19,1.38,10.93,0,0-3-5.33-2.51-10.93a12,12,0,0,0-3.63,5.85s-1.63-4,3.74-7.59c0,0,.51-5.59,1.13-6.28,0,0-5.81,2.83-8.28,6.32,0,0,.91-5.19,8.78-7.77l2-5.48s-7.88,3.34-10.31,6.28c0,0,1.75-5.16,10.93-7.63l2.72-5s-7,2.36-10.42,5c0,0,2.65-4.43,11.26-6.46l2.21-3.16s-5.08,1.82-6.5,2.47-1.7.33-1.7.33a18.29,18.29,0,0,1,9.11-4.14S303.54,866.33,303.19,866Z" fill="#6c63ff"/><line x1="269.05" y1="541.55" x2="271.24" y2="540.35" fill="none" stroke="#3277bc" stroke-miterlimit="10"/><polyline points="275.66 537.95 544.98 391.49 925.37 449.68" fill="none" stroke="#3277bc" stroke-miterlimit="10" stroke-dasharray="5.03 5.03"/><line x1="927.85" y1="450.06" x2="930.32" y2="450.44" fill="none" stroke="#3277bc" stroke-miterlimit="10"/><polyline points="265.47 550.66 542.66 166.27 926.42 459.32" fill="none" stroke="#3277bc" stroke-miterlimit="10" stroke-dasharray="5"/><line x1="547.85" y1="391.49" x2="542" y2="154.07" fill="none" stroke="#3277bc" stroke-miterlimit="10" stroke-dasharray="5"/><g opacity="0.8"><rect x="469.85" width="151.08" height="168.62" fill="url(#g)"/></g><rect x="472.34" y="112.58" width="146.08" height="52.37" fill="#fff"/><rect x="484.33" y="125" width="5.66" height="26.83" fill="#64ffda"/><g opacity="0.7"><rect x="495.51" y="125" width="5.66" height="26.83" fill="#64ffda"/></g><g opacity="0.6"><rect x="506.69" y="125" width="5.66" height="26.83" fill="#64ffda"/></g><g opacity="0.5"><rect x="517.86" y="125" width="5.66" height="26.83" fill="#64ffda"/></g><g opacity="0.5"><rect x="529.04" y="125" width="5.66" height="26.83" fill="#64ffda"/></g><g opacity="0.4"><rect x="540.21" y="125" width="5.66" height="26.83" fill="#64ffda"/></g><g opacity="0.3"><rect x="551.39" y="125" width="5.66" height="26.83" fill="#64ffda"/></g><circle cx="597.75" cy="138.25" r="13.66" fill="#6c63ff"/><rect x="472.34" y="58.17" width="146.08" height="52.37" fill="#fff"/><rect x="484.33" y="70.6" width="5.66" height="26.83" fill="#64ffda"/><g opacity="0.7"><rect x="495.51" y="70.6" width="5.66" height="26.83" fill="#64ffda"/></g><g opacity="0.6"><rect x="506.69" y="70.6" width="5.66" height="26.83" fill="#64ffda"/></g><g opacity="0.5"><rect x="517.86" y="70.6" width="5.66" height="26.83" fill="#64ffda"/></g><g opacity="0.5"><rect x="529.04" y="70.6" width="5.66" height="26.83" fill="#64ffda"/></g><g opacity="0.4"><rect x="540.21" y="70.6" width="5.66" height="26.83" fill="#64ffda"/></g><g opacity="0.3"><rect x="551.39" y="70.6" width="5.66" height="26.83" fill="#64ffda"/></g><circle cx="597.75" cy="83.84" r="13.66" fill="#6c63ff"/><rect x="472.34" y="3.77" width="146.08" height="52.37" fill="#fff"/><rect x="484.33" y="16.19" width="5.66" height="26.83" fill="#64ffda"/><g opacity="0.7"><rect x="495.51" y="16.19" width="5.66" height="26.83" fill="#64ffda"/></g><g opacity="0.6"><rect x="506.69" y="16.19" width="5.66" height="26.83" fill="#64ffda"/></g><g opacity="0.5"><rect x="517.86" y="16.19" width="5.66" height="26.83" fill="#64ffda"/></g><g opacity="0.5"><rect x="529.04" y="16.19" width="5.66" height="26.83" fill="#64ffda"/></g><g opacity="0.4"><rect x="540.21" y="16.19" width="5.66" height="26.83" fill="#64ffda"/></g><g opacity="0.3"><rect x="551.39" y="16.19" width="5.66" height="26.83" fill="#64ffda"/></g><circle cx="597.75" cy="29.44" r="14.73" fill="url(#h)"/><circle cx="597.75" cy="84.21" r="14.73" fill="url(#i)"/><circle cx="597.75" cy="138.61" r="14.73" fill="url(#j)"/><circle cx="597.75" cy="29.44" r="13.66" fill="#6c63ff"/></svg>