<?xml version="1.0" encoding="utf-8"?>
<!-- Generator: Adobe Illustrator 21.0.0, SVG Export Plug-In . SVG Version: 6.00 Build 0)  -->
<svg version="1.0" id="Layer_1" xmlns="http://www.w3.org/2000/svg" xmlns:xlink="http://www.w3.org/1999/xlink" x="0px" y="0px"
	 viewBox="0 0 41.6 41.6" style="enable-background:new 0 0 41.6 41.6;" xml:space="preserve">
<style type="text/css">
	.st0{fill:#522A71;}
</style>
<path class="st0" d="M20.8,36c-1.7,0-3.5-0.3-5.2-0.9c-5.1-1.8-8.5-6.4-9.3-9.9c0-0.2,0.1-0.4,0.2-0.5c0.2-0.1,0.4-0.1,0.6,0.1
	c0.8,0.7,1.7,0.9,2.8,0.9c0.2,0,0.5,0,0.7,0c0.6,0,1.2,0,1.7,0c1.1-0.1,2.2-0.2,3.4-0.4c1.3-0.2,2.6-0.5,3.9-0.8l1.5-0.3
	c0.3-0.1,1.2-0.3,1.5,0.6c0.2,0.6,0,1.2-0.6,1.6c-1.1,0.7-2.6,1.6-4.2,2.3c-0.4,0.2-0.8,0.4-1.3,0.6c3,1.5,5.8,1.5,8.6,0
	c3.1-1.6,4.7-4.3,4.9-8c0-0.2,0.1-0.3,0.2-0.4c0.2-0.1,0.5-0.3,0.7-0.4c1.5-0.8,2.8-1.6,3.5-3.2c0.1-0.2,0.3-0.3,0.5-0.3
	c0.2,0,0.4,0.1,0.5,0.3c1.2,3.5,0.8,9.3-3.1,13.7C29.3,34.1,25.1,36,20.8,36z M7.7,26.2c1.2,3,4.2,6.5,8.3,7.9
	c5.6,2,11.7,0.4,15.6-4.1c3.2-3.7,3.9-8.4,3.2-11.6c-0.9,1.2-2.1,1.9-3.3,2.6c-0.2,0.1-0.3,0.2-0.5,0.3c-0.3,3.9-2.1,6.8-5.4,8.6
	c-3.4,1.8-6.9,1.6-10.5-0.5c-0.2-0.1-0.3-0.3-0.2-0.5c0-0.2,0.1-0.4,0.3-0.4l0.7-0.3c0.5-0.2,1-0.4,1.5-0.6c1.6-0.7,3-1.5,4.1-2.2
	c0,0,0.3-0.2,0.2-0.3c0,0-0.1,0-0.4,0l-1.5,0.3c-1.3,0.3-2.6,0.6-3.9,0.8c-1.2,0.2-2.4,0.3-3.5,0.4c-0.6,0-1.2,0-1.8,0
	c-0.2,0-0.5,0-0.7,0C9.2,26.5,8.4,26.5,7.7,26.2z"/>
<path class="st0" d="M6.7,25.1c-0.2,0-0.4-0.1-0.5-0.3c-1.1-3.4-0.8-9,2.6-13.3c4-5,10.5-7,16.7-5.1c5.3,1.7,8.9,6.3,9.8,10
	c0,0.2,0,0.4-0.2,0.5c-0.2,0.1-0.4,0.1-0.6,0c-0.9-0.7-1.9-0.9-3.1-0.9c0,0,0,0.1,0.1,0.1l0.1,0.2c0.1,0.2,0.2,0.5,0.3,0.7
	c0.2,0.6-0.1,1.2-0.7,1.4c-0.4,0.2-0.9,0.2-1.4-0.4c-0.1-0.2-0.2-0.3-0.3-0.5C28.9,16.1,28.1,15,27,14c-1.4-1.3-3.1-2.1-5.1-2.3
	c-1.4-0.2-2.8,0-4.2,0.5c-2.4,0.9-4.2,2.5-5.2,4.7c-0.6,1.3-0.9,2.7-0.9,4.2c0,0.4,0.1,0.7,0.1,1.1l0.1,0.4c0.1,0.8-0.1,1.2-0.9,1.6
	c-0.1,0-0.2,0-0.2,0c-0.4,0-1-0.2-1.2-1.2c0-0.2-0.1-0.5-0.1-0.7c-0.9,0.5-1.9,1.6-2.1,2.4C7.1,24.9,6.9,25.1,6.7,25.1
	C6.7,25.1,6.7,25.1,6.7,25.1z M20.8,6.6c-4.3,0-8.4,1.9-11.2,5.4c-2.8,3.6-3.4,8-2.8,11.2c0.7-0.9,1.8-1.8,2.7-2.1
	c0.1,0,0.3,0,0.4,0.1c0.1,0.1,0.2,0.2,0.2,0.3l0.1,0.4c0,0.3,0.1,0.6,0.2,1c0,0.2,0.1,0.3,0.2,0.4c0.2-0.1,0.2-0.1,0.2-0.1
	c0,0,0-0.1,0-0.3l-0.1-0.4c-0.1-0.4-0.1-0.8-0.1-1.3c0-1.6,0.3-3.2,1-4.7c1.2-2.5,3.1-4.3,5.8-5.2c1.5-0.6,3.1-0.7,4.6-0.5
	c2.2,0.3,4.1,1.1,5.7,2.6c1.2,1.1,2.1,2.4,2.6,3.8c0,0.1,0.1,0.2,0.2,0.3c0.1,0.1,0.1,0.1,0.1,0.1c0.2-0.1,0.2-0.1,0.2-0.2
	c-0.1-0.2-0.1-0.4-0.2-0.6l-0.1-0.2c-0.1-0.2-0.2-0.3-0.2-0.5l-0.1-0.3c-0.1-0.2-0.1-0.3,0-0.5C30.3,15,30.7,15,31,15
	c1,0,2,0,2.9,0.4c-1.2-3.2-4.3-6.7-8.7-8.1C23.7,6.8,22.2,6.6,20.8,6.6z"/>
</svg>
