<svg xmlns="http://www.w3.org/2000/svg" width="72" height="72" viewBox="0 0 72 72"><title>Icon-Design</title><path d="M18.18,17a7,7,0,0,1-5.3.49l5.8,12.32,4.52-2.13Z" fill="#d194ff"/><path d="M54.2,15.91,48.68,27.64l4.52,2.13,5.65-12A7,7,0,0,1,54.2,15.91Z" fill="#d194ff"/><path d="M28.24,37.7a7.68,7.68,0,0,1,.39-2.4,13.12,13.12,0,0,1-4.21-5L20,32.75a18.08,18.08,0,0,0,9.08,8.53A7.66,7.66,0,0,1,28.24,37.7Z" fill="#d194ff"/><path d="M47.84,30.31a13.12,13.12,0,0,1-4.51,5.19,7.66,7.66,0,0,1-.67,6,18.08,18.08,0,0,0,9.56-8.73Z" fill="#d194ff"/><path d="M2.83,48.57V48.5L36.45,67.43h0ZM69.17,49v0l-5.35,3Z" fill="#fff"/><polygon points="71.67 38.07 66.67 40.88 66.67 47.55 61.76 50.31 36.45 64.56 5.33 47.04 5.33 41.09 0.33 38.33 0.33 47.27 0.33 50.04 2.83 51.44 5.33 52.84 36.45 70.3 66.67 53.29 69.17 51.88 71.67 50.47 71.67 49.67 71.67 38.07 71.67 38.07" fill="#522a71"/><path d="M69.39,36.52l-2.54-1.41-.18-.1L53.83,27.9,49.1,25.28l-13-7.18-13,7.19L18.43,27.9,5.56,35,1.31,37.48.33,38v.29l5,2.76,30.81,17L66.67,40.88l5-2.81v-.29ZM56,41.33,50.81,44.2,36.13,52.32,21.46,44.2l-5.18-2.87-5.87-3.25L20,32.75l4.38-2.43,11.71-6.49,11.7,6.48,4.38,2.43,9.64,5.34Z" fill="#ae43ff"/><path d="M14.94,6.7a4,4,0,1,1-4,4,4,4,0,0,1,4-4m0-5a9,9,0,1,0,9,9,9,9,0,0,0-9-9Z" fill="#522a71"/><path d="M58.94,6.7a4,4,0,1,1-4,4,4,4,0,0,1,4-4m0-5a9,9,0,1,0,9,9,9,9,0,0,0-9-9Z" fill="#522a71"/><path d="M35.94,33.7a4,4,0,1,1-4,4,4,4,0,0,1,4-4m0-5a9,9,0,1,0,9,9,9,9,0,0,0-9-9Z" fill="#522a71"/></svg>