<svg xmlns="http://www.w3.org/2000/svg" width="72" height="72" viewBox="0 0 72 72"><title>Icon-Design</title><path d="M16.34,57.17a24,24,0,0,1,40.32,0h5.76a29,29,0,0,0-51.84,0Z" fill="#d194ff"/><path d="M71,37.17H68a1,1,0,0,1-1-1V16.67H60.75a1,1,0,0,1-1-1v-3a1,1,0,0,1,1-1H69a3,3,0,0,1,3,3v21.5A1,1,0,0,1,71,37.17Z" fill="#522a71"/><path d="M69,58.67H3a3,3,0,0,1-3-3v-41a3,3,0,0,1,3-3h9.25a1,1,0,0,1,1,1v3a1,1,0,0,1-1,1H5v37H67v-6.5a1,1,0,0,1,1-1h3a1,1,0,0,1,1,1v8.5A3,3,0,0,1,69,58.67Z" fill="#522a71"/><rect x="34.5" y="53.67" width="5" height="17.83" fill="#522a71"/><rect x="22" y="67" width="30" height="5" rx="1" ry="1" fill="#522a71"/><path d="M36.5,6.17a13,13,0,1,0,12.33,8.9L36,27.86l-7.71-7.71a1,1,0,0,1,0-1.41l2.12-2.12a1,1,0,0,1,1.41,0L36,20.79,46.24,10.58A13,13,0,0,0,36.5,6.17Z" fill="none"/><path d="M60.06,2.41,57.94.29a1,1,0,0,0-1.41,0L51.58,5.23,49.78,7,47.14,9.68l-.9.9L36,20.79l-4.17-4.17a1,1,0,0,0-1.41,0l-2.12,2.12a1,1,0,0,0,0,1.41L36,27.86l12.8-12.8.34-.34,3.48-3.48,1.52-1.52,5.9-5.9A1,1,0,0,0,60.06,2.41Z" fill="#ae43ff"/><path d="M49.34,21.08a13,13,0,1,1-3.11-10.5l.9-.9L49.78,7A18,18,0,1,0,54.5,19.17a17.73,17.73,0,0,0-.26-3Z" fill="#d194ff"/></svg>