<svg xmlns="http://www.w3.org/2000/svg" xmlns:xlink="http://www.w3.org/1999/xlink" width="170" height="134.55" viewBox="0 0 170 134.55"><defs><linearGradient id="a" x1="39.61" y1="-708.24" x2="39.61" y2="-617.03" gradientTransform="matrix(1, 0, 0, -1, 0, -617.03)" gradientUnits="userSpaceOnUse"><stop offset="0" stop-color="gray" stop-opacity="0.25"/><stop offset="0.54" stop-color="gray" stop-opacity="0.12"/><stop offset="1" stop-color="gray" stop-opacity="0.1"/></linearGradient><linearGradient id="b" x1="76.7" y1="-700.01" x2="76.7" y2="-646.4" xlink:href="#a"/><linearGradient id="c" x1="214" y1="-830.34" x2="214" y2="-742.01" gradientTransform="matrix(1, 0, 0, -1, -129, -695.79)" xlink:href="#a"/><linearGradient id="d" x1="217.17" y1="-768.17" x2="217.17" y2="-706.31" gradientTransform="matrix(1, 0, 0, -1, -129, -695.79)" xlink:href="#a"/></defs><title>min-performace</title><g opacity="0.5"><rect x="9.44" width="60.34" height="91.2" rx="0.81" ry="0.81" fill="url(#a)"/></g><rect x="10.21" y="0.67" width="58.79" height="89.36" rx="0.81" ry="0.81" fill="#f2f2f2"/><g opacity="0.5"><rect x="16.09" y="17.13" width="11.76" height="10.58" rx="0.81" ry="0.81" fill="#5e35b1"/></g><rect x="31.38" y="17.13" width="31.75" height="1.18" rx="0.51" ry="0.51" fill="#e0e0e0"/><rect x="31.38" y="20.66" width="26.39" height="1.18" rx="0.51" ry="0.51" fill="#e0e0e0"/><g opacity="0.5"><rect x="16.09" y="33.59" width="11.76" height="10.58" rx="0.81" ry="0.81" fill="#5e35b1"/></g><rect x="31.38" y="33.59" width="31.75" height="1.18" rx="0.51" ry="0.51" fill="#e0e0e0"/><rect x="31.38" y="37.12" width="31.75" height="1.18" rx="0.51" ry="0.51" fill="#e0e0e0"/><g opacity="0.5"><rect x="16.09" y="50.05" width="11.76" height="10.58" rx="0.81" ry="0.81" fill="#5e35b1"/></g><rect x="31.38" y="50.05" width="31.75" height="1.18" rx="0.51" ry="0.51" fill="#e0e0e0"/><rect x="31.38" y="53.58" width="3.53" height="1.18" rx="0.51" ry="0.51" fill="#e0e0e0"/><g opacity="0.5"><rect x="46.99" y="29.37" width="59.43" height="53.61" rx="0.81" ry="0.81" fill="url(#b)"/></g><rect x="47.9" y="29.9" width="57.7" height="51.93" rx="0.81" ry="0.81" fill="#fff"/><g opacity="0.5"><rect x="53.57" y="41.06" width="12.4" height="11.16" rx="0.81" ry="0.81" fill="#5e35b1"/></g><rect x="69.69" y="41.06" width="33.47" height="1.24" rx="0.54" ry="0.54" fill="#e0e0e0"/><rect x="69.69" y="44.78" width="33.47" height="1.24" rx="0.54" ry="0.54" fill="#e0e0e0"/><rect x="52.33" y="58.28" width="50.82" height="1.24" rx="0.54" ry="0.54" fill="#e0e0e0"/><rect x="52.33" y="62" width="50.82" height="1.24" rx="0.54" ry="0.54" fill="#e0e0e0"/><rect x="52.33" y="66.95" width="50.82" height="1.24" rx="0.54" ry="0.54" fill="#e0e0e0"/><rect x="52.33" y="70.67" width="38.43" height="1.24" rx="0.54" ry="0.54" fill="#e0e0e0"/><g opacity="0.5"><path d="M107.85,49.43h0l.21-.94-.3.92a92,92,0,0,0-23.61-3.18C26.72,45.88,0,96.65,0,96.65l54.44,28.72s6.68-20.71,30.39-20a40.82,40.82,0,0,1,4.87.43l-7.22,22.47A4,4,0,1,0,89,132.85l.13-.2h0a4,4,0,0,0,.59-2,3.43,3.43,0,0,0,0-.36L95,106.95a32,32,0,0,1,20.25,18.43L170,98S149.43,60.72,107.85,49.43Z" fill="url(#c)"/></g><path d="M84.18,46.78C27.46,46.45,1.08,96.57,1.08,96.57l53.75,28.35s6.59-20.44,30-19.78a40.28,40.28,0,0,1,4.92.44l17.8-55.63A90.87,90.87,0,0,0,84.18,46.78Z" fill="#5e35b1"/><path d="M107.56,49.95l-17.8,55.63a31.74,31.74,0,0,1,25.08,19.34l54.08-27S148.6,61.1,107.56,49.95Z" fill="#e0e0e0"/><path d="M89.7,129.75,107.77,49,82.52,127.76a4,4,0,1,0,6.44,4.6l.17-.25h0a3.93,3.93,0,0,0,.58-2A2.14,2.14,0,0,0,89.7,129.75Z" fill="#535461"/><g opacity="0.7"><path d="M96.23,46.69l-.47-.09.93-3.43C98.16,32.16,92.61,31,90.53,31a6.84,6.84,0,0,0-.73-.22v-1.3A6.9,6.9,0,0,0,95,23.92h0c.33,0,.6-.5.6-1.12a1.56,1.56,0,0,0-.26-.93q0-.36,0-.72a7.17,7.17,0,0,0-2.23-5.2,4.62,4.62,0,0,0-.51-1.37c-.51-.9-1.36-1.84-1-2.81L89.35,12l0-1.48c-.7.13-1,.94-1.41,1.51-1,1.39-3,1.58-4.33,2.67-.45.36-1.47,1.49-1.27,2.22A7.16,7.16,0,0,0,81,21.14q0,.36,0,.72a1.56,1.56,0,0,0-.26.93c0,.62.27,1.12.6,1.12h0a6.9,6.9,0,0,0,5.15,5.57v1.3a6.84,6.84,0,0,0-.73.22c-2.08,0-7.63,1.15-6.16,12.16l.93,3.43-.22,0a2.56,2.56,0,0,0-2,3h0L82,69.32a.77.77,0,0,0,.9.62l.65-.12v.38a2.15,2.15,0,0,0-1.2,1.93v.24h4.35v-.24a2.15,2.15,0,0,0-1-1.85v-.86l.59-.11a.77.77,0,0,0,.62-.9L83.36,49.9h9.58L89.49,68.42a.77.77,0,0,0,.62.9l.59.11v.86a2.15,2.15,0,0,0-1,1.85v.24H94v-.24a2.15,2.15,0,0,0-1.2-1.93v-.38l.65.12a.77.77,0,0,0,.9-.62l3.72-20a2.3,2.3,0,0,0-1.84-2.68Z" fill="url(#d)"/></g><rect x="83.69" y="67.31" width="2.02" height="2.74" fill="#fdb797"/><rect x="90.61" y="67.31" width="2.02" height="2.74" fill="#fdb797"/><rect x="81.52" y="44.83" width="13.26" height="4.76" fill="#4d8af0"/><g opacity="0.05"><rect x="81.52" y="44.83" width="13.26" height="4.76"/></g><path d="M81.52,45.69a50.65,50.65,0,0,0,6.63,1.15,50.65,50.65,0,0,0,6.63-1.15V45H81.52Z" opacity="0.1" style="isolation:isolate"/><path d="M94.78,45.55a50.65,50.65,0,0,1-6.63,1.15,50.65,50.65,0,0,1-6.63-1.15V37.62A6.63,6.63,0,0,1,88.15,31h0a6.63,6.63,0,0,1,6.63,6.63Z" fill="#ad43ff"/><path d="M86.57,27.67h3.17v3.82a1.37,1.37,0,0,1-1.37,1.37h-.42a1.37,1.37,0,0,1-1.37-1.37V27.67Z" fill="#fdb797"/><path d="M86.08,68.3l-2.84.53a.93.93,0,0,1-1.08-.75L78.77,49.92a3.08,3.08,0,0,1,2.46-3.59h0l.73-.14a.93.93,0,0,1,1.08.75l3.79,20.27a.93.93,0,0,1-.75,1.09Z" fill="#4d8af0"/><path d="M90.22,68.3l2.84.53a.93.93,0,0,0,1.08-.75l3.45-18.47a2.77,2.77,0,0,0-2.22-3.23l-1-.19a.93.93,0,0,0-1.08.75L89.47,67.21a.93.93,0,0,0,.75,1.09Z" fill="#4d8af0"/><path d="M86.57,30.08a6.64,6.64,0,0,0,3.17,0V27.82H86.57Z" opacity="0.1" style="isolation:isolate"/><circle cx="88.15" cy="21.91" r="6.92" fill="#333"/><circle cx="88.15" cy="23.49" r="6.63" fill="#fdb797"/><path d="M83.78,15.71c1.28-1,3.21-1.23,4.17-2.56.4-.56.68-1.34,1.36-1.46l0,1.42,2.17-.22c-.33.94.48,1.84,1,2.71a4.45,4.45,0,0,1,.58,2.1c-.75.45-1.68,0-2.51-.3a9.08,9.08,0,0,0-2.53-.3,5.24,5.24,0,0,0-1.3.07,6.57,6.57,0,0,0-1.08.4c-.57.24-2.39,1.15-2.92.56S83.28,16.11,83.78,15.71Z" fill="#333"/><path d="M84.14,20.17a3,3,0,0,0,1.17.36,10.33,10.33,0,0,0,5-.56,2.45,2.45,0,0,0,1.59,1.34,7.37,7.37,0,0,0,2.13.24.79.79,0,0,0,.46-.09c.32-.21.16-.71,0-1l-.92-1.67a5,5,0,0,0-1-1.37,4.06,4.06,0,0,0-1.93-.83,10.87,10.87,0,0,0-4.95.16C84,17.16,81.77,18.73,84.14,20.17Z" opacity="0.1" style="isolation:isolate"/><path d="M84.14,20a3,3,0,0,0,1.17.36,10.33,10.33,0,0,0,5-.56,2.45,2.45,0,0,0,1.59,1.34,7.37,7.37,0,0,0,2.13.24.79.79,0,0,0,.46-.09c.32-.21.16-.71,0-1l-.92-1.67a5,5,0,0,0-1-1.37,4.06,4.06,0,0,0-1.93-.83,10.87,10.87,0,0,0-4.95.16C84,17,81.77,18.59,84.14,20Z" fill="#333"/><ellipse cx="94.71" cy="23.49" rx="0.58" ry="1.08" fill="#fdb797"/><ellipse cx="81.6" cy="23.49" rx="0.58" ry="1.08" fill="#fdb797"/><path d="M86.6,31.43s-8.39-1.31-6.66,11.67l1,3.72,2.89-.12s-1.87-4.33-.72-7.21S86.6,31.43,86.6,31.43Z" fill="#ad43ff"/><path d="M89.71,31.43s8.39-1.31,6.66,11.67l-1,3.72-2.89-.12s1.87-4.33.72-7.21S89.71,31.43,89.71,31.43Z" fill="#ad43ff"/><circle cx="82.53" cy="47.28" r="1.59" fill="#fdb797"/><circle cx="94.06" cy="47.28" r="1.59" fill="#fdb797"/><path d="M84.34,68.9h.56a1.8,1.8,0,0,1,1.8,1.8v.49H82.53v-.49a1.8,1.8,0,0,1,1.8-1.8Z" fill="#333"/><path d="M91.41,68.9H92a1.8,1.8,0,0,1,1.8,1.8v.49H89.6v-.49a1.8,1.8,0,0,1,1.8-1.8Z" fill="#333"/><path d="M83,38.34s-.58,3,.43,4.33" opacity="0.1" style="isolation:isolate"/><path d="M93.34,38.34s.58,3-.43,4.33" opacity="0.1" style="isolation:isolate"/><path d="M90.55,37.7a1.44,1.44,0,0,1-.7.6A1.51,1.51,0,0,1,89,39.64a1.53,1.53,0,0,1-1.58-.08l-.12.05a4.92,4.92,0,0,0,.65-.36c.07,0,.09-.1.07-.15s-.1-.15-.18-.13c-.29.06-.05,0-.34.08a4.45,4.45,0,0,1-.54.07h-.39a.69.69,0,0,1-.5-.16,2.32,2.32,0,0,0,4,.84A2.29,2.29,0,0,0,90.55,37.7Z" fill="#5e35b1"/><path d="M86.54,38.42a2.07,2.07,0,0,0,0,.21c0,.07,0,.12.12.13s.11-.07.1-.17a1.4,1.4,0,0,1,0-.26,1.64,1.64,0,0,1,.15-.71,1.48,1.48,0,0,1,.87-.79,1.39,1.39,0,0,1,.7-.08,1.58,1.58,0,0,1,.86.39,1.54,1.54,0,0,1,.4.57l0,.07a.1.1,0,0,0,.12,0,.11.11,0,0,0,.07-.13l0-.12-.06-.14a1,1,0,0,1,.67.16A2.3,2.3,0,0,0,89,36.07a2.33,2.33,0,0,0-2.56.78,2.26,2.26,0,0,0-.41,2A.86.86,0,0,1,86.54,38.42Z" fill="#5e35b1"/><path d="M88.37,37.32V38a.27.27,0,0,0,.27.27h.63A1.39,1.39,0,0,1,88.37,37.32Z" fill="#5e35b1"/><path d="M88.37,39.25v-.65a.25.25,0,0,1,.26-.26h.65A1.39,1.39,0,0,0,88.37,39.25Z" fill="#5e35b1"/><path d="M88.25,37.32V38a.25.25,0,0,1-.26.26h-.65A1.39,1.39,0,0,0,88.25,37.32Z" fill="#5e35b1"/><path d="M88.25,39.25v-.65a.25.25,0,0,0-.26-.26h-.65A1.39,1.39,0,0,1,88.25,39.25Z" fill="#5e35b1"/></svg>