<?xml version="1.0" encoding="utf-8"?>
<!-- Generator: Adobe Illustrator 21.0.0, SVG Export Plug-In . SVG Version: 6.00 Build 0)  -->
<svg version="1.0" id="Layer_1" xmlns="http://www.w3.org/2000/svg" xmlns:xlink="http://www.w3.org/1999/xlink" x="0px" y="0px"
	 viewBox="0 0 41.6 41.6" style="enable-background:new 0 0 41.6 41.6;" xml:space="preserve">
<style type="text/css">
	.st0{fill:#522A71;}
</style>
<g>
	<path class="st0" d="M41.6,19.8H27.1c-2.9,0-5.3-2.4-5.3-5.3V0l1,3.1c2.3,7.5,8.2,13.3,15.6,15.6L41.6,19.8z M22.8,6v8.4
		c0,2.4,1.9,4.3,4.3,4.3h8.4C29.9,16.3,25.3,11.7,22.8,6z"/>
	<path class="st0" d="M21.8,41.6V26.8c0-2.8,2.2-5,5-5h14.8l-3.1,1C31,25.1,25.1,31,22.8,38.4L21.8,41.6z M26.8,22.8
		c-2.2,0-4,1.8-4,4v8.7c2.5-5.7,7-10.2,12.7-12.7H26.8z"/>
	<path class="st0" d="M14.8,19.8H0l3.1-1c7.5-2.3,13.3-8.2,15.6-15.6l1-3.1v14.8C19.8,17.5,17.5,19.8,14.8,19.8z M6,18.8h8.7
		c2.2,0,4-1.8,4-4V6C16.3,11.7,11.7,16.3,6,18.8z"/>
	<path class="st0" d="M19.8,41.6l-1-3.1C16.4,31,10.6,25.1,3.1,22.8l-3.1-1h14.8c2.8,0,5,2.2,5,5V41.6z M6,22.8
		c5.7,2.5,10.2,7,12.7,12.7v-8.7c0-2.2-1.8-4-4-4H6z"/>
</g>
</svg>
