<svg xmlns="http://www.w3.org/2000/svg" width="72" height="72" viewBox="0 0 72 72"><title>Icon-Design</title><path d="M36,1.34h0a36,36,0,0,0-36,36H0A36,36,0,0,0,17.83,68.41L20,63.86a31,31,0,1,1,31.88.1l2.24,4.49A36,36,0,0,0,72,37.34h0A36,36,0,0,0,36,1.34Z" fill="#522a71"/><path d="M28,46.92,20,63.86l-2.15,4.55a35.86,35.86,0,0,0,4.48,2.22l2.14-4.54,7.93-16.8A12.46,12.46,0,0,1,28,46.92Z" fill="#d194ff"/><path d="M36,24.84A12.5,12.5,0,0,0,32.38,49.3l.15-.33A5,5,0,0,0,31.13,43a7.55,7.55,0,0,1-.9-.91,7.5,7.5,0,1,1,11,.58l2.3,4.6A12.49,12.49,0,0,0,36,24.84Z" fill="#ae43ff"/><path d="M51.86,64,43.53,47.3l-2.3-4.6a7.56,7.56,0,0,1-.79.67A4.86,4.86,0,0,0,39,49.46l8.36,16.71,2.25,4.5a35.83,35.83,0,0,0,4.48-2.21Z" fill="#d194ff"/></svg>