<svg xmlns="http://www.w3.org/2000/svg" width="72" height="72" viewBox="0 0 72 72"><title>Icon-Design</title><path d="M71,37.17H68a1,1,0,0,1-1-1V16.67H60.75a1,1,0,0,1-1-1v-3a1,1,0,0,1,1-1H69a3,3,0,0,1,3,3v21.5A1,1,0,0,1,71,37.17Z" fill="#522a71"/><path d="M69,58.67H3a3,3,0,0,1-3-3v-41a3,3,0,0,1,3-3h9.25a1,1,0,0,1,1,1v3a1,1,0,0,1-1,1H5v37H67v-6.5a1,1,0,0,1,1-1h3a1,1,0,0,1,1,1v8.5A3,3,0,0,1,69,58.67Z" fill="#522a71"/><rect x="34.5" y="53.67" width="5" height="17.83" fill="#522a71"/><rect x="22" y="67" width="30" height="5" rx="1" ry="1" fill="#522a71"/><path d="M49.16,21.72V25.3l-12.83,13L23.5,25.3V10L36.33,8.21,47.14,9.68l4.44-4.44-14.85-2a3,3,0,0,0-.81,0l-14.83,2a3,3,0,0,0-2.6,3V26.12a3,3,0,0,0,.86,2.1L34.19,43.3a3,3,0,0,0,4.28,0L53.3,28.22a3,3,0,0,0,.86-2.1V16.72Z" fill="#d194ff"/><path d="M57.94.29a1,1,0,0,0-1.41,0L51.58,5.23,47.14,9.68,36,20.79l-4.17-4.17a1,1,0,0,0-1.41,0l-2.12,2.12a1,1,0,0,0,0,1.41L36,27.86,49.16,14.72l5-5,5.9-5.9a1,1,0,0,0,0-1.41Z" fill="#ae43ff"/></svg>