<svg xmlns="http://www.w3.org/2000/svg" width="72" height="72" viewBox="0 0 72 72"><title>Icon-Design</title><rect x="54.71" y="56.76" width="5" height="8" transform="translate(-26.21 58.25) rotate(-45)" fill="#d194ff"/><rect x="11.49" y="58.97" width="8" height="5" transform="translate(-38.93 28.96) rotate(-45)" fill="#d194ff"/><rect x="61.5" y="37.26" width="8" height="5" fill="#d194ff"/><rect x="33" y="6.76" width="5" height="8" fill="#d194ff"/><rect x="12.29" y="15.75" width="5" height="8" transform="translate(-9.64 16.24) rotate(-45)" fill="#d194ff"/><rect x="2.5" y="38.26" width="8" height="5" fill="#d194ff"/><path d="M36,4.26a36,36,0,0,0-36,36H0A35.94,35.94,0,0,0,12.76,67.74l3.56-3.56a31.26,31.26,0,0,1-3.59-3.48,31,31,0,1,1,47.19-.77,31.25,31.25,0,0,1-3.48,3.59L60,67.09a36.23,36.23,0,0,0,3.48-3.59A35.85,35.85,0,0,0,72,40.26h0A36,36,0,0,0,36,4.26Z" fill="#522a71"/><path d="M31.14,28.64a5.1,5.1,0,0,0-2.52,6.48,8.91,8.91,0,0,1,8.45-3.79L53.31,23.5,45,39.6c0,.22,0,.44,0,.66a9,9,0,0,1-3.9,7.41,5.1,5.1,0,0,0,6.53-2.35l17-32.85Z" fill="#d194ff"/><path d="M36,32.76a7.5,7.5,0,1,1-7.5,7.5,7.51,7.51,0,0,1,7.5-7.5m0-5a12.5,12.5,0,1,0,12.5,12.5A12.5,12.5,0,0,0,36,27.76Z" fill="#ae43ff"/></svg>