<svg id="Layer_1" data-name="Layer 1" xmlns="http://www.w3.org/2000/svg" viewBox="0 0 246.4 246"><title>kosmos-white</title><path d="M246.42,97c-7.28,16.33-22.82,23.37-37.13,31.9-1.53,31.54-15.38,55.94-43.36,70.72s-55.83,12.45-83.54-4.08c6.74-3,12.65-5.64,18.61-8.18,12.19-5.18,23.57-11.82,34.72-18.89,3.5-2.22,4.71-5.22,3.56-7.91s-3.35-3.2-7.83-2.19c-15,3.35-29.88,7-44.94,9.87a265.36,265.36,0,0,1-28.74,3.52c-6.81.54-13.7.16-20.55.15-9.65,0-19-1.21-26.55-8.49,6.32,29.18,35,65.69,75.12,80.18a123,123,0,0,0,135.6-35.65C251.73,172.71,256.5,126.19,246.42,97Z" transform="translate(-4.8 -5)" style="fill:#fff"/><path d="M34.73,134.76c.59,3.77,1.1,7.56,1.8,11.31.67,3.57,2.47,6.19,6.42,6.57,5.12-2.11,6-3.66,5.22-8.69-.68-4.44-1.64-8.9-1.71-13.36a83.44,83.44,0,0,1,7.95-37.34C64,72.79,79.67,59.06,100.65,51.44a76.82,76.82,0,0,1,36.91-4.1,81.27,81.27,0,0,1,45.2,20.74,78.48,78.48,0,0,1,20.89,30.22,15.5,15.5,0,0,0,1.89,3.52c1.95,2.68,3.91,3.31,6.44,2.26a5.63,5.63,0,0,0,3.55-6.87A51.78,51.78,0,0,0,213,90.7c-.91-2.09-1.91-4.15-3.24-7,13-.1,25.09-.13,35.2,8.24-6.83-30.58-36.84-67.56-79-81A123.52,123.52,0,0,0,31,52.16C4.09,86-.17,131.17,9.56,159.73,12.34,150.4,25.12,137.73,34.73,134.76Z" transform="translate(-4.8 -5)" style="fill:#ffffff"/></svg>